<?xml version="1.0" encoding="utf-8" standalone="no"?>
<!DOCTYPE svg PUBLIC "-//W3C//DTD SVG 1.1//EN"
  "http://www.w3.org/Graphics/SVG/1.1/DTD/svg11.dtd">
<svg xmlns:xlink="http://www.w3.org/1999/xlink" width="460.8pt" height="345.6pt" viewBox="0 0 460.8 345.6" xmlns="http://www.w3.org/2000/svg" version="1.1">
 <metadata>
  <rdf:RDF xmlns:dc="http://purl.org/dc/elements/1.1/" xmlns:cc="http://creativecommons.org/ns#" xmlns:rdf="http://www.w3.org/1999/02/22-rdf-syntax-ns#">
   <cc:Work>
    <dc:type rdf:resource="http://purl.org/dc/dcmitype/StillImage"/>
    <dc:date>2023-07-15T11:24:34.890534</dc:date>
    <dc:format>image/svg+xml</dc:format>
    <dc:creator>
     <cc:Agent>
      <dc:title>Matplotlib v3.7.1, https://matplotlib.org/</dc:title>
     </cc:Agent>
    </dc:creator>
   </cc:Work>
  </rdf:RDF>
 </metadata>
 <defs>
  <style type="text/css">*{stroke-linejoin: round; stroke-linecap: butt}</style>
 </defs>
 <g id="figure_1">
  <g id="patch_1">
   <path d="M 0 345.6 
L 460.8 345.6 
L 460.8 0 
L 0 0 
z
" style="fill: #ffffff"/>
  </g>
  <g id="axes_1">
   <g id="patch_2">
    <path d="M 57.6 307.584 
L 414.72 307.584 
L 414.72 41.472 
L 57.6 41.472 
z
" style="fill: #ffffff"/>
   </g>
   <g id="PathCollection_1">
    <defs>
     <path id="m15bf6fcd9f" d="M 0 -3 
L -0.673542 -0.927051 
L -2.85317 -0.927051 
L -1.089814 0.354102 
L -1.763356 2.427051 
L -0 1.145898 
L 1.763356 2.427051 
L 1.089814 0.354102 
L 2.85317 -0.927051 
L 0.673542 -0.927051 
z
" style="stroke: #1f77b4"/>
    </defs>
    <g clip-path="url(#p32ec7e9761)">
     <use xlink:href="#m15bf6fcd9f" x="73.832727" y="294.848766" style="fill: #1f77b4; stroke: #1f77b4"/>
     <use xlink:href="#m15bf6fcd9f" x="138.763636" y="293.684088" style="fill: #1f77b4; stroke: #1f77b4"/>
     <use xlink:href="#m15bf6fcd9f" x="182.050909" y="291.54476" style="fill: #1f77b4; stroke: #1f77b4"/>
     <use xlink:href="#m15bf6fcd9f" x="225.338182" y="288.860662" style="fill: #1f77b4; stroke: #1f77b4"/>
     <use xlink:href="#m15bf6fcd9f" x="290.269091" y="283.468848" style="fill: #1f77b4; stroke: #1f77b4"/>
     <use xlink:href="#m15bf6fcd9f" x="333.556364" y="278.865272" style="fill: #1f77b4; stroke: #1f77b4"/>
     <use xlink:href="#m15bf6fcd9f" x="398.487273" y="269.197307" style="fill: #1f77b4; stroke: #1f77b4"/>
    </g>
   </g>
   <g id="PathCollection_2">
    <defs>
     <path id="m78cb3c2296" d="M 0 1.5 
C 0.397805 1.5 0.77937 1.341951 1.06066 1.06066 
C 1.341951 0.77937 1.5 0.397805 1.5 0 
C 1.5 -0.397805 1.341951 -0.77937 1.06066 -1.06066 
C 0.77937 -1.341951 0.397805 -1.5 0 -1.5 
C -0.397805 -1.5 -0.77937 -1.341951 -1.06066 -1.06066 
C -1.341951 -0.77937 -1.5 -0.397805 -1.5 0 
C -1.5 0.397805 -1.341951 0.77937 -1.06066 1.06066 
C -0.77937 1.341951 -0.397805 1.5 0 1.5 
z
" style="stroke: #1f77b4"/>
    </defs>
    <g clip-path="url(#p32ec7e9761)">
     <use xlink:href="#m78cb3c2296" x="73.832727" y="295.461112" style="fill: #1f77b4; stroke: #1f77b4"/>
     <use xlink:href="#m78cb3c2296" x="138.763636" y="295.052806" style="fill: #1f77b4; stroke: #1f77b4"/>
     <use xlink:href="#m78cb3c2296" x="182.050909" y="294.418006" style="fill: #1f77b4; stroke: #1f77b4"/>
     <use xlink:href="#m78cb3c2296" x="225.338182" y="293.75215" style="fill: #1f77b4; stroke: #1f77b4"/>
     <use xlink:href="#m78cb3c2296" x="290.269091" y="292.473011" style="fill: #1f77b4; stroke: #1f77b4"/>
     <use xlink:href="#m78cb3c2296" x="333.556364" y="291.062944" style="fill: #1f77b4; stroke: #1f77b4"/>
     <use xlink:href="#m78cb3c2296" x="398.487273" y="288.32493" style="fill: #1f77b4; stroke: #1f77b4"/>
    </g>
   </g>
   <g id="PathCollection_3">
    <defs>
     <path id="m27604795c0" d="M 0 -3 
L -0.673542 -0.927051 
L -2.85317 -0.927051 
L -1.089814 0.354102 
L -1.763356 2.427051 
L -0 1.145898 
L 1.763356 2.427051 
L 1.089814 0.354102 
L 2.85317 -0.927051 
L 0.673542 -0.927051 
z
" style="stroke: #2ca02c"/>
    </defs>
    <g clip-path="url(#p32ec7e9761)">
     <use xlink:href="#m27604795c0" x="73.832727" y="294.657035" style="fill: #2ca02c; stroke: #2ca02c"/>
     <use xlink:href="#m27604795c0" x="138.763636" y="292.094709" style="fill: #2ca02c; stroke: #2ca02c"/>
     <use xlink:href="#m27604795c0" x="182.050909" y="289.079281" style="fill: #2ca02c; stroke: #2ca02c"/>
     <use xlink:href="#m27604795c0" x="225.338182" y="284.690996" style="fill: #2ca02c; stroke: #2ca02c"/>
     <use xlink:href="#m27604795c0" x="290.269091" y="274.67713" style="fill: #2ca02c; stroke: #2ca02c"/>
     <use xlink:href="#m27604795c0" x="333.556364" y="265.493588" style="fill: #2ca02c; stroke: #2ca02c"/>
     <use xlink:href="#m27604795c0" x="398.487273" y="246.54071" style="fill: #2ca02c; stroke: #2ca02c"/>
    </g>
   </g>
   <g id="PathCollection_4">
    <defs>
     <path id="m93d70f7719" d="M 0 1.5 
C 0.397805 1.5 0.77937 1.341951 1.06066 1.06066 
C 1.341951 0.77937 1.5 0.397805 1.5 0 
C 1.5 -0.397805 1.341951 -0.77937 1.06066 -1.06066 
C 0.77937 -1.341951 0.397805 -1.5 0 -1.5 
C -0.397805 -1.5 -0.77937 -1.341951 -1.06066 -1.06066 
C -1.341951 -0.77937 -1.5 -0.397805 -1.5 0 
C -1.5 0.397805 -1.341951 0.77937 -1.06066 1.06066 
C -0.77937 1.341951 -0.397805 1.5 0 1.5 
z
" style="stroke: #2ca02c"/>
    </defs>
    <g clip-path="url(#p32ec7e9761)">
     <use xlink:href="#m93d70f7719" x="73.832727" y="295.375161" style="fill: #2ca02c; stroke: #2ca02c"/>
     <use xlink:href="#m93d70f7719" x="138.763636" y="294.726008" style="fill: #2ca02c; stroke: #2ca02c"/>
     <use xlink:href="#m93d70f7719" x="182.050909" y="293.854008" style="fill: #2ca02c; stroke: #2ca02c"/>
     <use xlink:href="#m93d70f7719" x="225.338182" y="292.684457" style="fill: #2ca02c; stroke: #2ca02c"/>
     <use xlink:href="#m93d70f7719" x="290.269091" y="290.026447" style="fill: #2ca02c; stroke: #2ca02c"/>
     <use xlink:href="#m93d70f7719" x="333.556364" y="287.562992" style="fill: #2ca02c; stroke: #2ca02c"/>
     <use xlink:href="#m93d70f7719" x="398.487273" y="282.483603" style="fill: #2ca02c; stroke: #2ca02c"/>
    </g>
   </g>
   <g id="PathCollection_5">
    <defs>
     <path id="mbef11c8774" d="M 0 -3 
L -0.673542 -0.927051 
L -2.85317 -0.927051 
L -1.089814 0.354102 
L -1.763356 2.427051 
L -0 1.145898 
L 1.763356 2.427051 
L 1.089814 0.354102 
L 2.85317 -0.927051 
L 0.673542 -0.927051 
z
" style="stroke: #ff7f0e"/>
    </defs>
    <g clip-path="url(#p32ec7e9761)">
     <use xlink:href="#mbef11c8774" x="73.832727" y="294.040937" style="fill: #ff7f0e; stroke: #ff7f0e"/>
     <use xlink:href="#mbef11c8774" x="138.763636" y="289.369607" style="fill: #ff7f0e; stroke: #ff7f0e"/>
     <use xlink:href="#mbef11c8774" x="182.050909" y="283.422126" style="fill: #ff7f0e; stroke: #ff7f0e"/>
     <use xlink:href="#mbef11c8774" x="225.338182" y="274.543951" style="fill: #ff7f0e; stroke: #ff7f0e"/>
     <use xlink:href="#mbef11c8774" x="290.269091" y="254.472304" style="fill: #ff7f0e; stroke: #ff7f0e"/>
     <use xlink:href="#mbef11c8774" x="333.556364" y="235.824917" style="fill: #ff7f0e; stroke: #ff7f0e"/>
     <use xlink:href="#mbef11c8774" x="398.487273" y="198.41359" style="fill: #ff7f0e; stroke: #ff7f0e"/>
    </g>
   </g>
   <g id="PathCollection_6">
    <defs>
     <path id="m681bfb8700" d="M 0 1.5 
C 0.397805 1.5 0.77937 1.341951 1.06066 1.06066 
C 1.341951 0.77937 1.5 0.397805 1.5 0 
C 1.5 -0.397805 1.341951 -0.77937 1.06066 -1.06066 
C 0.77937 -1.341951 0.397805 -1.5 0 -1.5 
C -0.397805 -1.5 -0.77937 -1.341951 -1.06066 -1.06066 
C -1.341951 -0.77937 -1.5 -0.397805 -1.5 0 
C -1.5 0.397805 -1.341951 0.77937 -1.06066 1.06066 
C -0.77937 1.341951 -0.397805 1.5 0 1.5 
z
" style="stroke: #ff7f0e"/>
    </defs>
    <g clip-path="url(#p32ec7e9761)">
     <use xlink:href="#m681bfb8700" x="73.832727" y="295.234167" style="fill: #ff7f0e; stroke: #ff7f0e"/>
     <use xlink:href="#m681bfb8700" x="138.763636" y="293.983151" style="fill: #ff7f0e; stroke: #ff7f0e"/>
     <use xlink:href="#m681bfb8700" x="182.050909" y="292.396814" style="fill: #ff7f0e; stroke: #ff7f0e"/>
     <use xlink:href="#m681bfb8700" x="225.338182" y="290.127659" style="fill: #ff7f0e; stroke: #ff7f0e"/>
     <use xlink:href="#m681bfb8700" x="290.269091" y="284.810433" style="fill: #ff7f0e; stroke: #ff7f0e"/>
     <use xlink:href="#m681bfb8700" x="333.556364" y="280.020557" style="fill: #ff7f0e; stroke: #ff7f0e"/>
     <use xlink:href="#m681bfb8700" x="398.487273" y="270.166177" style="fill: #ff7f0e; stroke: #ff7f0e"/>
    </g>
   </g>
   <g id="PathCollection_7">
    <defs>
     <path id="mc3a1d25b81" d="M 0 -3 
L -0.673542 -0.927051 
L -2.85317 -0.927051 
L -1.089814 0.354102 
L -1.763356 2.427051 
L -0 1.145898 
L 1.763356 2.427051 
L 1.089814 0.354102 
L 2.85317 -0.927051 
L 0.673542 -0.927051 
z
" style="stroke: #d62728"/>
    </defs>
    <g clip-path="url(#p32ec7e9761)">
     <use xlink:href="#mc3a1d25b81" x="73.832727" y="291.862422" style="fill: #d62728; stroke: #d62728"/>
     <use xlink:href="#mc3a1d25b81" x="138.763636" y="280.150261" style="fill: #d62728; stroke: #d62728"/>
     <use xlink:href="#mc3a1d25b81" x="182.050909" y="265.369998" style="fill: #d62728; stroke: #d62728"/>
     <use xlink:href="#mc3a1d25b81" x="225.338182" y="243.373626" style="fill: #d62728; stroke: #d62728"/>
     <use xlink:href="#mc3a1d25b81" x="290.269091" y="193.517241" style="fill: #d62728; stroke: #d62728"/>
     <use xlink:href="#mc3a1d25b81" x="333.556364" y="146.95351" style="fill: #d62728; stroke: #d62728"/>
     <use xlink:href="#mc3a1d25b81" x="398.487273" y="53.57322" style="fill: #d62728; stroke: #d62728"/>
    </g>
   </g>
   <g id="PathCollection_8">
    <defs>
     <path id="mda829f9392" d="M 0 1.5 
C 0.397805 1.5 0.77937 1.341951 1.06066 1.06066 
C 1.341951 0.77937 1.5 0.397805 1.5 0 
C 1.5 -0.397805 1.341951 -0.77937 1.06066 -1.06066 
C 0.77937 -1.341951 0.397805 -1.5 0 -1.5 
C -0.397805 -1.5 -0.77937 -1.341951 -1.06066 -1.06066 
C -1.341951 -0.77937 -1.5 -0.397805 -1.5 0 
C -1.5 0.397805 -1.341951 0.77937 -1.06066 1.06066 
C -0.77937 1.341951 -0.397805 1.5 0 1.5 
z
" style="stroke: #d62728"/>
    </defs>
    <g clip-path="url(#p32ec7e9761)">
     <use xlink:href="#mda829f9392" x="73.832727" y="294.694906" style="fill: #d62728; stroke: #d62728"/>
     <use xlink:href="#mda829f9392" x="138.763636" y="291.617035" style="fill: #d62728; stroke: #d62728"/>
     <use xlink:href="#mda829f9392" x="182.050909" y="287.769949" style="fill: #d62728; stroke: #d62728"/>
     <use xlink:href="#mda829f9392" x="225.338182" y="282.004699" style="fill: #d62728; stroke: #d62728"/>
     <use xlink:href="#mda829f9392" x="290.269091" y="268.963758" style="fill: #d62728; stroke: #d62728"/>
     <use xlink:href="#mda829f9392" x="333.556364" y="256.788155" style="fill: #d62728; stroke: #d62728"/>
     <use xlink:href="#mda829f9392" x="398.487273" y="232.310159" style="fill: #d62728; stroke: #d62728"/>
    </g>
   </g>
   <g id="matplotlib.axis_1">
    <g id="xtick_1">
     <g id="line2d_1">
      <defs>
       <path id="m6e816fe444" d="M 0 0 
L 0 3.5 
" style="stroke: #000000; stroke-width: 0.8"/>
      </defs>
      <g>
       <use xlink:href="#m6e816fe444" x="95.476364" y="307.584" style="stroke: #000000; stroke-width: 0.8"/>
      </g>
     </g>
     <g id="text_1">
      <!-- $\mathdefault{0.006}$ -->
      <g transform="translate(84.129989 321.502498) scale(0.1 -0.1)">
       <defs>
        <path id="CMR17-30" d="M 2688 2038 
C 2688 2430 2682 3099 2413 3613 
C 2176 4063 1798 4224 1466 4224 
C 1158 4224 768 4082 525 3620 
C 269 3137 243 2539 243 2038 
C 243 1671 250 1112 448 623 
C 723 -39 1216 -128 1466 -128 
C 1760 -128 2208 -7 2470 604 
C 2662 1048 2688 1568 2688 2038 
z
M 1466 -26 
C 1056 -26 813 328 723 816 
C 653 1196 653 1749 653 2109 
C 653 2604 653 3015 736 3407 
C 858 3954 1216 4121 1466 4121 
C 1728 4121 2067 3947 2189 3420 
C 2272 3054 2278 2623 2278 2109 
C 2278 1691 2278 1176 2202 797 
C 2067 96 1690 -26 1466 -26 
z
" transform="scale(0.015625)"/>
        <path id="CMMI12-3a" d="M 1178 307 
C 1178 492 1024 620 870 620 
C 685 620 557 467 557 313 
C 557 128 710 0 864 0 
C 1050 0 1178 153 1178 307 
z
" transform="scale(0.015625)"/>
        <path id="CMR17-36" d="M 678 2198 
C 678 3712 1395 4076 1811 4076 
C 1946 4076 2272 4049 2400 3782 
C 2298 3782 2106 3782 2106 3558 
C 2106 3385 2246 3328 2336 3328 
C 2394 3328 2566 3353 2566 3571 
C 2566 3987 2246 4224 1805 4224 
C 1043 4224 243 3411 243 2011 
C 243 257 966 -128 1478 -128 
C 2099 -128 2688 431 2688 1295 
C 2688 2101 2170 2688 1517 2688 
C 1126 2688 838 2430 678 1979 
L 678 2198 
z
M 1478 25 
C 691 25 691 1212 691 1450 
C 691 1914 909 2585 1504 2585 
C 1613 2585 1926 2585 2138 2140 
C 2253 1889 2253 1624 2253 1302 
C 2253 954 2253 696 2118 438 
C 1978 173 1773 25 1478 25 
z
" transform="scale(0.015625)"/>
       </defs>
       <use xlink:href="#CMR17-30" transform="scale(0.996264)"/>
       <use xlink:href="#CMMI12-3a" transform="translate(45.690477 0) scale(0.996264)"/>
       <use xlink:href="#CMR17-30" transform="translate(72.787654 0) scale(0.996264)"/>
       <use xlink:href="#CMR17-30" transform="translate(118.478131 0) scale(0.996264)"/>
       <use xlink:href="#CMR17-36" transform="translate(164.168608 0) scale(0.996264)"/>
      </g>
     </g>
    </g>
    <g id="xtick_2">
     <g id="line2d_2">
      <g>
       <use xlink:href="#m6e816fe444" x="138.763636" y="307.584" style="stroke: #000000; stroke-width: 0.8"/>
      </g>
     </g>
     <g id="text_2">
      <!-- $\mathdefault{0.008}$ -->
      <g transform="translate(127.417262 321.502498) scale(0.1 -0.1)">
       <defs>
        <path id="CMR17-38" d="M 1741 2289 
C 2144 2494 2554 2803 2554 3298 
C 2554 3884 1990 4224 1472 4224 
C 890 4224 378 3800 378 3215 
C 378 3054 416 2777 666 2533 
C 730 2469 998 2276 1171 2154 
C 883 2006 211 1652 211 945 
C 211 282 838 -128 1459 -128 
C 2144 -128 2720 366 2720 1022 
C 2720 1607 2330 1877 2074 2051 
L 1741 2289 
z
M 902 2855 
C 851 2887 595 3086 595 3388 
C 595 3781 998 4076 1459 4076 
C 1965 4076 2336 3716 2336 3298 
C 2336 2700 1670 2359 1638 2359 
C 1632 2359 1626 2359 1574 2398 
L 902 2855 
z
M 2080 1536 
C 2176 1466 2483 1253 2483 861 
C 2483 385 2010 25 1472 25 
C 890 25 448 443 448 951 
C 448 1459 838 1884 1280 2083 
L 2080 1536 
z
" transform="scale(0.015625)"/>
       </defs>
       <use xlink:href="#CMR17-30" transform="scale(0.996264)"/>
       <use xlink:href="#CMMI12-3a" transform="translate(45.690477 0) scale(0.996264)"/>
       <use xlink:href="#CMR17-30" transform="translate(72.787654 0) scale(0.996264)"/>
       <use xlink:href="#CMR17-30" transform="translate(118.478131 0) scale(0.996264)"/>
       <use xlink:href="#CMR17-38" transform="translate(164.168608 0) scale(0.996264)"/>
      </g>
     </g>
    </g>
    <g id="xtick_3">
     <g id="line2d_3">
      <g>
       <use xlink:href="#m6e816fe444" x="182.050909" y="307.584" style="stroke: #000000; stroke-width: 0.8"/>
      </g>
     </g>
     <g id="text_3">
      <!-- $\mathdefault{0.010}$ -->
      <g transform="translate(170.704534 321.502498) scale(0.1 -0.1)">
       <defs>
        <path id="CMR17-31" d="M 1702 4083 
C 1702 4217 1696 4224 1606 4224 
C 1357 3927 979 3833 621 3820 
C 602 3820 570 3820 563 3808 
C 557 3795 557 3782 557 3648 
C 755 3648 1088 3686 1344 3839 
L 1344 467 
C 1344 243 1331 166 781 166 
L 589 166 
L 589 0 
C 896 6 1216 12 1523 12 
C 1830 12 2150 6 2458 0 
L 2458 166 
L 2266 166 
C 1715 166 1702 236 1702 467 
L 1702 4083 
z
" transform="scale(0.015625)"/>
       </defs>
       <use xlink:href="#CMR17-30" transform="scale(0.996264)"/>
       <use xlink:href="#CMMI12-3a" transform="translate(45.690477 0) scale(0.996264)"/>
       <use xlink:href="#CMR17-30" transform="translate(72.787654 0) scale(0.996264)"/>
       <use xlink:href="#CMR17-31" transform="translate(118.478131 0) scale(0.996264)"/>
       <use xlink:href="#CMR17-30" transform="translate(164.168608 0) scale(0.996264)"/>
      </g>
     </g>
    </g>
    <g id="xtick_4">
     <g id="line2d_4">
      <g>
       <use xlink:href="#m6e816fe444" x="225.338182" y="307.584" style="stroke: #000000; stroke-width: 0.8"/>
      </g>
     </g>
     <g id="text_4">
      <!-- $\mathdefault{0.012}$ -->
      <g transform="translate(213.991807 321.502498) scale(0.1 -0.1)">
       <defs>
        <path id="CMR17-32" d="M 2669 990 
L 2554 990 
C 2490 537 2438 460 2413 422 
C 2381 371 1920 371 1830 371 
L 602 371 
C 832 620 1280 1073 1824 1596 
C 2214 1966 2669 2400 2669 3033 
C 2669 3788 2067 4224 1395 4224 
C 691 4224 262 3603 262 3027 
C 262 2777 448 2745 525 2745 
C 589 2745 781 2783 781 3007 
C 781 3206 614 3264 525 3264 
C 486 3264 448 3257 422 3244 
C 544 3788 915 4057 1306 4057 
C 1862 4057 2227 3616 2227 3033 
C 2227 2477 1901 1998 1536 1583 
L 262 147 
L 262 0 
L 2515 0 
L 2669 990 
z
" transform="scale(0.015625)"/>
       </defs>
       <use xlink:href="#CMR17-30" transform="scale(0.996264)"/>
       <use xlink:href="#CMMI12-3a" transform="translate(45.690477 0) scale(0.996264)"/>
       <use xlink:href="#CMR17-30" transform="translate(72.787654 0) scale(0.996264)"/>
       <use xlink:href="#CMR17-31" transform="translate(118.478131 0) scale(0.996264)"/>
       <use xlink:href="#CMR17-32" transform="translate(164.168608 0) scale(0.996264)"/>
      </g>
     </g>
    </g>
    <g id="xtick_5">
     <g id="line2d_5">
      <g>
       <use xlink:href="#m6e816fe444" x="268.625455" y="307.584" style="stroke: #000000; stroke-width: 0.8"/>
      </g>
     </g>
     <g id="text_5">
      <!-- $\mathdefault{0.014}$ -->
      <g transform="translate(257.27908 321.502498) scale(0.1 -0.1)">
       <defs>
        <path id="CMR17-34" d="M 2150 4147 
C 2150 4281 2144 4288 2029 4288 
L 128 1254 
L 128 1088 
L 1779 1088 
L 1779 460 
C 1779 230 1766 166 1318 166 
L 1197 166 
L 1197 0 
C 1402 12 1747 12 1965 12 
C 2182 12 2528 12 2733 0 
L 2733 166 
L 2611 166 
C 2163 166 2150 230 2150 460 
L 2150 1088 
L 2803 1088 
L 2803 1254 
L 2150 1254 
L 2150 4147 
z
M 1798 3723 
L 1798 1254 
L 256 1254 
L 1798 3723 
z
" transform="scale(0.015625)"/>
       </defs>
       <use xlink:href="#CMR17-30" transform="scale(0.996264)"/>
       <use xlink:href="#CMMI12-3a" transform="translate(45.690477 0) scale(0.996264)"/>
       <use xlink:href="#CMR17-30" transform="translate(72.787654 0) scale(0.996264)"/>
       <use xlink:href="#CMR17-31" transform="translate(118.478131 0) scale(0.996264)"/>
       <use xlink:href="#CMR17-34" transform="translate(164.168608 0) scale(0.996264)"/>
      </g>
     </g>
    </g>
    <g id="xtick_6">
     <g id="line2d_6">
      <g>
       <use xlink:href="#m6e816fe444" x="311.912727" y="307.584" style="stroke: #000000; stroke-width: 0.8"/>
      </g>
     </g>
     <g id="text_6">
      <!-- $\mathdefault{0.016}$ -->
      <g transform="translate(300.566353 321.502498) scale(0.1 -0.1)">
       <use xlink:href="#CMR17-30" transform="scale(0.996264)"/>
       <use xlink:href="#CMMI12-3a" transform="translate(45.690477 0) scale(0.996264)"/>
       <use xlink:href="#CMR17-30" transform="translate(72.787654 0) scale(0.996264)"/>
       <use xlink:href="#CMR17-31" transform="translate(118.478131 0) scale(0.996264)"/>
       <use xlink:href="#CMR17-36" transform="translate(164.168608 0) scale(0.996264)"/>
      </g>
     </g>
    </g>
    <g id="xtick_7">
     <g id="line2d_7">
      <g>
       <use xlink:href="#m6e816fe444" x="355.2" y="307.584" style="stroke: #000000; stroke-width: 0.8"/>
      </g>
     </g>
     <g id="text_7">
      <!-- $\mathdefault{0.018}$ -->
      <g transform="translate(343.853625 321.502498) scale(0.1 -0.1)">
       <use xlink:href="#CMR17-30" transform="scale(0.996264)"/>
       <use xlink:href="#CMMI12-3a" transform="translate(45.690477 0) scale(0.996264)"/>
       <use xlink:href="#CMR17-30" transform="translate(72.787654 0) scale(0.996264)"/>
       <use xlink:href="#CMR17-31" transform="translate(118.478131 0) scale(0.996264)"/>
       <use xlink:href="#CMR17-38" transform="translate(164.168608 0) scale(0.996264)"/>
      </g>
     </g>
    </g>
    <g id="xtick_8">
     <g id="line2d_8">
      <g>
       <use xlink:href="#m6e816fe444" x="398.487273" y="307.584" style="stroke: #000000; stroke-width: 0.8"/>
      </g>
     </g>
     <g id="text_8">
      <!-- $\mathdefault{0.020}$ -->
      <g transform="translate(387.140898 321.502498) scale(0.1 -0.1)">
       <use xlink:href="#CMR17-30" transform="scale(0.996264)"/>
       <use xlink:href="#CMMI12-3a" transform="translate(45.690477 0) scale(0.996264)"/>
       <use xlink:href="#CMR17-30" transform="translate(72.787654 0) scale(0.996264)"/>
       <use xlink:href="#CMR17-32" transform="translate(118.478131 0) scale(0.996264)"/>
       <use xlink:href="#CMR17-30" transform="translate(164.168608 0) scale(0.996264)"/>
      </g>
     </g>
    </g>
    <g id="text_9">
     <!-- Step size ($\delta$) -->
     <g transform="translate(209.099991 334.911657) scale(0.1 -0.1)">
      <defs>
       <path id="CMR17-53" d="M 2803 4351 
C 2803 4467 2797 4473 2758 4473 
C 2720 4473 2707 4447 2682 4390 
L 2490 3965 
C 2246 4320 1875 4480 1472 4480 
C 819 4480 294 3958 294 3301 
C 294 3101 339 2817 557 2546 
C 794 2250 1018 2198 1530 2063 
C 1722 2011 2042 1927 2106 1901 
C 2470 1747 2662 1360 2662 999 
C 2662 534 2336 38 1779 38 
C 1094 38 454 425 410 1328 
C 403 1431 397 1437 352 1437 
C 301 1437 294 1431 294 1302 
L 294 0 
C 294 -116 301 -122 339 -122 
C 384 -122 397 -90 486 109 
C 493 128 493 141 614 386 
C 934 -39 1472 -128 1779 -128 
C 2477 -128 2970 457 2970 1141 
C 2970 1476 2848 1734 2778 1850 
C 2509 2263 2221 2340 1914 2417 
C 1869 2437 1856 2437 1498 2527 
C 1152 2617 1005 2662 845 2836 
C 666 3036 602 3243 602 3449 
C 602 3868 934 4326 1478 4326 
C 2157 4326 2579 3842 2675 3036 
C 2694 2920 2701 2914 2746 2914 
C 2803 2914 2803 2933 2803 3043 
L 2803 4351 
z
" transform="scale(0.015625)"/>
       <path id="CMR17-74" d="M 966 2585 
L 1862 2585 
L 1862 2752 
L 966 2752 
L 966 3968 
L 851 3968 
C 838 3292 614 2700 70 2687 
L 70 2585 
L 627 2585 
L 627 778 
C 627 655 627 -64 1370 -64 
C 1747 -64 1965 308 1965 784 
L 1965 1151 
L 1850 1151 
L 1850 790 
C 1850 347 1677 51 1408 51 
C 1222 51 966 179 966 765 
L 966 2585 
z
" transform="scale(0.015625)"/>
       <path id="CMR17-65" d="M 2438 1503 
C 2464 1529 2464 1542 2464 1606 
C 2464 2251 2118 2816 1389 2816 
C 710 2816 173 2175 173 1394 
C 173 554 781 -64 1459 -64 
C 2176 -64 2458 619 2458 755 
C 2458 800 2419 800 2406 800 
C 2362 800 2355 787 2330 709 
C 2189 270 1837 51 1504 51 
C 1229 51 954 206 781 490 
C 582 819 582 1200 582 1503 
L 2438 1503 
z
M 589 1600 
C 634 2511 1126 2713 1382 2713 
C 1818 2713 2112 2308 2118 1600 
L 589 1600 
z
" transform="scale(0.015625)"/>
       <path id="CMR17-70" d="M 1408 -1114 
C 998 -1114 973 -1088 973 -834 
L 973 380 
C 1158 109 1427 -64 1766 -64 
C 2406 -64 3053 503 3053 1382 
C 3053 2196 2496 2816 1837 2816 
C 1453 2816 1139 2603 960 2345 
L 960 2816 
L 198 2745 
L 198 2577 
C 576 2577 634 2539 634 2228 
L 634 -834 
C 634 -1081 608 -1114 198 -1114 
L 198 -1280 
C 352 -1268 634 -1268 800 -1268 
C 966 -1268 1254 -1268 1408 -1280 
L 1408 -1114 
z
M 973 2015 
C 973 2106 973 2241 1222 2481 
C 1254 2506 1472 2700 1792 2700 
C 2259 2700 2643 2112 2643 1376 
C 2643 639 2234 38 1728 38 
C 1498 38 1248 148 1056 451 
C 973 594 973 632 973 736 
L 973 2015 
z
" transform="scale(0.015625)"/>
       <path id="CMR17-73" d="M 1978 2688 
C 1978 2803 1971 2809 1933 2809 
C 1907 2809 1901 2803 1824 2707 
C 1805 2681 1747 2617 1728 2592 
C 1523 2809 1235 2816 1126 2816 
C 416 2816 160 2444 160 2073 
C 160 1497 813 1363 998 1324 
C 1402 1241 1542 1216 1677 1100 
C 1760 1024 1901 883 1901 652 
C 1901 384 1747 38 1158 38 
C 602 38 403 460 288 1024 
C 269 1113 269 1120 218 1120 
C 166 1120 160 1113 160 985 
L 160 64 
C 160 -52 166 -58 205 -58 
C 237 -58 243 -52 275 0 
C 314 57 410 211 448 275 
C 576 102 800 -64 1158 -64 
C 1792 -64 2131 281 2131 780 
C 2131 1107 1958 1280 1875 1356 
C 1683 1555 1459 1600 1190 1651 
C 838 1728 390 1817 390 2208 
C 390 2374 480 2726 1126 2726 
C 1811 2726 1850 2086 1862 1881 
C 1869 1849 1901 1843 1920 1843 
C 1978 1843 1978 1862 1978 1971 
L 1978 2688 
z
" transform="scale(0.015625)"/>
       <path id="CMR17-69" d="M 992 3961 
C 992 4102 877 4224 730 4224 
C 589 4224 467 4108 467 3961 
C 467 3820 582 3699 730 3699 
C 870 3699 992 3814 992 3961 
z
M 243 2745 
L 243 2579 
C 602 2579 653 2540 653 2231 
L 653 443 
C 653 198 627 166 218 166 
L 218 0 
C 371 12 646 12 806 12 
C 960 12 1222 12 1370 0 
L 1370 166 
C 992 166 979 205 979 436 
L 979 2816 
L 243 2745 
z
" transform="scale(0.015625)"/>
       <path id="CMR17-7a" d="M 2310 2604 
C 2362 2668 2362 2681 2362 2694 
C 2362 2752 2336 2752 2221 2752 
L 275 2752 
L 211 1760 
L 326 1760 
C 371 2380 442 2649 1178 2649 
L 1958 2649 
L 128 96 
C 128 6 134 0 269 0 
L 2291 0 
L 2381 1152 
L 2266 1152 
C 2214 441 2131 115 1350 115 
L 531 115 
L 2310 2604 
z
" transform="scale(0.015625)"/>
       <path id="CMR17-28" d="M 1958 -1562 
C 1958 -1556 1958 -1543 1939 -1524 
C 1645 -1223 858 -403 858 1596 
C 858 3595 1632 4408 1946 4729 
C 1946 4735 1958 4748 1958 4767 
C 1958 4787 1939 4800 1914 4800 
C 1843 4800 1299 4325 986 3620 
C 666 2909 576 2218 576 1603 
C 576 1141 621 360 1005 -467 
C 1312 -1133 1837 -1600 1914 -1600 
C 1946 -1600 1958 -1588 1958 -1562 
z
" transform="scale(0.015625)"/>
       <path id="CMMI12-e" d="M 1664 2795 
C 845 2597 256 1748 256 1001 
C 256 319 717 -64 1229 -64 
C 1984 -64 2496 970 2496 1818 
C 2496 2393 2227 2743 2067 2954 
C 1830 3254 1446 3745 1446 4052 
C 1446 4160 1530 4352 1811 4352 
C 2010 4352 2131 4281 2323 4173 
C 2381 4134 2528 4052 2611 4052 
C 2746 4052 2842 4186 2842 4288 
C 2842 4409 2746 4428 2522 4480 
C 2221 4544 2131 4544 2022 4544 
C 1914 4544 1286 4544 1286 3892 
C 1286 3579 1446 3216 1664 2795 
z
M 1734 2673 
C 1978 2169 2074 1978 2074 1563 
C 2074 1065 1805 64 1235 64 
C 986 64 627 229 627 823 
C 627 1238 864 2444 1734 2673 
z
" transform="scale(0.015625)"/>
       <path id="CMR17-29" d="M 1683 1596 
C 1683 2057 1638 2839 1254 3665 
C 947 4332 422 4800 346 4800 
C 326 4800 301 4793 301 4761 
C 301 4748 307 4742 314 4729 
C 621 4408 1402 3595 1402 1603 
C 1402 -396 627 -1210 314 -1530 
C 307 -1543 301 -1549 301 -1562 
C 301 -1594 326 -1600 346 -1600 
C 416 -1600 960 -1127 1274 -422 
C 1594 289 1683 981 1683 1596 
z
" transform="scale(0.015625)"/>
      </defs>
      <use xlink:href="#CMR17-53" transform="scale(0.996264)"/>
      <use xlink:href="#CMR17-74" transform="translate(50.89537 0) scale(0.996264)"/>
      <use xlink:href="#CMR17-65" transform="translate(86.176138 0) scale(0.996264)"/>
      <use xlink:href="#CMR17-70" transform="translate(126.661798 0) scale(0.996264)"/>
      <use xlink:href="#CMR17-73" transform="translate(207.633134 0) scale(0.996264)"/>
      <use xlink:href="#CMR17-69" transform="translate(243.434472 0) scale(0.996264)"/>
      <use xlink:href="#CMR17-7a" transform="translate(268.30553 0) scale(0.996264)"/>
      <use xlink:href="#CMR17-65" transform="translate(308.791191 0) scale(0.996264)"/>
      <use xlink:href="#CMR17-28" transform="translate(379.352818 0) scale(0.996264)"/>
      <use xlink:href="#CMMI12-e" transform="translate(414.633585 0) scale(0.996264)"/>
      <use xlink:href="#CMR17-29" transform="translate(461.574972 0) scale(0.996264)"/>
     </g>
    </g>
   </g>
   <g id="matplotlib.axis_2">
    <g id="ytick_1">
     <g id="line2d_9">
      <defs>
       <path id="m3d67928f82" d="M 0 0 
L -3.5 0 
" style="stroke: #000000; stroke-width: 0.8"/>
      </defs>
      <g>
       <use xlink:href="#m3d67928f82" x="57.6" y="295.694033" style="stroke: #000000; stroke-width: 0.8"/>
      </g>
     </g>
     <g id="text_10">
      <!-- $\mathdefault{0.000}$ -->
      <g transform="translate(27.907251 299.153282) scale(0.1 -0.1)">
       <use xlink:href="#CMR17-30" transform="scale(0.996264)"/>
       <use xlink:href="#CMMI12-3a" transform="translate(45.690477 0) scale(0.996264)"/>
       <use xlink:href="#CMR17-30" transform="translate(72.787654 0) scale(0.996264)"/>
       <use xlink:href="#CMR17-30" transform="translate(118.478131 0) scale(0.996264)"/>
       <use xlink:href="#CMR17-30" transform="translate(164.168608 0) scale(0.996264)"/>
      </g>
     </g>
    </g>
    <g id="ytick_2">
     <g id="line2d_10">
      <g>
       <use xlink:href="#m3d67928f82" x="57.6" y="259.355037" style="stroke: #000000; stroke-width: 0.8"/>
      </g>
     </g>
     <g id="text_11">
      <!-- $\mathdefault{0.025}$ -->
      <g transform="translate(27.907251 262.814286) scale(0.1 -0.1)">
       <defs>
        <path id="CMR17-35" d="M 730 3750 
C 794 3724 1056 3641 1325 3641 
C 1920 3641 2246 3961 2432 4140 
C 2432 4191 2432 4224 2394 4224 
C 2387 4224 2374 4224 2323 4198 
C 2099 4102 1837 4032 1517 4032 
C 1325 4032 1037 4055 723 4191 
C 653 4224 640 4224 634 4224 
C 602 4224 595 4217 595 4090 
L 595 2231 
C 595 2113 595 2080 659 2080 
C 691 2080 704 2093 736 2139 
C 941 2435 1222 2560 1542 2560 
C 1766 2560 2246 2415 2246 1293 
C 2246 1087 2246 716 2054 422 
C 1894 159 1645 25 1370 25 
C 947 25 518 319 403 812 
C 429 806 480 793 506 793 
C 589 793 749 838 749 1036 
C 749 1209 627 1280 506 1280 
C 358 1280 262 1190 262 1011 
C 262 454 704 -128 1382 -128 
C 2042 -128 2669 441 2669 1267 
C 2669 2054 2170 2662 1549 2662 
C 1222 2662 947 2540 730 2304 
L 730 3750 
z
" transform="scale(0.015625)"/>
       </defs>
       <use xlink:href="#CMR17-30" transform="scale(0.996264)"/>
       <use xlink:href="#CMMI12-3a" transform="translate(45.690477 0) scale(0.996264)"/>
       <use xlink:href="#CMR17-30" transform="translate(72.787654 0) scale(0.996264)"/>
       <use xlink:href="#CMR17-32" transform="translate(118.478131 0) scale(0.996264)"/>
       <use xlink:href="#CMR17-35" transform="translate(164.168608 0) scale(0.996264)"/>
      </g>
     </g>
    </g>
    <g id="ytick_3">
     <g id="line2d_11">
      <g>
       <use xlink:href="#m3d67928f82" x="57.6" y="223.016042" style="stroke: #000000; stroke-width: 0.8"/>
      </g>
     </g>
     <g id="text_12">
      <!-- $\mathdefault{0.050}$ -->
      <g transform="translate(27.907251 226.475291) scale(0.1 -0.1)">
       <use xlink:href="#CMR17-30" transform="scale(0.996264)"/>
       <use xlink:href="#CMMI12-3a" transform="translate(45.690477 0) scale(0.996264)"/>
       <use xlink:href="#CMR17-30" transform="translate(72.787654 0) scale(0.996264)"/>
       <use xlink:href="#CMR17-35" transform="translate(118.478131 0) scale(0.996264)"/>
       <use xlink:href="#CMR17-30" transform="translate(164.168608 0) scale(0.996264)"/>
      </g>
     </g>
    </g>
    <g id="ytick_4">
     <g id="line2d_12">
      <g>
       <use xlink:href="#m3d67928f82" x="57.6" y="186.677046" style="stroke: #000000; stroke-width: 0.8"/>
      </g>
     </g>
     <g id="text_13">
      <!-- $\mathdefault{0.075}$ -->
      <g transform="translate(27.907251 190.136295) scale(0.1 -0.1)">
       <defs>
        <path id="CMR17-37" d="M 2886 3955 
L 2886 4096 
L 1382 4096 
C 634 4096 621 4166 595 4288 
L 480 4288 
L 294 3104 
L 410 3104 
C 429 3226 474 3552 550 3673 
C 589 3724 1062 3724 1171 3724 
L 2579 3724 
L 1869 2670 
C 1395 1961 1069 1003 1069 166 
C 1069 89 1069 -128 1299 -128 
C 1530 -128 1530 89 1530 172 
L 1530 466 
C 1530 1514 1709 2204 2003 2644 
L 2886 3955 
z
" transform="scale(0.015625)"/>
       </defs>
       <use xlink:href="#CMR17-30" transform="scale(0.996264)"/>
       <use xlink:href="#CMMI12-3a" transform="translate(45.690477 0) scale(0.996264)"/>
       <use xlink:href="#CMR17-30" transform="translate(72.787654 0) scale(0.996264)"/>
       <use xlink:href="#CMR17-37" transform="translate(118.478131 0) scale(0.996264)"/>
       <use xlink:href="#CMR17-35" transform="translate(164.168608 0) scale(0.996264)"/>
      </g>
     </g>
    </g>
    <g id="ytick_5">
     <g id="line2d_13">
      <g>
       <use xlink:href="#m3d67928f82" x="57.6" y="150.338051" style="stroke: #000000; stroke-width: 0.8"/>
      </g>
     </g>
     <g id="text_14">
      <!-- $\mathdefault{0.100}$ -->
      <g transform="translate(27.907251 153.7973) scale(0.1 -0.1)">
       <use xlink:href="#CMR17-30" transform="scale(0.996264)"/>
       <use xlink:href="#CMMI12-3a" transform="translate(45.690477 0) scale(0.996264)"/>
       <use xlink:href="#CMR17-31" transform="translate(72.787654 0) scale(0.996264)"/>
       <use xlink:href="#CMR17-30" transform="translate(118.478131 0) scale(0.996264)"/>
       <use xlink:href="#CMR17-30" transform="translate(164.168608 0) scale(0.996264)"/>
      </g>
     </g>
    </g>
    <g id="ytick_6">
     <g id="line2d_14">
      <g>
       <use xlink:href="#m3d67928f82" x="57.6" y="113.999055" style="stroke: #000000; stroke-width: 0.8"/>
      </g>
     </g>
     <g id="text_15">
      <!-- $\mathdefault{0.125}$ -->
      <g transform="translate(27.907251 117.458304) scale(0.1 -0.1)">
       <use xlink:href="#CMR17-30" transform="scale(0.996264)"/>
       <use xlink:href="#CMMI12-3a" transform="translate(45.690477 0) scale(0.996264)"/>
       <use xlink:href="#CMR17-31" transform="translate(72.787654 0) scale(0.996264)"/>
       <use xlink:href="#CMR17-32" transform="translate(118.478131 0) scale(0.996264)"/>
       <use xlink:href="#CMR17-35" transform="translate(164.168608 0) scale(0.996264)"/>
      </g>
     </g>
    </g>
    <g id="ytick_7">
     <g id="line2d_15">
      <g>
       <use xlink:href="#m3d67928f82" x="57.6" y="77.66006" style="stroke: #000000; stroke-width: 0.8"/>
      </g>
     </g>
     <g id="text_16">
      <!-- $\mathdefault{0.150}$ -->
      <g transform="translate(27.907251 81.119309) scale(0.1 -0.1)">
       <use xlink:href="#CMR17-30" transform="scale(0.996264)"/>
       <use xlink:href="#CMMI12-3a" transform="translate(45.690477 0) scale(0.996264)"/>
       <use xlink:href="#CMR17-31" transform="translate(72.787654 0) scale(0.996264)"/>
       <use xlink:href="#CMR17-35" transform="translate(118.478131 0) scale(0.996264)"/>
       <use xlink:href="#CMR17-30" transform="translate(164.168608 0) scale(0.996264)"/>
      </g>
     </g>
    </g>
    <g id="text_17">
     <!-- Error ($\epsilon$) -->
     <g transform="translate(21.41659 193.818545) rotate(-90) scale(0.1 -0.1)">
      <defs>
       <path id="CMR17-45" d="M 3885 1614 
L 3770 1614 
C 3629 676 3546 166 2419 166 
L 1530 166 
C 1274 166 1261 198 1261 415 
L 1261 2176 
L 1862 2176 
C 2464 2176 2522 1959 2522 1429 
L 2637 1429 
L 2637 3086 
L 2522 3086 
C 2522 2558 2464 2342 1862 2342 
L 1261 2342 
L 1261 3924 
C 1261 4141 1274 4172 1530 4172 
L 2406 4172 
C 3398 4172 3514 3778 3603 2933 
L 3718 2933 
L 3565 4339 
L 326 4339 
L 326 4172 
C 768 4172 838 4172 838 3886 
L 838 453 
C 838 166 768 166 326 166 
L 326 0 
L 3654 0 
L 3885 1614 
z
" transform="scale(0.015625)"/>
       <path id="CMR17-72" d="M 960 1517 
C 960 2134 1222 2713 1702 2713 
C 1747 2713 1792 2707 1837 2687 
C 1837 2687 1696 2642 1696 2475 
C 1696 2321 1818 2257 1914 2257 
C 1990 2257 2131 2302 2131 2482 
C 2131 2687 1926 2816 1709 2816 
C 1222 2816 1011 2340 947 2115 
L 941 2115 
L 941 2816 
L 198 2745 
L 198 2578 
C 576 2578 634 2540 634 2231 
L 634 443 
C 634 198 608 166 198 166 
L 198 0 
C 352 12 646 12 813 12 
C 998 12 1325 12 1498 0 
L 1498 166 
C 1037 166 960 166 960 455 
L 960 1517 
z
" transform="scale(0.015625)"/>
       <path id="CMR17-6f" d="M 2758 1356 
C 2758 2176 2163 2816 1466 2816 
C 768 2816 173 2176 173 1356 
C 173 550 768 -64 1466 -64 
C 2163 -64 2758 550 2758 1356 
z
M 1466 51 
C 1165 51 909 230 762 480 
C 602 768 582 1126 582 1408 
C 582 1676 595 2009 762 2297 
C 890 2508 1139 2713 1466 2713 
C 1754 2713 1997 2553 2150 2329 
C 2349 2028 2349 1606 2349 1408 
C 2349 1158 2336 774 2163 467 
C 1984 172 1709 51 1466 51 
z
" transform="scale(0.015625)"/>
       <path id="CMMI12-f" d="M 1862 1472 
C 1958 1472 2067 1472 2067 1574 
C 2067 1657 2003 1657 1888 1657 
L 851 1657 
C 1011 2224 1389 2566 1958 2566 
L 2144 2566 
C 2253 2566 2349 2566 2349 2668 
C 2349 2752 2278 2752 2163 2752 
L 1946 2752 
C 1158 2752 294 2136 294 1141 
C 294 420 774 -64 1408 -64 
C 1818 -64 2221 193 2221 258 
C 2221 297 2202 336 2163 336 
C 2144 336 2131 330 2099 304 
C 1856 141 1619 64 1427 64 
C 1088 64 730 291 730 920 
C 730 1043 742 1212 800 1472 
L 1862 1472 
z
" transform="scale(0.015625)"/>
      </defs>
      <use xlink:href="#CMR17-45" transform="scale(0.996264)"/>
      <use xlink:href="#CMR17-72" transform="translate(62.586301 0) scale(0.996264)"/>
      <use xlink:href="#CMR17-72" transform="translate(97.867068 0) scale(0.996264)"/>
      <use xlink:href="#CMR17-6f" transform="translate(133.147836 0) scale(0.996264)"/>
      <use xlink:href="#CMR17-72" transform="translate(178.838313 0) scale(0.996264)"/>
      <use xlink:href="#CMR17-28" transform="translate(244.195047 0) scale(0.996264)"/>
      <use xlink:href="#CMMI12-f" transform="translate(279.475815 0) scale(0.996264)"/>
      <use xlink:href="#CMR17-29" transform="translate(318.864773 0) scale(0.996264)"/>
     </g>
    </g>
   </g>
   <g id="line2d_16">
    <path d="M 73.832727 294.927934 
L 77.112066 294.88404 
L 80.391405 294.837025 
L 83.670744 294.786849 
L 86.950083 294.733473 
L 90.229421 294.676858 
L 93.50876 294.616965 
L 96.788099 294.553753 
L 100.067438 294.487185 
L 103.346777 294.41722 
L 106.626116 294.343819 
L 109.905455 294.266942 
L 113.184793 294.186551 
L 116.464132 294.102606 
L 119.743471 294.015067 
L 123.02281 293.923896 
L 126.302149 293.829053 
L 129.581488 293.730498 
L 132.860826 293.628192 
L 136.140165 293.522097 
L 139.419504 293.412171 
L 142.698843 293.298377 
L 145.978182 293.180675 
L 149.257521 293.059025 
L 152.53686 292.933389 
L 155.816198 292.803726 
L 159.095537 292.669997 
L 162.374876 292.532164 
L 165.654215 292.390186 
L 168.933554 292.244024 
L 172.212893 292.093639 
L 175.492231 291.938993 
L 178.77157 291.780044 
L 182.050909 291.616754 
L 185.330248 291.449084 
L 188.609587 291.276994 
L 191.888926 291.100445 
L 195.168264 290.919397 
L 198.447603 290.733812 
L 201.726942 290.543649 
L 205.006281 290.34887 
L 208.28562 290.149434 
L 211.564959 289.945304 
L 214.844298 289.736439 
L 218.123636 289.5228 
L 221.402975 289.304348 
L 224.682314 289.081042 
L 227.961653 288.852845 
L 231.240992 288.619717 
L 234.520331 288.381618 
L 237.799669 288.138509 
L 241.079008 287.89035 
L 244.358347 287.637102 
L 247.637686 287.378727 
L 250.917025 287.115184 
L 254.196364 286.846434 
L 257.475702 286.572437 
L 260.755041 286.293156 
L 264.03438 286.008549 
L 267.313719 285.718578 
L 270.593058 285.423203 
L 273.872397 285.122386 
L 277.151736 284.816086 
L 280.431074 284.504264 
L 283.710413 284.186882 
L 286.989752 283.863899 
L 290.269091 283.535276 
L 293.54843 283.200974 
L 296.827769 282.860954 
L 300.107107 282.515176 
L 303.386446 282.163601 
L 306.665785 281.806189 
L 309.945124 281.442901 
L 313.224463 281.073699 
L 316.503802 280.698541 
L 319.78314 280.31739 
L 323.062479 279.930205 
L 326.341818 279.536948 
L 329.621157 279.137579 
L 332.900496 278.732059 
L 336.179835 278.320348 
L 339.459174 277.902406 
L 342.738512 277.478196 
L 346.017851 277.047676 
L 349.29719 276.610809 
L 352.576529 276.167554 
L 355.855868 275.717872 
L 359.135207 275.261725 
L 362.414545 274.799071 
L 365.693884 274.329873 
L 368.973223 273.854091 
L 372.252562 273.371685 
L 375.531901 272.882616 
L 378.81124 272.386845 
L 382.090579 271.884332 
L 385.369917 271.375038 
L 388.649256 270.858924 
L 391.928595 270.33595 
L 395.207934 269.806077 
L 398.487273 269.269266 
" clip-path="url(#p32ec7e9761)" style="fill: none; stroke: #1f77b4; stroke-width: 1.5; stroke-linecap: square"/>
   </g>
   <g id="line2d_17">
    <path d="M 73.832727 295.488 
L 77.112066 295.463531 
L 80.391405 295.438942 
L 83.670744 295.414207 
L 86.950083 295.389298 
L 90.229421 295.364189 
L 93.50876 295.338854 
L 96.788099 295.313267 
L 100.067438 295.2874 
L 103.346777 295.261228 
L 106.626116 295.234724 
L 109.905455 295.207862 
L 113.184793 295.180614 
L 116.464132 295.152956 
L 119.743471 295.12486 
L 123.02281 295.096299 
L 126.302149 295.067248 
L 129.581488 295.03768 
L 132.860826 295.007568 
L 136.140165 294.976886 
L 139.419504 294.945608 
L 142.698843 294.913707 
L 145.978182 294.881156 
L 149.257521 294.84793 
L 152.53686 294.814001 
L 155.816198 294.779344 
L 159.095537 294.743932 
L 162.374876 294.707738 
L 165.654215 294.670736 
L 168.933554 294.632899 
L 172.212893 294.594202 
L 175.492231 294.554617 
L 178.77157 294.514118 
L 182.050909 294.472679 
L 185.330248 294.430273 
L 188.609587 294.386874 
L 191.888926 294.342456 
L 195.168264 294.296991 
L 198.447603 294.250454 
L 201.726942 294.202818 
L 205.006281 294.154056 
L 208.28562 294.104142 
L 211.564959 294.05305 
L 214.844298 294.000754 
L 218.123636 293.947226 
L 221.402975 293.89244 
L 224.682314 293.83637 
L 227.961653 293.77899 
L 231.240992 293.720273 
L 234.520331 293.660192 
L 237.799669 293.598721 
L 241.079008 293.535834 
L 244.358347 293.471504 
L 247.637686 293.405704 
L 250.917025 293.338409 
L 254.196364 293.269592 
L 257.475702 293.199226 
L 260.755041 293.127285 
L 264.03438 293.053743 
L 267.313719 292.978572 
L 270.593058 292.901747 
L 273.872397 292.823241 
L 277.151736 292.743028 
L 280.431074 292.661081 
L 283.710413 292.577374 
L 286.989752 292.49188 
L 290.269091 292.404573 
L 293.54843 292.315426 
L 296.827769 292.224414 
L 300.107107 292.131509 
L 303.386446 292.036685 
L 306.665785 291.939915 
L 309.945124 291.841174 
L 313.224463 291.740434 
L 316.503802 291.63767 
L 319.78314 291.532855 
L 323.062479 291.425962 
L 326.341818 291.316965 
L 329.621157 291.205837 
L 332.900496 291.092552 
L 336.179835 290.977084 
L 339.459174 290.859406 
L 342.738512 290.739492 
L 346.017851 290.617315 
L 349.29719 290.492848 
L 352.576529 290.366066 
L 355.855868 290.236942 
L 359.135207 290.10545 
L 362.414545 289.971562 
L 365.693884 289.835253 
L 368.973223 289.696496 
L 372.252562 289.555264 
L 375.531901 289.411532 
L 378.81124 289.265272 
L 382.090579 289.116459 
L 385.369917 288.965065 
L 388.649256 288.811065 
L 391.928595 288.654432 
L 395.207934 288.495139 
L 398.487273 288.333161 
" clip-path="url(#p32ec7e9761)" style="fill: none; stroke-dasharray: 5.55,2.4; stroke-dashoffset: 0; stroke: #1f77b4; stroke-width: 1.5"/>
   </g>
   <g id="line2d_18">
    <path d="M 73.832727 294.664428 
L 77.112066 294.574452 
L 80.391405 294.480994 
L 83.670744 294.383911 
L 86.950083 294.283061 
L 90.229421 294.178302 
L 93.50876 294.069491 
L 96.788099 293.956487 
L 100.067438 293.839147 
L 103.346777 293.717329 
L 106.626116 293.59089 
L 109.905455 293.45969 
L 113.184793 293.323584 
L 116.464132 293.182432 
L 119.743471 293.03609 
L 123.02281 292.884417 
L 126.302149 292.727271 
L 129.581488 292.564509 
L 132.860826 292.395989 
L 136.140165 292.221569 
L 139.419504 292.041107 
L 142.698843 291.85446 
L 145.978182 291.661486 
L 149.257521 291.462043 
L 152.53686 291.255989 
L 155.816198 291.043182 
L 159.095537 290.823479 
L 162.374876 290.596739 
L 165.654215 290.362818 
L 168.933554 290.121575 
L 172.212893 289.872868 
L 175.492231 289.616554 
L 178.77157 289.352491 
L 182.050909 289.080537 
L 185.330248 288.800549 
L 188.609587 288.512387 
L 191.888926 288.215906 
L 195.168264 287.910966 
L 198.447603 287.597423 
L 201.726942 287.275137 
L 205.006281 286.943963 
L 208.28562 286.603761 
L 211.564959 286.254388 
L 214.844298 285.895702 
L 218.123636 285.527561 
L 221.402975 285.149821 
L 224.682314 284.762342 
L 227.961653 284.364982 
L 231.240992 283.957596 
L 234.520331 283.540045 
L 237.799669 283.112185 
L 241.079008 282.673874 
L 244.358347 282.22497 
L 247.637686 281.76533 
L 250.917025 281.294813 
L 254.196364 280.813277 
L 257.475702 280.320579 
L 260.755041 279.816576 
L 264.03438 279.301127 
L 267.313719 278.77409 
L 270.593058 278.235322 
L 273.872397 277.684681 
L 277.151736 277.122025 
L 280.431074 276.547211 
L 283.710413 275.960098 
L 286.989752 275.360544 
L 290.269091 274.748405 
L 293.54843 274.12354 
L 296.827769 273.485807 
L 300.107107 272.835063 
L 303.386446 272.171166 
L 306.665785 271.493974 
L 309.945124 270.803345 
L 313.224463 270.099137 
L 316.503802 269.381206 
L 319.78314 268.649412 
L 323.062479 267.903612 
L 326.341818 267.143664 
L 329.621157 266.369425 
L 332.900496 265.580753 
L 336.179835 264.777507 
L 339.459174 263.959543 
L 342.738512 263.12672 
L 346.017851 262.278896 
L 349.29719 261.415928 
L 352.576529 260.537673 
L 355.855868 259.643991 
L 359.135207 258.734738 
L 362.414545 257.809773 
L 365.693884 256.868953 
L 368.973223 255.912135 
L 372.252562 254.939179 
L 375.531901 253.949941 
L 378.81124 252.94428 
L 382.090579 251.922053 
L 385.369917 250.883117 
L 388.649256 249.827332 
L 391.928595 248.754554 
L 395.207934 247.664641 
L 398.487273 246.557451 
" clip-path="url(#p32ec7e9761)" style="fill: none; stroke: #2ca02c; stroke-width: 1.5; stroke-linecap: square"/>
   </g>
   <g id="line2d_19">
    <path d="M 73.832727 295.386435 
L 77.112066 295.361924 
L 80.391405 295.33648 
L 83.670744 295.310066 
L 86.950083 295.282644 
L 90.229421 295.254177 
L 93.50876 295.224625 
L 96.788099 295.193952 
L 100.067438 295.162118 
L 103.346777 295.129088 
L 106.626116 295.094821 
L 109.905455 295.059282 
L 113.184793 295.022431 
L 116.464132 294.984231 
L 119.743471 294.944643 
L 123.02281 294.903631 
L 126.302149 294.861156 
L 129.581488 294.81718 
L 132.860826 294.771665 
L 136.140165 294.724574 
L 139.419504 294.675868 
L 142.698843 294.62551 
L 145.978182 294.573461 
L 149.257521 294.519684 
L 152.53686 294.464141 
L 155.816198 294.406794 
L 159.095537 294.347605 
L 162.374876 294.286536 
L 165.654215 294.223549 
L 168.933554 294.158607 
L 172.212893 294.091671 
L 175.492231 294.022703 
L 178.77157 293.951667 
L 182.050909 293.878523 
L 185.330248 293.803233 
L 188.609587 293.725761 
L 191.888926 293.646068 
L 195.168264 293.564116 
L 198.447603 293.479867 
L 201.726942 293.393283 
L 205.006281 293.304327 
L 208.28562 293.21296 
L 211.564959 293.119145 
L 214.844298 293.022843 
L 218.123636 292.924018 
L 221.402975 292.82263 
L 224.682314 292.718642 
L 227.961653 292.612016 
L 231.240992 292.502715 
L 234.520331 292.390699 
L 237.799669 292.275933 
L 241.079008 292.158376 
L 244.358347 292.037992 
L 247.637686 291.914743 
L 250.917025 291.78859 
L 254.196364 291.659497 
L 257.475702 291.527424 
L 260.755041 291.392334 
L 264.03438 291.25419 
L 267.313719 291.112952 
L 270.593058 290.968584 
L 273.872397 290.821048 
L 277.151736 290.670305 
L 280.431074 290.516317 
L 283.710413 290.359048 
L 286.989752 290.198458 
L 290.269091 290.03451 
L 293.54843 289.867166 
L 296.827769 289.696388 
L 300.107107 289.522138 
L 303.386446 289.344379 
L 306.665785 289.163072 
L 309.945124 288.978179 
L 313.224463 288.789664 
L 316.503802 288.597486 
L 319.78314 288.40161 
L 323.062479 288.201996 
L 326.341818 287.998608 
L 329.621157 287.791406 
L 332.900496 287.580354 
L 336.179835 287.365413 
L 339.459174 287.146545 
L 342.738512 286.923713 
L 346.017851 286.696878 
L 349.29719 286.466003 
L 352.576529 286.23105 
L 355.855868 285.99198 
L 359.135207 285.748757 
L 362.414545 285.501341 
L 365.693884 285.249696 
L 368.973223 284.993783 
L 372.252562 284.733564 
L 375.531901 284.469001 
L 378.81124 284.200057 
L 382.090579 283.926694 
L 385.369917 283.648874 
L 388.649256 283.366558 
L 391.928595 283.079709 
L 395.207934 282.788289 
L 398.487273 282.49226 
" clip-path="url(#p32ec7e9761)" style="fill: none; stroke-dasharray: 5.55,2.4; stroke-dashoffset: 0; stroke: #2ca02c; stroke-width: 1.5"/>
   </g>
   <g id="line2d_20">
    <path d="M 73.832727 294.041075 
L 77.112066 293.903052 
L 80.391405 293.756079 
L 83.670744 293.59991 
L 86.950083 293.434299 
L 90.229421 293.259002 
L 93.50876 293.073771 
L 96.788099 292.878361 
L 100.067438 292.672527 
L 103.346777 292.456023 
L 106.626116 292.228603 
L 109.905455 291.99002 
L 113.184793 291.740031 
L 116.464132 291.478388 
L 119.743471 291.204846 
L 123.02281 290.91916 
L 126.302149 290.621083 
L 129.581488 290.31037 
L 132.860826 289.986775 
L 136.140165 289.650053 
L 139.419504 289.299957 
L 142.698843 288.936242 
L 145.978182 288.558662 
L 149.257521 288.166972 
L 152.53686 287.760925 
L 155.816198 287.340276 
L 159.095537 286.90478 
L 162.374876 286.45419 
L 165.654215 285.98826 
L 168.933554 285.506746 
L 172.212893 285.009401 
L 175.492231 284.495979 
L 178.77157 283.966236 
L 182.050909 283.419924 
L 185.330248 282.856799 
L 188.609587 282.276614 
L 191.888926 281.679124 
L 195.168264 281.064083 
L 198.447603 280.431246 
L 201.726942 279.780366 
L 205.006281 279.111198 
L 208.28562 278.423497 
L 211.564959 277.717016 
L 214.844298 276.991509 
L 218.123636 276.246731 
L 221.402975 275.482437 
L 224.682314 274.69838 
L 227.961653 273.894315 
L 231.240992 273.069996 
L 234.520331 272.225177 
L 237.799669 271.359613 
L 241.079008 270.473057 
L 244.358347 269.565265 
L 247.637686 268.63599 
L 250.917025 267.684986 
L 254.196364 266.712009 
L 257.475702 265.716811 
L 260.755041 264.699148 
L 264.03438 263.658774 
L 267.313719 262.595442 
L 270.593058 261.508908 
L 273.872397 260.398925 
L 277.151736 259.265247 
L 280.431074 258.10763 
L 283.710413 256.925827 
L 286.989752 255.719592 
L 290.269091 254.488681 
L 293.54843 253.232846 
L 296.827769 251.951842 
L 300.107107 250.645424 
L 303.386446 249.313346 
L 306.665785 247.955362 
L 309.945124 246.571227 
L 313.224463 245.160693 
L 316.503802 243.723517 
L 319.78314 242.259452 
L 323.062479 240.768252 
L 326.341818 239.249672 
L 329.621157 237.703466 
L 332.900496 236.129388 
L 336.179835 234.527193 
L 339.459174 232.896634 
L 342.738512 231.237466 
L 346.017851 229.549443 
L 349.29719 227.83232 
L 352.576529 226.085851 
L 355.855868 224.30979 
L 359.135207 222.503891 
L 362.414545 220.667908 
L 365.693884 218.801596 
L 368.973223 216.90471 
L 372.252562 214.977003 
L 375.531901 213.018229 
L 378.81124 211.028143 
L 382.090579 209.0065 
L 385.369917 206.953053 
L 388.649256 204.867556 
L 391.928595 202.749764 
L 395.207934 200.599432 
L 398.487273 198.416313 
" clip-path="url(#p32ec7e9761)" style="fill: none; stroke: #ff7f0e; stroke-width: 1.5; stroke-linecap: square"/>
   </g>
   <g id="line2d_21">
    <path d="M 73.832727 295.23622 
L 77.112066 295.196911 
L 80.391405 295.155407 
L 83.670744 295.11164 
L 86.950083 295.065545 
L 90.229421 295.017053 
L 93.50876 294.966098 
L 96.788099 294.912612 
L 100.067438 294.856529 
L 103.346777 294.797781 
L 106.626116 294.736302 
L 109.905455 294.672023 
L 113.184793 294.604879 
L 116.464132 294.534802 
L 119.743471 294.461725 
L 123.02281 294.385581 
L 126.302149 294.306303 
L 129.581488 294.223823 
L 132.860826 294.138075 
L 136.140165 294.048991 
L 139.419504 293.956505 
L 142.698843 293.860549 
L 145.978182 293.761057 
L 149.257521 293.65796 
L 152.53686 293.551193 
L 155.816198 293.440688 
L 159.095537 293.326377 
L 162.374876 293.208195 
L 165.654215 293.086073 
L 168.933554 292.959945 
L 172.212893 292.829743 
L 175.492231 292.695401 
L 178.77157 292.556851 
L 182.050909 292.414026 
L 185.330248 292.26686 
L 188.609587 292.115285 
L 191.888926 291.959234 
L 195.168264 291.798639 
L 198.447603 291.633435 
L 201.726942 291.463553 
L 205.006281 291.288927 
L 208.28562 291.10949 
L 211.564959 290.925174 
L 214.844298 290.735913 
L 218.123636 290.541639 
L 221.402975 290.342285 
L 224.682314 290.137784 
L 227.961653 289.928069 
L 231.240992 289.713074 
L 234.520331 289.49273 
L 237.799669 289.266971 
L 241.079008 289.03573 
L 244.358347 288.798939 
L 247.637686 288.556532 
L 250.917025 288.308441 
L 254.196364 288.0546 
L 257.475702 287.794941 
L 260.755041 287.529397 
L 264.03438 287.257901 
L 267.313719 286.980386 
L 270.593058 286.696785 
L 273.872397 286.407031 
L 277.151736 286.111057 
L 280.431074 285.808795 
L 283.710413 285.500179 
L 286.989752 285.185142 
L 290.269091 284.863616 
L 293.54843 284.535534 
L 296.827769 284.200829 
L 300.107107 283.859435 
L 303.386446 283.511283 
L 306.665785 283.156308 
L 309.945124 282.794441 
L 313.224463 282.425616 
L 316.503802 282.049766 
L 319.78314 281.666824 
L 323.062479 281.276722 
L 326.341818 280.879393 
L 329.621157 280.474771 
L 332.900496 280.062788 
L 336.179835 279.643377 
L 339.459174 279.216471 
L 342.738512 278.782003 
L 346.017851 278.339907 
L 349.29719 277.890113 
L 352.576529 277.432557 
L 355.855868 276.96717 
L 359.135207 276.493886 
L 362.414545 276.012638 
L 365.693884 275.523357 
L 368.973223 275.025978 
L 372.252562 274.520434 
L 375.531901 274.006656 
L 378.81124 273.484578 
L 382.090579 272.954134 
L 385.369917 272.415255 
L 388.649256 271.867875 
L 391.928595 271.311926 
L 395.207934 270.747342 
L 398.487273 270.174056 
" clip-path="url(#p32ec7e9761)" style="fill: none; stroke-dasharray: 5.55,2.4; stroke-dashoffset: 0; stroke: #ff7f0e; stroke-width: 1.5"/>
   </g>
   <g id="line2d_22">
    <path d="M 73.832727 291.859329 
L 77.112066 291.505492 
L 80.391405 291.130147 
L 83.670744 290.732664 
L 86.950083 290.312411 
L 90.229421 289.868759 
L 93.50876 289.401075 
L 96.788099 288.908731 
L 100.067438 288.391094 
L 103.346777 287.847534 
L 106.626116 287.277421 
L 109.905455 286.680123 
L 113.184793 286.05501 
L 116.464132 285.401452 
L 119.743471 284.718817 
L 123.02281 284.006475 
L 126.302149 283.263796 
L 129.581488 282.490147 
L 132.860826 281.6849 
L 136.140165 280.847422 
L 139.419504 279.977084 
L 142.698843 279.073254 
L 145.978182 278.135302 
L 149.257521 277.162597 
L 152.53686 276.154509 
L 155.816198 275.110407 
L 159.095537 274.029659 
L 162.374876 272.911636 
L 165.654215 271.755706 
L 168.933554 270.561239 
L 172.212893 269.327605 
L 175.492231 268.054171 
L 178.77157 266.740309 
L 182.050909 265.385386 
L 185.330248 263.988773 
L 188.609587 262.549839 
L 191.888926 261.067952 
L 195.168264 259.542482 
L 198.447603 257.972799 
L 201.726942 256.358272 
L 205.006281 254.698269 
L 208.28562 252.992161 
L 211.564959 251.239317 
L 214.844298 249.439105 
L 218.123636 247.590895 
L 221.402975 245.694057 
L 224.682314 243.74796 
L 227.961653 241.751973 
L 231.240992 239.705465 
L 234.520331 237.607805 
L 237.799669 235.458364 
L 241.079008 233.256509 
L 244.358347 231.001611 
L 247.637686 228.693039 
L 250.917025 226.330162 
L 254.196364 223.912349 
L 257.475702 221.438969 
L 260.755041 218.909393 
L 264.03438 216.322989 
L 267.313719 213.679126 
L 270.593058 210.977174 
L 273.872397 208.216502 
L 277.151736 205.396479 
L 280.431074 202.516474 
L 283.710413 199.575858 
L 286.989752 196.573999 
L 290.269091 193.510266 
L 293.54843 190.384029 
L 296.827769 187.194657 
L 300.107107 183.94152 
L 303.386446 180.623985 
L 306.665785 177.241424 
L 309.945124 173.793205 
L 313.224463 170.278698 
L 316.503802 166.697271 
L 319.78314 163.048294 
L 323.062479 159.331136 
L 326.341818 155.545167 
L 329.621157 151.689756 
L 332.900496 147.764273 
L 336.179835 143.768085 
L 339.459174 139.700563 
L 342.738512 135.561077 
L 346.017851 131.348994 
L 349.29719 127.063686 
L 352.576529 122.70452 
L 355.855868 118.270866 
L 359.135207 113.762094 
L 362.414545 109.177572 
L 365.693884 104.516671 
L 368.973223 99.778759 
L 372.252562 94.963205 
L 375.531901 90.069379 
L 378.81124 85.096651 
L 382.090579 80.044389 
L 385.369917 74.911962 
L 388.649256 69.698741 
L 391.928595 64.404094 
L 395.207934 59.027391 
L 398.487273 53.568 
" clip-path="url(#p32ec7e9761)" style="fill: none; stroke: #d62728; stroke-width: 1.5; stroke-linecap: square"/>
   </g>
   <g id="line2d_23">
    <path d="M 73.832727 294.693771 
L 77.112066 294.600173 
L 80.391405 294.501024 
L 83.670744 294.396156 
L 86.950083 294.285404 
L 90.229421 294.168598 
L 93.50876 294.045574 
L 96.788099 293.916164 
L 100.067438 293.7802 
L 103.346777 293.637516 
L 106.626116 293.487945 
L 109.905455 293.33132 
L 113.184793 293.167475 
L 116.464132 292.996241 
L 119.743471 292.817452 
L 123.02281 292.630942 
L 126.302149 292.436543 
L 129.581488 292.234088 
L 132.860826 292.02341 
L 136.140165 291.804342 
L 139.419504 291.576718 
L 142.698843 291.340371 
L 145.978182 291.095133 
L 149.257521 290.840837 
L 152.53686 290.577317 
L 155.816198 290.304405 
L 159.095537 290.021935 
L 162.374876 289.72974 
L 165.654215 289.427652 
L 168.933554 289.115505 
L 172.212893 288.793132 
L 175.492231 288.460366 
L 178.77157 288.117039 
L 182.050909 287.762986 
L 185.330248 287.398038 
L 188.609587 287.022029 
L 191.888926 286.634793 
L 195.168264 286.236161 
L 198.447603 285.825968 
L 201.726942 285.404046 
L 205.006281 284.970228 
L 208.28562 284.524347 
L 211.564959 284.066236 
L 214.844298 283.595729 
L 218.123636 283.112658 
L 221.402975 282.616857 
L 224.682314 282.108158 
L 227.961653 281.586394 
L 231.240992 281.051399 
L 234.520331 280.503005 
L 237.799669 279.941047 
L 241.079008 279.365355 
L 244.358347 278.775765 
L 247.637686 278.172108 
L 250.917025 277.554218 
L 254.196364 276.921928 
L 257.475702 276.27507 
L 260.755041 275.613479 
L 264.03438 274.936987 
L 267.313719 274.245426 
L 270.593058 273.53863 
L 273.872397 272.816433 
L 277.151736 272.078667 
L 280.431074 271.325165 
L 283.710413 270.55576 
L 286.989752 269.770285 
L 290.269091 268.968573 
L 293.54843 268.150458 
L 296.827769 267.315772 
L 300.107107 266.464349 
L 303.386446 265.596021 
L 306.665785 264.710621 
L 309.945124 263.807983 
L 313.224463 262.88794 
L 316.503802 261.950324 
L 319.78314 260.994969 
L 323.062479 260.021707 
L 326.341818 259.030372 
L 329.621157 258.020797 
L 332.900496 256.992815 
L 336.179835 255.946259 
L 339.459174 254.880961 
L 342.738512 253.796756 
L 346.017851 252.693475 
L 349.29719 251.570953 
L 352.576529 250.429021 
L 355.855868 249.267514 
L 359.135207 248.086264 
L 362.414545 246.885104 
L 365.693884 245.663867 
L 368.973223 244.422386 
L 372.252562 243.160495 
L 375.531901 241.878026 
L 378.81124 240.574813 
L 382.090579 239.250688 
L 385.369917 237.905484 
L 388.649256 236.539035 
L 391.928595 235.151173 
L 395.207934 233.741733 
L 398.487273 232.310545 
" clip-path="url(#p32ec7e9761)" style="fill: none; stroke-dasharray: 5.55,2.4; stroke-dashoffset: 0; stroke: #d62728; stroke-width: 1.5"/>
   </g>
   <g id="patch_3">
    <path d="M 57.6 307.584 
L 57.6 41.472 
" style="fill: none; stroke: #000000; stroke-width: 0.8; stroke-linejoin: miter; stroke-linecap: square"/>
   </g>
   <g id="patch_4">
    <path d="M 414.72 307.584 
L 414.72 41.472 
" style="fill: none; stroke: #000000; stroke-width: 0.8; stroke-linejoin: miter; stroke-linecap: square"/>
   </g>
   <g id="patch_5">
    <path d="M 57.6 307.584 
L 414.72 307.584 
" style="fill: none; stroke: #000000; stroke-width: 0.8; stroke-linejoin: miter; stroke-linecap: square"/>
   </g>
   <g id="patch_6">
    <path d="M 57.6 41.472 
L 414.72 41.472 
" style="fill: none; stroke: #000000; stroke-width: 0.8; stroke-linejoin: miter; stroke-linecap: square"/>
   </g>
   <g id="text_18">
    <!-- Trotter error: full Hilbert space vs. low-energy subspace -->
    <g transform="translate(91.820832 35.472) scale(0.12 -0.12)">
     <defs>
      <path id="CMR17-54" d="M 3981 4332 
L 288 4332 
L 179 2924 
L 294 2924 
C 378 3981 467 4166 1453 4166 
C 1568 4166 1754 4166 1805 4159 
C 1926 4140 1926 4064 1926 3917 
L 1926 465 
C 1926 236 1907 166 1376 166 
L 1197 166 
L 1197 0 
C 1504 6 1824 12 2138 12 
C 2451 12 2771 6 3078 0 
L 3078 166 
L 2899 166 
C 2368 166 2349 236 2349 465 
L 2349 3917 
C 2349 4057 2349 4134 2464 4159 
C 2515 4166 2701 4166 2816 4166 
C 3795 4166 3891 3981 3974 2924 
L 4090 2924 
L 3981 4332 
z
" transform="scale(0.015625)"/>
      <path id="CMR17-3a" d="M 1062 2489 
C 1062 2649 934 2752 800 2752 
C 672 2752 538 2649 538 2489 
C 538 2329 666 2227 800 2227 
C 928 2227 1062 2329 1062 2489 
z
M 1062 262 
C 1062 422 934 524 800 524 
C 672 524 538 422 538 262 
C 538 102 666 0 800 0 
C 928 0 1062 102 1062 262 
z
" transform="scale(0.015625)"/>
      <path id="CMR17-66" d="M 979 2585 
L 1709 2585 
L 1709 2752 
L 966 2752 
L 966 3539 
C 966 4076 1235 4377 1510 4377 
C 1594 4377 1690 4363 1754 4339 
C 1702 4326 1568 4281 1568 4121 
C 1568 3955 1696 3904 1786 3904 
C 1875 3904 2003 3955 2003 4121 
C 2003 4353 1773 4480 1517 4480 
C 1152 4480 653 4211 653 3526 
L 653 2752 
L 141 2752 
L 141 2585 
L 653 2585 
L 653 441 
C 653 198 627 166 218 166 
L 218 0 
C 371 12 666 12 832 12 
C 1018 12 1344 12 1517 0 
L 1517 166 
C 1056 166 979 166 979 454 
L 979 2585 
z
" transform="scale(0.015625)"/>
      <path id="CMR17-75" d="M 1882 2745 
L 1882 2579 
C 2259 2579 2317 2540 2317 2229 
L 2317 1053 
C 2317 510 2029 38 1555 38 
C 1030 38 986 355 986 691 
L 986 2816 
L 211 2745 
L 211 2579 
C 467 2579 640 2579 646 2320 
L 646 1079 
C 646 646 646 368 813 187 
C 896 103 1056 -64 1517 -64 
C 2061 -64 2272 400 2323 536 
L 2330 536 
L 2330 -64 
L 3091 -13 
L 3091 154 
C 2714 154 2656 193 2656 503 
L 2656 2816 
L 1882 2745 
z
" transform="scale(0.015625)"/>
      <path id="CMR17-6c" d="M 979 4416 
L 218 4345 
L 218 4179 
C 595 4179 653 4141 653 3835 
L 653 439 
C 653 198 627 166 218 166 
L 218 0 
C 371 12 653 12 813 12 
C 979 12 1261 12 1414 0 
L 1414 166 
C 1005 166 979 191 979 439 
L 979 4416 
z
" transform="scale(0.015625)"/>
      <path id="CMR17-48" d="M 3590 3898 
C 3590 4185 3661 4185 4102 4185 
L 4102 4352 
C 3917 4339 3578 4339 3379 4339 
C 3181 4339 2842 4339 2656 4352 
L 2656 4185 
C 3098 4185 3168 4185 3168 3898 
L 3168 2342 
L 1261 2342 
L 1261 3898 
C 1261 4185 1331 4185 1773 4185 
L 1773 4352 
C 1587 4339 1248 4339 1050 4339 
C 851 4339 512 4339 326 4352 
L 326 4185 
C 768 4185 838 4185 838 3898 
L 838 452 
C 838 166 768 166 326 166 
L 326 0 
C 512 12 851 12 1050 12 
C 1248 12 1587 12 1773 0 
L 1773 166 
C 1331 166 1261 166 1261 452 
L 1261 2176 
L 3168 2176 
L 3168 452 
C 3168 166 3098 166 2656 166 
L 2656 0 
C 2842 12 3181 12 3379 12 
C 3578 12 3917 12 4102 0 
L 4102 166 
C 3661 166 3590 166 3590 452 
L 3590 3898 
z
" transform="scale(0.015625)"/>
      <path id="CMR17-62" d="M 960 4416 
L 198 4345 
L 198 4179 
C 576 4179 634 4141 634 3843 
L 634 -13 
L 749 -13 
L 934 445 
C 1120 141 1395 -64 1766 -64 
C 2406 -64 3053 503 3053 1382 
C 3053 2209 2477 2816 1830 2816 
C 1434 2816 1152 2603 960 2351 
L 960 4416 
z
M 973 2022 
C 973 2138 973 2157 1062 2293 
C 1312 2681 1670 2713 1792 2713 
C 1984 2713 2643 2610 2643 1388 
C 2643 109 1888 38 1734 38 
C 1536 38 1248 115 1043 490 
C 973 613 973 626 973 742 
L 973 2022 
z
" transform="scale(0.015625)"/>
      <path id="CMR17-61" d="M 2304 1656 
C 2304 2048 2304 2275 2035 2534 
C 1798 2751 1523 2816 1306 2816 
C 800 2816 435 2408 435 1977 
C 435 1740 627 1728 666 1728 
C 749 1728 896 1779 896 1958 
C 896 2118 774 2188 666 2188 
C 640 2188 608 2182 589 2176 
C 723 2594 1069 2713 1293 2713 
C 1613 2713 1965 2421 1965 1875 
L 1965 1632 
C 1587 1619 1133 1568 774 1373 
C 371 1147 256 822 256 576 
C 256 77 832 -64 1171 -64 
C 1523 -64 1850 135 1990 505 
C 2003 219 2182 -39 2464 -39 
C 2598 -39 2938 51 2938 563 
L 2938 926 
L 2822 926 
L 2822 557 
C 2822 161 2650 109 2566 109 
C 2304 109 2304 446 2304 732 
L 2304 1656 
z
M 1965 887 
C 1965 323 1568 38 1216 38 
C 896 38 646 278 646 576 
C 646 771 730 1114 1101 1322 
C 1408 1497 1760 1523 1965 1536 
L 1965 887 
z
" transform="scale(0.015625)"/>
      <path id="CMR17-63" d="M 2234 2240 
C 2112 2240 1933 2240 1933 2015 
C 1933 1836 2080 1785 2163 1785 
C 2208 1785 2394 1804 2394 2028 
C 2394 2476 1958 2816 1466 2816 
C 787 2816 211 2201 211 1379 
C 211 521 813 -64 1466 -64 
C 2259 -64 2458 676 2458 747 
C 2458 773 2451 792 2406 792 
C 2362 792 2355 786 2330 702 
C 2163 180 1798 51 1523 51 
C 1114 51 621 431 621 1385 
C 621 2358 1094 2700 1472 2700 
C 1722 2700 2093 2582 2234 2240 
z
" transform="scale(0.015625)"/>
      <path id="CMR17-76" d="M 2502 2173 
C 2560 2315 2662 2572 3034 2585 
L 3034 2752 
C 2912 2745 2752 2739 2630 2739 
C 2496 2739 2285 2739 2157 2752 
L 2157 2585 
C 2317 2572 2406 2495 2406 2328 
C 2406 2270 2406 2257 2368 2167 
L 1664 379 
L 902 2308 
C 864 2392 864 2405 864 2431 
C 864 2585 1075 2585 1171 2585 
L 1171 2752 
C 1018 2739 736 2739 576 2739 
C 403 2739 205 2739 64 2752 
L 64 2585 
C 307 2585 442 2585 518 2386 
L 1446 44 
C 1485 -52 1491 -64 1549 -64 
C 1606 -64 1613 -52 1651 44 
L 2502 2173 
z
" transform="scale(0.015625)"/>
      <path id="CMR17-2e" d="M 1062 262 
C 1062 422 934 524 800 524 
C 672 524 538 422 538 262 
C 538 102 666 0 800 0 
C 928 0 1062 102 1062 262 
z
" transform="scale(0.015625)"/>
      <path id="CMR17-77" d="M 3725 2186 
C 3853 2566 4109 2579 4205 2585 
L 4205 2752 
C 4077 2745 3949 2739 3821 2739 
C 3699 2739 3424 2739 3315 2752 
L 3315 2585 
C 3514 2572 3622 2456 3622 2296 
C 3622 2251 3610 2193 3597 2148 
L 2995 398 
L 2342 2296 
C 2330 2341 2310 2392 2310 2418 
C 2310 2585 2528 2585 2630 2585 
L 2630 2752 
C 2483 2739 2214 2739 2061 2739 
C 1901 2739 1734 2739 1587 2752 
L 1587 2585 
C 1939 2585 1939 2572 2074 2167 
L 1485 443 
L 851 2302 
C 819 2386 819 2399 819 2418 
C 819 2585 1037 2585 1139 2585 
L 1139 2752 
C 986 2739 717 2739 557 2739 
C 416 2739 198 2739 64 2752 
L 64 2585 
C 346 2585 416 2566 486 2353 
L 1274 38 
C 1299 -45 1318 -64 1370 -64 
C 1414 -64 1440 -52 1472 44 
L 2131 1987 
L 2797 44 
C 2829 -52 2854 -64 2899 -64 
C 2950 -64 2970 -45 2995 38 
L 3725 2186 
z
" transform="scale(0.015625)"/>
      <path id="CMR17-2d" d="M 1632 1254 
L 1632 1536 
L 26 1536 
L 26 1254 
L 1632 1254 
z
" transform="scale(0.015625)"/>
      <path id="CMR17-6e" d="M 2656 1954 
C 2656 2282 2592 2816 1837 2816 
C 1331 2816 1069 2424 973 2166 
L 966 2166 
L 966 2816 
L 211 2745 
L 211 2578 
C 589 2578 646 2540 646 2231 
L 646 443 
C 646 198 621 166 211 166 
L 211 0 
C 365 12 646 12 813 12 
C 979 12 1267 12 1421 0 
L 1421 166 
C 1011 166 986 192 986 443 
L 986 1678 
C 986 2269 1344 2713 1792 2713 
C 2266 2713 2317 2289 2317 1980 
L 2317 443 
C 2317 198 2291 166 1882 166 
L 1882 0 
C 2035 12 2317 12 2483 12 
C 2650 12 2938 12 3091 0 
L 3091 166 
C 2682 166 2656 192 2656 443 
L 2656 1954 
z
" transform="scale(0.015625)"/>
      <path id="CMR17-67" d="M 710 1165 
C 832 1068 1043 960 1299 960 
C 1805 960 2240 1359 2240 1895 
C 2240 2063 2189 2321 1997 2521 
C 2176 2713 2438 2777 2586 2777 
C 2611 2777 2650 2777 2682 2758 
C 2656 2751 2598 2726 2598 2623 
C 2598 2540 2656 2483 2739 2483 
C 2835 2483 2886 2547 2886 2630 
C 2886 2751 2790 2880 2586 2880 
C 2330 2880 2106 2758 1926 2591 
C 1734 2764 1504 2828 1299 2828 
C 794 2828 358 2431 358 1895 
C 358 1527 570 1294 634 1230 
C 442 1004 442 742 442 710 
C 442 544 506 300 723 166 
C 390 82 128 -184 128 -517 
C 128 -996 736 -1344 1466 -1344 
C 2170 -1344 2803 -1009 2803 -510 
C 2803 384 1856 384 1363 384 
C 1216 384 954 384 922 390 
C 723 422 589 601 589 825 
C 589 883 589 1024 710 1165 
z
M 1299 1068 
C 736 1068 736 1766 736 1895 
C 736 2024 736 2719 1299 2719 
C 1862 2719 1862 2024 1862 1895 
C 1862 1766 1862 1068 1299 1068 
z
M 1466 -1236 
C 826 -1236 384 -883 384 -517 
C 384 -311 493 -118 634 -11 
C 794 102 858 102 1293 102 
C 1818 102 2547 102 2547 -517 
C 2547 -883 2106 -1236 1466 -1236 
z
" transform="scale(0.015625)"/>
      <path id="CMR17-79" d="M 2496 2183 
C 2656 2579 2944 2585 3034 2585 
L 3034 2752 
C 2912 2745 2752 2739 2630 2739 
C 2496 2739 2285 2739 2157 2752 
L 2157 2585 
C 2400 2566 2406 2384 2406 2332 
C 2406 2268 2394 2235 2362 2158 
L 1664 409 
L 902 2300 
C 870 2378 870 2423 870 2430 
C 870 2572 1018 2585 1171 2585 
L 1171 2752 
C 1018 2739 742 2739 582 2739 
C 410 2739 205 2739 64 2752 
L 64 2585 
C 410 2585 448 2553 531 2345 
L 1485 -31 
C 1197 -795 1030 -1242 627 -1242 
C 557 -1242 397 -1223 282 -1106 
C 429 -1093 493 -1002 493 -892 
C 493 -782 416 -685 288 -685 
C 147 -685 77 -782 77 -899 
C 77 -1158 339 -1344 627 -1344 
C 998 -1344 1229 -983 1357 -659 
L 2496 2183 
z
" transform="scale(0.015625)"/>
     </defs>
     <use xlink:href="#CMR17-54" transform="scale(0.996264)"/>
     <use xlink:href="#CMR17-72" transform="translate(58.702625 0) scale(0.996264)"/>
     <use xlink:href="#CMR17-6f" transform="translate(93.983393 0) scale(0.996264)"/>
     <use xlink:href="#CMR17-74" transform="translate(139.67387 0) scale(0.996264)"/>
     <use xlink:href="#CMR17-74" transform="translate(174.954638 0) scale(0.996264)"/>
     <use xlink:href="#CMR17-65" transform="translate(210.235406 0) scale(0.996264)"/>
     <use xlink:href="#CMR17-72" transform="translate(250.721066 0) scale(0.996264)"/>
     <use xlink:href="#CMR17-65" transform="translate(316.0778 0) scale(0.996264)"/>
     <use xlink:href="#CMR17-72" transform="translate(356.563461 0) scale(0.996264)"/>
     <use xlink:href="#CMR17-72" transform="translate(391.844229 0) scale(0.996264)"/>
     <use xlink:href="#CMR17-6f" transform="translate(427.124996 0) scale(0.996264)"/>
     <use xlink:href="#CMR17-72" transform="translate(472.815473 0) scale(0.996264)"/>
     <use xlink:href="#CMR17-3a" transform="translate(508.096241 0) scale(0.996264)"/>
     <use xlink:href="#CMR17-66" transform="translate(573.45296 0) scale(0.996264)"/>
     <use xlink:href="#CMR17-75" transform="translate(600.926473 0) scale(0.996264)"/>
     <use xlink:href="#CMR17-6c" transform="translate(651.821842 0) scale(0.996264)"/>
     <use xlink:href="#CMR17-6c" transform="translate(676.692901 0) scale(0.996264)"/>
     <use xlink:href="#CMR17-48" transform="translate(731.639926 0) scale(0.996264)"/>
     <use xlink:href="#CMR17-69" transform="translate(800.712356 0) scale(0.996264)"/>
     <use xlink:href="#CMR17-6c" transform="translate(825.583414 0) scale(0.996264)"/>
     <use xlink:href="#CMR17-62" transform="translate(850.454472 0) scale(0.996264)"/>
     <use xlink:href="#CMR17-65" transform="translate(903.952281 0) scale(0.996264)"/>
     <use xlink:href="#CMR17-72" transform="translate(944.437941 0) scale(0.996264)"/>
     <use xlink:href="#CMR17-74" transform="translate(979.718709 0) scale(0.996264)"/>
     <use xlink:href="#CMR17-73" transform="translate(1045.075443 0) scale(0.996264)"/>
     <use xlink:href="#CMR17-70" transform="translate(1080.876781 0) scale(0.996264)"/>
     <use xlink:href="#CMR17-61" transform="translate(1131.772151 0) scale(0.996264)"/>
     <use xlink:href="#CMR17-63" transform="translate(1177.462628 0) scale(0.996264)"/>
     <use xlink:href="#CMR17-65" transform="translate(1217.948288 0) scale(0.996264)"/>
     <use xlink:href="#CMR17-76" transform="translate(1288.509915 0) scale(0.996264)"/>
     <use xlink:href="#CMR17-73" transform="translate(1336.802831 0) scale(0.996264)"/>
     <use xlink:href="#CMR17-2e" transform="translate(1372.604169 0) scale(0.996264)"/>
     <use xlink:href="#CMR17-6c" transform="translate(1437.960888 0) scale(0.996264)"/>
     <use xlink:href="#CMR17-6f" transform="translate(1462.831946 0) scale(0.996264)"/>
     <use xlink:href="#CMR17-77" transform="translate(1505.919969 0) scale(0.996264)"/>
     <use xlink:href="#CMR17-2d" transform="translate(1572.42985 0) scale(0.996264)"/>
     <use xlink:href="#CMR17-65" transform="translate(1602.505816 0) scale(0.996264)"/>
     <use xlink:href="#CMR17-6e" transform="translate(1642.991477 0) scale(0.996264)"/>
     <use xlink:href="#CMR17-65" transform="translate(1693.886846 0) scale(0.996264)"/>
     <use xlink:href="#CMR17-72" transform="translate(1734.372507 0) scale(0.996264)"/>
     <use xlink:href="#CMR17-67" transform="translate(1769.653275 0) scale(0.996264)"/>
     <use xlink:href="#CMR17-79" transform="translate(1815.343752 0) scale(0.996264)"/>
     <use xlink:href="#CMR17-73" transform="translate(1893.712634 0) scale(0.996264)"/>
     <use xlink:href="#CMR17-75" transform="translate(1929.513972 0) scale(0.996264)"/>
     <use xlink:href="#CMR17-62" transform="translate(1980.409341 0) scale(0.996264)"/>
     <use xlink:href="#CMR17-73" transform="translate(2031.304711 0) scale(0.996264)"/>
     <use xlink:href="#CMR17-70" transform="translate(2067.106049 0) scale(0.996264)"/>
     <use xlink:href="#CMR17-61" transform="translate(2118.001419 0) scale(0.996264)"/>
     <use xlink:href="#CMR17-63" transform="translate(2163.691896 0) scale(0.996264)"/>
     <use xlink:href="#CMR17-65" transform="translate(2204.177556 0) scale(0.996264)"/>
    </g>
   </g>
   <g id="legend_1">
    <g id="patch_7">
     <path d="M 64.6 160.969427 
L 162.254142 160.969427 
Q 164.254142 160.969427 164.254142 158.969427 
L 164.254142 48.472 
Q 164.254142 46.472 162.254142 46.472 
L 64.6 46.472 
Q 62.6 46.472 62.6 48.472 
L 62.6 158.969427 
Q 62.6 160.969427 64.6 160.969427 
z
" style="fill: #ffffff; opacity: 0.8; stroke: #cccccc; stroke-linejoin: miter"/>
    </g>
    <g id="line2d_24">
     <path d="M 66.6 54.472 
L 86.6 54.472 
" style="fill: none; stroke: #1f77b4; stroke-width: 2; stroke-linecap: square"/>
    </g>
    <g id="text_19">
     <!-- $r=50$ -->
     <g transform="translate(94.6 57.472) scale(0.1 -0.1)">
      <defs>
       <path id="CMMI12-72" d="M 2490 2633 
C 2291 2598 2189 2457 2189 2316 
C 2189 2163 2310 2111 2400 2111 
C 2579 2111 2726 2265 2726 2457 
C 2726 2651 2528 2816 2208 2816 
C 1952 2816 1658 2700 1389 2335 
C 1344 2660 1088 2816 832 2816 
C 582 2816 454 2642 378 2508 
C 269 2278 173 1892 173 1860 
C 173 1834 198 1801 243 1801 
C 294 1801 301 1808 339 1957 
C 435 2342 557 2687 813 2687 
C 966 2687 1011 2604 1011 2419 
C 1011 2278 947 2028 902 1827 
L 723 1130 
C 698 1007 627 716 595 600 
C 550 432 480 128 480 96 
C 480 6 550 -64 646 -64 
C 717 -64 838 -20 877 109 
C 896 160 1133 1136 1171 1285 
C 1203 1427 1242 1562 1274 1705 
C 1299 1795 1325 1898 1344 1982 
C 1363 2040 1536 2355 1696 2495 
C 1773 2566 1939 2687 2202 2687 
C 2304 2687 2406 2674 2490 2633 
z
" transform="scale(0.015625)"/>
       <path id="CMR17-3d" d="M 4115 2048 
C 4211 2048 4307 2048 4307 2156 
C 4307 2272 4198 2272 4090 2272 
L 512 2272 
C 403 2272 294 2272 294 2156 
C 294 2048 390 2048 486 2048 
L 4115 2048 
z
M 4090 927 
C 4198 927 4307 927 4307 1043 
C 4307 1152 4211 1152 4115 1152 
L 486 1152 
C 390 1152 294 1152 294 1043 
C 294 927 403 927 512 927 
L 4090 927 
z
" transform="scale(0.015625)"/>
      </defs>
      <use xlink:href="#CMMI12-72" transform="scale(0.996264)"/>
      <use xlink:href="#CMR17-3d" transform="translate(74.344621 0) scale(0.996264)"/>
      <use xlink:href="#CMR17-35" transform="translate(173.733418 0) scale(0.996264)"/>
      <use xlink:href="#CMR17-30" transform="translate(219.423895 0) scale(0.996264)"/>
     </g>
    </g>
    <g id="line2d_25">
     <path d="M 66.6 68.409178 
L 86.6 68.409178 
" style="fill: none; stroke-dasharray: 7.4,3.2; stroke-dashoffset: 0; stroke: #1f77b4; stroke-width: 2"/>
    </g>
    <g id="text_20">
     <!-- $r=50$, $\Delta = 5$ -->
     <g transform="translate(94.6 71.409178) scale(0.1 -0.1)">
      <defs>
       <path id="CMR17-2c" d="M 1011 102 
C 1024 44 1024 25 1024 -76 
C 1024 -451 896 -795 627 -1108 
C 595 -1140 595 -1152 595 -1165 
C 595 -1191 621 -1216 646 -1216 
C 685 -1216 1126 -776 1126 -82 
C 1126 128 1101 524 800 524 
C 659 524 538 428 538 262 
C 538 96 659 0 800 0 
C 877 0 960 32 1011 102 
z
" transform="scale(0.015625)"/>
       <path id="CMR17-1" d="M 2598 4435 
C 2547 4544 2522 4544 2470 4544 
C 2394 4544 2387 4531 2342 4441 
L 269 108 
C 262 96 237 38 237 32 
C 237 6 243 0 358 0 
L 4576 0 
C 4691 0 4698 6 4698 32 
C 4698 38 4672 96 4666 108 
L 2598 4435 
z
M 2310 4056 
L 4083 358 
L 531 358 
L 2310 4056 
z
" transform="scale(0.015625)"/>
      </defs>
      <use xlink:href="#CMMI12-72" transform="scale(0.996264)"/>
      <use xlink:href="#CMR17-3d" transform="translate(74.344621 0) scale(0.996264)"/>
      <use xlink:href="#CMR17-35" transform="translate(173.733418 0) scale(0.996264)"/>
      <use xlink:href="#CMR17-30" transform="translate(219.423895 0) scale(0.996264)"/>
      <use xlink:href="#CMR17-2c" transform="translate(265.114372 0) scale(0.996264)"/>
      <use xlink:href="#CMR17-1" transform="translate(320.061397 0) scale(0.996264)"/>
      <use xlink:href="#CMR17-3d" transform="translate(424.654996 0) scale(0.996264)"/>
      <use xlink:href="#CMR17-35" transform="translate(524.043793 0) scale(0.996264)"/>
     </g>
    </g>
    <g id="line2d_26">
     <path d="M 66.6 82.346357 
L 86.6 82.346357 
" style="fill: none; stroke: #2ca02c; stroke-width: 2; stroke-linecap: square"/>
    </g>
    <g id="text_21">
     <!-- $r=100$ -->
     <g transform="translate(94.6 85.346357) scale(0.1 -0.1)">
      <use xlink:href="#CMMI12-72" transform="scale(0.996264)"/>
      <use xlink:href="#CMR17-3d" transform="translate(74.344621 0) scale(0.996264)"/>
      <use xlink:href="#CMR17-31" transform="translate(173.733418 0) scale(0.996264)"/>
      <use xlink:href="#CMR17-30" transform="translate(219.423895 0) scale(0.996264)"/>
      <use xlink:href="#CMR17-30" transform="translate(265.114372 0) scale(0.996264)"/>
     </g>
    </g>
    <g id="line2d_27">
     <path d="M 66.6 96.283535 
L 86.6 96.283535 
" style="fill: none; stroke-dasharray: 7.4,3.2; stroke-dashoffset: 0; stroke: #2ca02c; stroke-width: 2"/>
    </g>
    <g id="text_22">
     <!-- $r=100$, $\Delta = 5$ -->
     <g transform="translate(94.6 99.283535) scale(0.1 -0.1)">
      <use xlink:href="#CMMI12-72" transform="scale(0.996264)"/>
      <use xlink:href="#CMR17-3d" transform="translate(74.344621 0) scale(0.996264)"/>
      <use xlink:href="#CMR17-31" transform="translate(173.733418 0) scale(0.996264)"/>
      <use xlink:href="#CMR17-30" transform="translate(219.423895 0) scale(0.996264)"/>
      <use xlink:href="#CMR17-30" transform="translate(265.114372 0) scale(0.996264)"/>
      <use xlink:href="#CMR17-2c" transform="translate(310.804849 0) scale(0.996264)"/>
      <use xlink:href="#CMR17-1" transform="translate(365.751874 0) scale(0.996264)"/>
      <use xlink:href="#CMR17-3d" transform="translate(470.345473 0) scale(0.996264)"/>
      <use xlink:href="#CMR17-35" transform="translate(569.73427 0) scale(0.996264)"/>
     </g>
    </g>
    <g id="line2d_28">
     <path d="M 66.6 110.220713 
L 86.6 110.220713 
" style="fill: none; stroke: #ff7f0e; stroke-width: 2; stroke-linecap: square"/>
    </g>
    <g id="text_23">
     <!-- $r=200$ -->
     <g transform="translate(94.6 113.220713) scale(0.1 -0.1)">
      <use xlink:href="#CMMI12-72" transform="scale(0.996264)"/>
      <use xlink:href="#CMR17-3d" transform="translate(74.344621 0) scale(0.996264)"/>
      <use xlink:href="#CMR17-32" transform="translate(173.733418 0) scale(0.996264)"/>
      <use xlink:href="#CMR17-30" transform="translate(219.423895 0) scale(0.996264)"/>
      <use xlink:href="#CMR17-30" transform="translate(265.114372 0) scale(0.996264)"/>
     </g>
    </g>
    <g id="line2d_29">
     <path d="M 66.6 124.157892 
L 86.6 124.157892 
" style="fill: none; stroke-dasharray: 7.4,3.2; stroke-dashoffset: 0; stroke: #ff7f0e; stroke-width: 2"/>
    </g>
    <g id="text_24">
     <!-- $r=200$, $\Delta = 5$ -->
     <g transform="translate(94.6 127.157892) scale(0.1 -0.1)">
      <use xlink:href="#CMMI12-72" transform="scale(0.996264)"/>
      <use xlink:href="#CMR17-3d" transform="translate(74.344621 0) scale(0.996264)"/>
      <use xlink:href="#CMR17-32" transform="translate(173.733418 0) scale(0.996264)"/>
      <use xlink:href="#CMR17-30" transform="translate(219.423895 0) scale(0.996264)"/>
      <use xlink:href="#CMR17-30" transform="translate(265.114372 0) scale(0.996264)"/>
      <use xlink:href="#CMR17-2c" transform="translate(310.804849 0) scale(0.996264)"/>
      <use xlink:href="#CMR17-1" transform="translate(365.751874 0) scale(0.996264)"/>
      <use xlink:href="#CMR17-3d" transform="translate(470.345473 0) scale(0.996264)"/>
      <use xlink:href="#CMR17-35" transform="translate(569.73427 0) scale(0.996264)"/>
     </g>
    </g>
    <g id="line2d_30">
     <path d="M 66.6 138.09507 
L 86.6 138.09507 
" style="fill: none; stroke: #d62728; stroke-width: 2; stroke-linecap: square"/>
    </g>
    <g id="text_25">
     <!-- $r=500$ -->
     <g transform="translate(94.6 141.09507) scale(0.1 -0.1)">
      <use xlink:href="#CMMI12-72" transform="scale(0.996264)"/>
      <use xlink:href="#CMR17-3d" transform="translate(74.344621 0) scale(0.996264)"/>
      <use xlink:href="#CMR17-35" transform="translate(173.733418 0) scale(0.996264)"/>
      <use xlink:href="#CMR17-30" transform="translate(219.423895 0) scale(0.996264)"/>
      <use xlink:href="#CMR17-30" transform="translate(265.114372 0) scale(0.996264)"/>
     </g>
    </g>
    <g id="line2d_31">
     <path d="M 66.6 152.032248 
L 86.6 152.032248 
" style="fill: none; stroke-dasharray: 7.4,3.2; stroke-dashoffset: 0; stroke: #d62728; stroke-width: 2"/>
    </g>
    <g id="text_26">
     <!-- $r=500$, $\Delta = 5$ -->
     <g transform="translate(94.6 155.032248) scale(0.1 -0.1)">
      <use xlink:href="#CMMI12-72" transform="scale(0.996264)"/>
      <use xlink:href="#CMR17-3d" transform="translate(74.344621 0) scale(0.996264)"/>
      <use xlink:href="#CMR17-35" transform="translate(173.733418 0) scale(0.996264)"/>
      <use xlink:href="#CMR17-30" transform="translate(219.423895 0) scale(0.996264)"/>
      <use xlink:href="#CMR17-30" transform="translate(265.114372 0) scale(0.996264)"/>
      <use xlink:href="#CMR17-2c" transform="translate(310.804849 0) scale(0.996264)"/>
      <use xlink:href="#CMR17-1" transform="translate(365.751874 0) scale(0.996264)"/>
      <use xlink:href="#CMR17-3d" transform="translate(470.345473 0) scale(0.996264)"/>
      <use xlink:href="#CMR17-35" transform="translate(569.73427 0) scale(0.996264)"/>
     </g>
    </g>
   </g>
  </g>
 </g>
 <defs>
  <clipPath id="p32ec7e9761">
   <rect x="57.6" y="41.472" width="357.12" height="266.112"/>
  </clipPath>
 </defs>
</svg>
