<?xml version="1.0" encoding="utf-8" standalone="no"?>
<!DOCTYPE svg PUBLIC "-//W3C//DTD SVG 1.1//EN"
  "http://www.w3.org/Graphics/SVG/1.1/DTD/svg11.dtd">
<svg xmlns:xlink="http://www.w3.org/1999/xlink" width="460.8pt" height="345.6pt" viewBox="0 0 460.8 345.6" xmlns="http://www.w3.org/2000/svg" version="1.1">
 <metadata>
  <rdf:RDF xmlns:dc="http://purl.org/dc/elements/1.1/" xmlns:cc="http://creativecommons.org/ns#" xmlns:rdf="http://www.w3.org/1999/02/22-rdf-syntax-ns#">
   <cc:Work>
    <dc:type rdf:resource="http://purl.org/dc/dcmitype/StillImage"/>
    <dc:date>2023-07-15T11:31:04.406224</dc:date>
    <dc:format>image/svg+xml</dc:format>
    <dc:creator>
     <cc:Agent>
      <dc:title>Matplotlib v3.7.1, https://matplotlib.org/</dc:title>
     </cc:Agent>
    </dc:creator>
   </cc:Work>
  </rdf:RDF>
 </metadata>
 <defs>
  <style type="text/css">*{stroke-linejoin: round; stroke-linecap: butt}</style>
 </defs>
 <g id="figure_1">
  <g id="patch_1">
   <path d="M 0 345.6 
L 460.8 345.6 
L 460.8 0 
L 0 0 
z
" style="fill: #ffffff"/>
  </g>
  <g id="axes_1">
   <g id="patch_2">
    <path d="M 57.6 307.584 
L 414.72 307.584 
L 414.72 41.472 
L 57.6 41.472 
z
" style="fill: #ffffff"/>
   </g>
   <g id="PathCollection_1">
    <defs>
     <path id="m3aca41439d" d="M 0 -3 
L -0.673542 -0.927051 
L -2.85317 -0.927051 
L -1.089814 0.354102 
L -1.763356 2.427051 
L -0 1.145898 
L 1.763356 2.427051 
L 1.089814 0.354102 
L 2.85317 -0.927051 
L 0.673542 -0.927051 
z
" style="stroke: #1f77b4"/>
    </defs>
    <g clip-path="url(#p54f6986286)">
     <use xlink:href="#m3aca41439d" x="73.832727" y="109.037617" style="fill: #1f77b4; stroke: #1f77b4"/>
     <use xlink:href="#m3aca41439d" x="182.050909" y="157.257952" style="fill: #1f77b4; stroke: #1f77b4"/>
     <use xlink:href="#m3aca41439d" x="290.269091" y="185.454235" style="fill: #1f77b4; stroke: #1f77b4"/>
     <use xlink:href="#m3aca41439d" x="322.84601" y="231.634425" style="fill: #1f77b4; stroke: #1f77b4"/>
     <use xlink:href="#m3aca41439d" x="365.910354" y="253.262436" style="fill: #1f77b4; stroke: #1f77b4"/>
     <use xlink:href="#m3aca41439d" x="398.487273" y="252.156165" style="fill: #1f77b4; stroke: #1f77b4"/>
    </g>
   </g>
   <g id="PathCollection_2">
    <defs>
     <path id="m95cabe7a87" d="M 0 1.5 
C 0.397805 1.5 0.77937 1.341951 1.06066 1.06066 
C 1.341951 0.77937 1.5 0.397805 1.5 0 
C 1.5 -0.397805 1.341951 -0.77937 1.06066 -1.06066 
C 0.77937 -1.341951 0.397805 -1.5 0 -1.5 
C -0.397805 -1.5 -0.77937 -1.341951 -1.06066 -1.06066 
C -1.341951 -0.77937 -1.5 -0.397805 -1.5 0 
C -1.5 0.397805 -1.341951 0.77937 -1.06066 1.06066 
C -0.77937 1.341951 -0.397805 1.5 0 1.5 
z
" style="stroke: #1f77b4"/>
    </defs>
    <g clip-path="url(#p54f6986286)">
     <use xlink:href="#m95cabe7a87" x="73.832727" y="125.282183" style="fill: #1f77b4; stroke: #1f77b4"/>
     <use xlink:href="#m95cabe7a87" x="182.050909" y="185.177287" style="fill: #1f77b4; stroke: #1f77b4"/>
     <use xlink:href="#m95cabe7a87" x="290.269091" y="219.851086" style="fill: #1f77b4; stroke: #1f77b4"/>
     <use xlink:href="#m95cabe7a87" x="322.84601" y="266.127047" style="fill: #1f77b4; stroke: #1f77b4"/>
     <use xlink:href="#m95cabe7a87" x="365.910354" y="275.359806" style="fill: #1f77b4; stroke: #1f77b4"/>
     <use xlink:href="#m95cabe7a87" x="398.487273" y="295.488" style="fill: #1f77b4; stroke: #1f77b4"/>
    </g>
   </g>
   <g id="PathCollection_3">
    <defs>
     <path id="m61e48bea3e" d="M 0 -3 
L -0.673542 -0.927051 
L -2.85317 -0.927051 
L -1.089814 0.354102 
L -1.763356 2.427051 
L -0 1.145898 
L 1.763356 2.427051 
L 1.089814 0.354102 
L 2.85317 -0.927051 
L 0.673542 -0.927051 
z
" style="stroke: #ff7f0e"/>
    </defs>
    <g clip-path="url(#p54f6986286)">
     <use xlink:href="#m61e48bea3e" x="73.832727" y="64.222691" style="fill: #ff7f0e; stroke: #ff7f0e"/>
     <use xlink:href="#m61e48bea3e" x="182.050909" y="125.72366" style="fill: #ff7f0e; stroke: #ff7f0e"/>
     <use xlink:href="#m61e48bea3e" x="290.269091" y="149.998031" style="fill: #ff7f0e; stroke: #ff7f0e"/>
     <use xlink:href="#m61e48bea3e" x="322.84601" y="187.787781" style="fill: #ff7f0e; stroke: #ff7f0e"/>
     <use xlink:href="#m61e48bea3e" x="365.910354" y="188.438909" style="fill: #ff7f0e; stroke: #ff7f0e"/>
     <use xlink:href="#m61e48bea3e" x="398.487273" y="230.808756" style="fill: #ff7f0e; stroke: #ff7f0e"/>
    </g>
   </g>
   <g id="PathCollection_4">
    <defs>
     <path id="m60adc43dcf" d="M 0 1.5 
C 0.397805 1.5 0.77937 1.341951 1.06066 1.06066 
C 1.341951 0.77937 1.5 0.397805 1.5 0 
C 1.5 -0.397805 1.341951 -0.77937 1.06066 -1.06066 
C 0.77937 -1.341951 0.397805 -1.5 0 -1.5 
C -0.397805 -1.5 -0.77937 -1.341951 -1.06066 -1.06066 
C -1.341951 -0.77937 -1.5 -0.397805 -1.5 0 
C -1.5 0.397805 -1.341951 0.77937 -1.06066 1.06066 
C -0.77937 1.341951 -0.397805 1.5 0 1.5 
z
" style="stroke: #ff7f0e"/>
    </defs>
    <g clip-path="url(#p54f6986286)">
     <use xlink:href="#m60adc43dcf" x="73.832727" y="84.315502" style="fill: #ff7f0e; stroke: #ff7f0e"/>
     <use xlink:href="#m60adc43dcf" x="182.050909" y="132.703548" style="fill: #ff7f0e; stroke: #ff7f0e"/>
     <use xlink:href="#m60adc43dcf" x="290.269091" y="188.56823" style="fill: #ff7f0e; stroke: #ff7f0e"/>
     <use xlink:href="#m60adc43dcf" x="322.84601" y="204.077783" style="fill: #ff7f0e; stroke: #ff7f0e"/>
     <use xlink:href="#m60adc43dcf" x="365.910354" y="228.902562" style="fill: #ff7f0e; stroke: #ff7f0e"/>
     <use xlink:href="#m60adc43dcf" x="398.487273" y="247.740372" style="fill: #ff7f0e; stroke: #ff7f0e"/>
    </g>
   </g>
   <g id="PathCollection_5">
    <defs>
     <path id="md8ff78b4ff" d="M 0 -3 
L -0.673542 -0.927051 
L -2.85317 -0.927051 
L -1.089814 0.354102 
L -1.763356 2.427051 
L -0 1.145898 
L 1.763356 2.427051 
L 1.089814 0.354102 
L 2.85317 -0.927051 
L 0.673542 -0.927051 
z
" style="stroke: #2ca02c"/>
    </defs>
    <g clip-path="url(#p54f6986286)">
     <use xlink:href="#md8ff78b4ff" x="73.832727" y="64.212609" style="fill: #2ca02c; stroke: #2ca02c"/>
     <use xlink:href="#md8ff78b4ff" x="182.050909" y="96.121459" style="fill: #2ca02c; stroke: #2ca02c"/>
     <use xlink:href="#md8ff78b4ff" x="290.269091" y="117.80578" style="fill: #2ca02c; stroke: #2ca02c"/>
     <use xlink:href="#md8ff78b4ff" x="322.84601" y="138.816621" style="fill: #2ca02c; stroke: #2ca02c"/>
     <use xlink:href="#md8ff78b4ff" x="365.910354" y="154.894027" style="fill: #2ca02c; stroke: #2ca02c"/>
     <use xlink:href="#md8ff78b4ff" x="398.487273" y="198.196566" style="fill: #2ca02c; stroke: #2ca02c"/>
    </g>
   </g>
   <g id="PathCollection_6">
    <defs>
     <path id="mb0dbd695a4" d="M 0 1.5 
C 0.397805 1.5 0.77937 1.341951 1.06066 1.06066 
C 1.341951 0.77937 1.5 0.397805 1.5 0 
C 1.5 -0.397805 1.341951 -0.77937 1.06066 -1.06066 
C 0.77937 -1.341951 0.397805 -1.5 0 -1.5 
C -0.397805 -1.5 -0.77937 -1.341951 -1.06066 -1.06066 
C -1.341951 -0.77937 -1.5 -0.397805 -1.5 0 
C -1.5 0.397805 -1.341951 0.77937 -1.06066 1.06066 
C -0.77937 1.341951 -0.397805 1.5 0 1.5 
z
" style="stroke: #2ca02c"/>
    </defs>
    <g clip-path="url(#p54f6986286)">
     <use xlink:href="#mb0dbd695a4" x="73.832727" y="82.319768" style="fill: #2ca02c; stroke: #2ca02c"/>
     <use xlink:href="#mb0dbd695a4" x="182.050909" y="113.995188" style="fill: #2ca02c; stroke: #2ca02c"/>
     <use xlink:href="#mb0dbd695a4" x="290.269091" y="149.659059" style="fill: #2ca02c; stroke: #2ca02c"/>
     <use xlink:href="#mb0dbd695a4" x="322.84601" y="183.945124" style="fill: #2ca02c; stroke: #2ca02c"/>
     <use xlink:href="#mb0dbd695a4" x="365.910354" y="190.794578" style="fill: #2ca02c; stroke: #2ca02c"/>
     <use xlink:href="#mb0dbd695a4" x="398.487273" y="227.529233" style="fill: #2ca02c; stroke: #2ca02c"/>
    </g>
   </g>
   <g id="PathCollection_7">
    <defs>
     <path id="m3d587aa770" d="M 0 -3 
L -0.673542 -0.927051 
L -2.85317 -0.927051 
L -1.089814 0.354102 
L -1.763356 2.427051 
L -0 1.145898 
L 1.763356 2.427051 
L 1.089814 0.354102 
L 2.85317 -0.927051 
L 0.673542 -0.927051 
z
" style="stroke: #d62728"/>
    </defs>
    <g clip-path="url(#p54f6986286)">
     <use xlink:href="#m3d587aa770" x="73.832727" y="64.207725" style="fill: #d62728; stroke: #d62728"/>
     <use xlink:href="#m3d587aa770" x="182.050909" y="72.595157" style="fill: #d62728; stroke: #d62728"/>
     <use xlink:href="#m3d587aa770" x="290.269091" y="118.810448" style="fill: #d62728; stroke: #d62728"/>
     <use xlink:href="#m3d587aa770" x="322.84601" y="125.105405" style="fill: #d62728; stroke: #d62728"/>
     <use xlink:href="#m3d587aa770" x="365.910354" y="124.475301" style="fill: #d62728; stroke: #d62728"/>
     <use xlink:href="#m3d587aa770" x="398.487273" y="170.09394" style="fill: #d62728; stroke: #d62728"/>
    </g>
   </g>
   <g id="PathCollection_8">
    <defs>
     <path id="m772ff2c503" d="M 0 1.5 
C 0.397805 1.5 0.77937 1.341951 1.06066 1.06066 
C 1.341951 0.77937 1.5 0.397805 1.5 0 
C 1.5 -0.397805 1.341951 -0.77937 1.06066 -1.06066 
C 0.77937 -1.341951 0.397805 -1.5 0 -1.5 
C -0.397805 -1.5 -0.77937 -1.341951 -1.06066 -1.06066 
C -1.341951 -0.77937 -1.5 -0.397805 -1.5 0 
C -1.5 0.397805 -1.341951 0.77937 -1.06066 1.06066 
C -0.77937 1.341951 -0.397805 1.5 0 1.5 
z
" style="stroke: #d62728"/>
    </defs>
    <g clip-path="url(#p54f6986286)">
     <use xlink:href="#m772ff2c503" x="73.832727" y="64.207725" style="fill: #d62728; stroke: #d62728"/>
     <use xlink:href="#m772ff2c503" x="182.050909" y="74.938242" style="fill: #d62728; stroke: #d62728"/>
     <use xlink:href="#m772ff2c503" x="290.269091" y="118.810448" style="fill: #d62728; stroke: #d62728"/>
     <use xlink:href="#m772ff2c503" x="322.84601" y="125.105405" style="fill: #d62728; stroke: #d62728"/>
     <use xlink:href="#m772ff2c503" x="365.910354" y="124.475301" style="fill: #d62728; stroke: #d62728"/>
     <use xlink:href="#m772ff2c503" x="398.487273" y="171.865409" style="fill: #d62728; stroke: #d62728"/>
    </g>
   </g>
   <g id="matplotlib.axis_1">
    <g id="xtick_1">
     <g id="line2d_1">
      <defs>
       <path id="mbe10f987b1" d="M 0 0 
L 0 3.5 
" style="stroke: #000000; stroke-width: 0.8"/>
      </defs>
      <g>
       <use xlink:href="#mbe10f987b1" x="73.832727" y="307.584" style="stroke: #000000; stroke-width: 0.8"/>
      </g>
     </g>
     <g id="text_1">
      <!-- $\mathdefault{3.0}$ -->
      <g transform="translate(67.467688 321.502498) scale(0.1 -0.1)">
       <defs>
        <path id="CMR17-33" d="M 1414 2176 
C 1984 2176 2234 1673 2234 1094 
C 2234 322 1824 25 1453 25 
C 1114 25 563 193 390 691 
C 422 678 454 678 486 678 
C 640 678 755 780 755 947 
C 755 1132 614 1216 486 1216 
C 378 1216 211 1164 211 927 
C 211 335 787 -128 1466 -128 
C 2176 -128 2720 432 2720 1087 
C 2720 1718 2208 2176 1600 2246 
C 2086 2347 2554 2776 2554 3353 
C 2554 3856 2048 4224 1472 4224 
C 890 4224 378 3862 378 3347 
C 378 3123 544 3084 627 3084 
C 762 3084 877 3167 877 3334 
C 877 3500 762 3584 627 3584 
C 602 3584 570 3584 544 3571 
C 730 3999 1235 4076 1459 4076 
C 1683 4076 2106 3966 2106 3347 
C 2106 3167 2080 2851 1862 2574 
C 1670 2329 1453 2316 1242 2297 
C 1210 2297 1062 2284 1037 2284 
C 992 2278 966 2272 966 2227 
C 966 2182 973 2176 1101 2176 
L 1414 2176 
z
" transform="scale(0.015625)"/>
        <path id="CMMI12-3a" d="M 1178 307 
C 1178 492 1024 620 870 620 
C 685 620 557 467 557 313 
C 557 128 710 0 864 0 
C 1050 0 1178 153 1178 307 
z
" transform="scale(0.015625)"/>
        <path id="CMR17-30" d="M 2688 2038 
C 2688 2430 2682 3099 2413 3613 
C 2176 4063 1798 4224 1466 4224 
C 1158 4224 768 4082 525 3620 
C 269 3137 243 2539 243 2038 
C 243 1671 250 1112 448 623 
C 723 -39 1216 -128 1466 -128 
C 1760 -128 2208 -7 2470 604 
C 2662 1048 2688 1568 2688 2038 
z
M 1466 -26 
C 1056 -26 813 328 723 816 
C 653 1196 653 1749 653 2109 
C 653 2604 653 3015 736 3407 
C 858 3954 1216 4121 1466 4121 
C 1728 4121 2067 3947 2189 3420 
C 2272 3054 2278 2623 2278 2109 
C 2278 1691 2278 1176 2202 797 
C 2067 96 1690 -26 1466 -26 
z
" transform="scale(0.015625)"/>
       </defs>
       <use xlink:href="#CMR17-33" transform="scale(0.996264)"/>
       <use xlink:href="#CMMI12-3a" transform="translate(45.690477 0) scale(0.996264)"/>
       <use xlink:href="#CMR17-30" transform="translate(72.787654 0) scale(0.996264)"/>
      </g>
     </g>
    </g>
    <g id="xtick_2">
     <g id="line2d_2">
      <g>
       <use xlink:href="#mbe10f987b1" x="127.941818" y="307.584" style="stroke: #000000; stroke-width: 0.8"/>
      </g>
     </g>
     <g id="text_2">
      <!-- $\mathdefault{3.5}$ -->
      <g transform="translate(121.576779 321.502498) scale(0.1 -0.1)">
       <defs>
        <path id="CMR17-35" d="M 730 3750 
C 794 3724 1056 3641 1325 3641 
C 1920 3641 2246 3961 2432 4140 
C 2432 4191 2432 4224 2394 4224 
C 2387 4224 2374 4224 2323 4198 
C 2099 4102 1837 4032 1517 4032 
C 1325 4032 1037 4055 723 4191 
C 653 4224 640 4224 634 4224 
C 602 4224 595 4217 595 4090 
L 595 2231 
C 595 2113 595 2080 659 2080 
C 691 2080 704 2093 736 2139 
C 941 2435 1222 2560 1542 2560 
C 1766 2560 2246 2415 2246 1293 
C 2246 1087 2246 716 2054 422 
C 1894 159 1645 25 1370 25 
C 947 25 518 319 403 812 
C 429 806 480 793 506 793 
C 589 793 749 838 749 1036 
C 749 1209 627 1280 506 1280 
C 358 1280 262 1190 262 1011 
C 262 454 704 -128 1382 -128 
C 2042 -128 2669 441 2669 1267 
C 2669 2054 2170 2662 1549 2662 
C 1222 2662 947 2540 730 2304 
L 730 3750 
z
" transform="scale(0.015625)"/>
       </defs>
       <use xlink:href="#CMR17-33" transform="scale(0.996264)"/>
       <use xlink:href="#CMMI12-3a" transform="translate(45.690477 0) scale(0.996264)"/>
       <use xlink:href="#CMR17-35" transform="translate(72.787654 0) scale(0.996264)"/>
      </g>
     </g>
    </g>
    <g id="xtick_3">
     <g id="line2d_3">
      <g>
       <use xlink:href="#mbe10f987b1" x="182.050909" y="307.584" style="stroke: #000000; stroke-width: 0.8"/>
      </g>
     </g>
     <g id="text_3">
      <!-- $\mathdefault{4.0}$ -->
      <g transform="translate(175.68587 321.502498) scale(0.1 -0.1)">
       <defs>
        <path id="CMR17-34" d="M 2150 4147 
C 2150 4281 2144 4288 2029 4288 
L 128 1254 
L 128 1088 
L 1779 1088 
L 1779 460 
C 1779 230 1766 166 1318 166 
L 1197 166 
L 1197 0 
C 1402 12 1747 12 1965 12 
C 2182 12 2528 12 2733 0 
L 2733 166 
L 2611 166 
C 2163 166 2150 230 2150 460 
L 2150 1088 
L 2803 1088 
L 2803 1254 
L 2150 1254 
L 2150 4147 
z
M 1798 3723 
L 1798 1254 
L 256 1254 
L 1798 3723 
z
" transform="scale(0.015625)"/>
       </defs>
       <use xlink:href="#CMR17-34" transform="scale(0.996264)"/>
       <use xlink:href="#CMMI12-3a" transform="translate(45.690477 0) scale(0.996264)"/>
       <use xlink:href="#CMR17-30" transform="translate(72.787654 0) scale(0.996264)"/>
      </g>
     </g>
    </g>
    <g id="xtick_4">
     <g id="line2d_4">
      <g>
       <use xlink:href="#mbe10f987b1" x="236.16" y="307.584" style="stroke: #000000; stroke-width: 0.8"/>
      </g>
     </g>
     <g id="text_4">
      <!-- $\mathdefault{4.5}$ -->
      <g transform="translate(229.794961 321.502498) scale(0.1 -0.1)">
       <use xlink:href="#CMR17-34" transform="scale(0.996264)"/>
       <use xlink:href="#CMMI12-3a" transform="translate(45.690477 0) scale(0.996264)"/>
       <use xlink:href="#CMR17-35" transform="translate(72.787654 0) scale(0.996264)"/>
      </g>
     </g>
    </g>
    <g id="xtick_5">
     <g id="line2d_5">
      <g>
       <use xlink:href="#mbe10f987b1" x="290.269091" y="307.584" style="stroke: #000000; stroke-width: 0.8"/>
      </g>
     </g>
     <g id="text_5">
      <!-- $\mathdefault{5.0}$ -->
      <g transform="translate(283.904051 321.502498) scale(0.1 -0.1)">
       <use xlink:href="#CMR17-35" transform="scale(0.996264)"/>
       <use xlink:href="#CMMI12-3a" transform="translate(45.690477 0) scale(0.996264)"/>
       <use xlink:href="#CMR17-30" transform="translate(72.787654 0) scale(0.996264)"/>
      </g>
     </g>
    </g>
    <g id="xtick_6">
     <g id="line2d_6">
      <g>
       <use xlink:href="#mbe10f987b1" x="344.378182" y="307.584" style="stroke: #000000; stroke-width: 0.8"/>
      </g>
     </g>
     <g id="text_6">
      <!-- $\mathdefault{5.5}$ -->
      <g transform="translate(338.013142 321.502498) scale(0.1 -0.1)">
       <use xlink:href="#CMR17-35" transform="scale(0.996264)"/>
       <use xlink:href="#CMMI12-3a" transform="translate(45.690477 0) scale(0.996264)"/>
       <use xlink:href="#CMR17-35" transform="translate(72.787654 0) scale(0.996264)"/>
      </g>
     </g>
    </g>
    <g id="xtick_7">
     <g id="line2d_7">
      <g>
       <use xlink:href="#mbe10f987b1" x="398.487273" y="307.584" style="stroke: #000000; stroke-width: 0.8"/>
      </g>
     </g>
     <g id="text_7">
      <!-- $\mathdefault{6.0}$ -->
      <g transform="translate(392.122233 321.502498) scale(0.1 -0.1)">
       <defs>
        <path id="CMR17-36" d="M 678 2198 
C 678 3712 1395 4076 1811 4076 
C 1946 4076 2272 4049 2400 3782 
C 2298 3782 2106 3782 2106 3558 
C 2106 3385 2246 3328 2336 3328 
C 2394 3328 2566 3353 2566 3571 
C 2566 3987 2246 4224 1805 4224 
C 1043 4224 243 3411 243 2011 
C 243 257 966 -128 1478 -128 
C 2099 -128 2688 431 2688 1295 
C 2688 2101 2170 2688 1517 2688 
C 1126 2688 838 2430 678 1979 
L 678 2198 
z
M 1478 25 
C 691 25 691 1212 691 1450 
C 691 1914 909 2585 1504 2585 
C 1613 2585 1926 2585 2138 2140 
C 2253 1889 2253 1624 2253 1302 
C 2253 954 2253 696 2118 438 
C 1978 173 1773 25 1478 25 
z
" transform="scale(0.015625)"/>
       </defs>
       <use xlink:href="#CMR17-36" transform="scale(0.996264)"/>
       <use xlink:href="#CMMI12-3a" transform="translate(45.690477 0) scale(0.996264)"/>
       <use xlink:href="#CMR17-30" transform="translate(72.787654 0) scale(0.996264)"/>
      </g>
     </g>
    </g>
    <g id="text_8">
     <!-- Logarithmic step number ($\lg(N)$) -->
     <g transform="translate(163.204298 334.911657) scale(0.1 -0.1)">
      <defs>
       <path id="CMR17-4c" d="M 3469 1612 
L 3354 1612 
C 3302 981 3219 166 2125 166 
L 1530 166 
C 1274 166 1261 198 1261 414 
L 1261 3892 
C 1261 4121 1274 4185 1760 4185 
L 1901 4185 
L 1901 4352 
C 1638 4339 1331 4339 1069 4339 
C 870 4339 512 4339 326 4352 
L 326 4185 
C 768 4185 838 4185 838 3898 
L 838 453 
C 838 166 768 166 326 166 
L 326 0 
L 3315 0 
L 3469 1612 
z
" transform="scale(0.015625)"/>
       <path id="CMR17-6f" d="M 2758 1356 
C 2758 2176 2163 2816 1466 2816 
C 768 2816 173 2176 173 1356 
C 173 550 768 -64 1466 -64 
C 2163 -64 2758 550 2758 1356 
z
M 1466 51 
C 1165 51 909 230 762 480 
C 602 768 582 1126 582 1408 
C 582 1676 595 2009 762 2297 
C 890 2508 1139 2713 1466 2713 
C 1754 2713 1997 2553 2150 2329 
C 2349 2028 2349 1606 2349 1408 
C 2349 1158 2336 774 2163 467 
C 1984 172 1709 51 1466 51 
z
" transform="scale(0.015625)"/>
       <path id="CMR17-67" d="M 710 1165 
C 832 1068 1043 960 1299 960 
C 1805 960 2240 1359 2240 1895 
C 2240 2063 2189 2321 1997 2521 
C 2176 2713 2438 2777 2586 2777 
C 2611 2777 2650 2777 2682 2758 
C 2656 2751 2598 2726 2598 2623 
C 2598 2540 2656 2483 2739 2483 
C 2835 2483 2886 2547 2886 2630 
C 2886 2751 2790 2880 2586 2880 
C 2330 2880 2106 2758 1926 2591 
C 1734 2764 1504 2828 1299 2828 
C 794 2828 358 2431 358 1895 
C 358 1527 570 1294 634 1230 
C 442 1004 442 742 442 710 
C 442 544 506 300 723 166 
C 390 82 128 -184 128 -517 
C 128 -996 736 -1344 1466 -1344 
C 2170 -1344 2803 -1009 2803 -510 
C 2803 384 1856 384 1363 384 
C 1216 384 954 384 922 390 
C 723 422 589 601 589 825 
C 589 883 589 1024 710 1165 
z
M 1299 1068 
C 736 1068 736 1766 736 1895 
C 736 2024 736 2719 1299 2719 
C 1862 2719 1862 2024 1862 1895 
C 1862 1766 1862 1068 1299 1068 
z
M 1466 -1236 
C 826 -1236 384 -883 384 -517 
C 384 -311 493 -118 634 -11 
C 794 102 858 102 1293 102 
C 1818 102 2547 102 2547 -517 
C 2547 -883 2106 -1236 1466 -1236 
z
" transform="scale(0.015625)"/>
       <path id="CMR17-61" d="M 2304 1656 
C 2304 2048 2304 2275 2035 2534 
C 1798 2751 1523 2816 1306 2816 
C 800 2816 435 2408 435 1977 
C 435 1740 627 1728 666 1728 
C 749 1728 896 1779 896 1958 
C 896 2118 774 2188 666 2188 
C 640 2188 608 2182 589 2176 
C 723 2594 1069 2713 1293 2713 
C 1613 2713 1965 2421 1965 1875 
L 1965 1632 
C 1587 1619 1133 1568 774 1373 
C 371 1147 256 822 256 576 
C 256 77 832 -64 1171 -64 
C 1523 -64 1850 135 1990 505 
C 2003 219 2182 -39 2464 -39 
C 2598 -39 2938 51 2938 563 
L 2938 926 
L 2822 926 
L 2822 557 
C 2822 161 2650 109 2566 109 
C 2304 109 2304 446 2304 732 
L 2304 1656 
z
M 1965 887 
C 1965 323 1568 38 1216 38 
C 896 38 646 278 646 576 
C 646 771 730 1114 1101 1322 
C 1408 1497 1760 1523 1965 1536 
L 1965 887 
z
" transform="scale(0.015625)"/>
       <path id="CMR17-72" d="M 960 1517 
C 960 2134 1222 2713 1702 2713 
C 1747 2713 1792 2707 1837 2687 
C 1837 2687 1696 2642 1696 2475 
C 1696 2321 1818 2257 1914 2257 
C 1990 2257 2131 2302 2131 2482 
C 2131 2687 1926 2816 1709 2816 
C 1222 2816 1011 2340 947 2115 
L 941 2115 
L 941 2816 
L 198 2745 
L 198 2578 
C 576 2578 634 2540 634 2231 
L 634 443 
C 634 198 608 166 198 166 
L 198 0 
C 352 12 646 12 813 12 
C 998 12 1325 12 1498 0 
L 1498 166 
C 1037 166 960 166 960 455 
L 960 1517 
z
" transform="scale(0.015625)"/>
       <path id="CMR17-69" d="M 992 3961 
C 992 4102 877 4224 730 4224 
C 589 4224 467 4108 467 3961 
C 467 3820 582 3699 730 3699 
C 870 3699 992 3814 992 3961 
z
M 243 2745 
L 243 2579 
C 602 2579 653 2540 653 2231 
L 653 443 
C 653 198 627 166 218 166 
L 218 0 
C 371 12 646 12 806 12 
C 960 12 1222 12 1370 0 
L 1370 166 
C 992 166 979 205 979 436 
L 979 2816 
L 243 2745 
z
" transform="scale(0.015625)"/>
       <path id="CMR17-74" d="M 966 2585 
L 1862 2585 
L 1862 2752 
L 966 2752 
L 966 3968 
L 851 3968 
C 838 3292 614 2700 70 2687 
L 70 2585 
L 627 2585 
L 627 778 
C 627 655 627 -64 1370 -64 
C 1747 -64 1965 308 1965 784 
L 1965 1151 
L 1850 1151 
L 1850 790 
C 1850 347 1677 51 1408 51 
C 1222 51 966 179 966 765 
L 966 2585 
z
" transform="scale(0.015625)"/>
       <path id="CMR17-68" d="M 2656 1954 
C 2656 2282 2592 2816 1837 2816 
C 1312 2816 1056 2392 979 2179 
L 973 2179 
L 973 4416 
L 211 4345 
L 211 4179 
C 589 4179 646 4141 646 3843 
L 646 443 
C 646 198 621 166 211 166 
L 211 0 
C 365 12 646 12 813 12 
C 979 12 1267 12 1421 0 
L 1421 166 
C 1011 166 986 192 986 443 
L 986 1678 
C 986 2269 1344 2713 1792 2713 
C 2266 2713 2317 2289 2317 1980 
L 2317 443 
C 2317 198 2291 166 1882 166 
L 1882 0 
C 2035 12 2317 12 2483 12 
C 2650 12 2938 12 3091 0 
L 3091 166 
C 2682 166 2656 192 2656 443 
L 2656 1954 
z
" transform="scale(0.015625)"/>
       <path id="CMR17-6d" d="M 4326 1954 
C 4326 2276 4269 2816 3507 2816 
C 3072 2816 2771 2520 2656 2173 
L 2650 2173 
C 2573 2700 2195 2816 1837 2816 
C 1331 2816 1069 2424 973 2166 
L 966 2166 
L 966 2816 
L 211 2745 
L 211 2578 
C 589 2578 646 2540 646 2231 
L 646 443 
C 646 198 621 166 211 166 
L 211 0 
C 365 12 646 12 813 12 
C 979 12 1267 12 1421 0 
L 1421 166 
C 1011 166 986 192 986 443 
L 986 1678 
C 986 2269 1344 2713 1792 2713 
C 2266 2713 2317 2289 2317 1980 
L 2317 443 
C 2317 198 2291 166 1882 166 
L 1882 0 
C 2035 12 2317 12 2483 12 
C 2650 12 2938 12 3091 0 
L 3091 166 
C 2682 166 2656 192 2656 443 
L 2656 1678 
C 2656 2269 3014 2713 3462 2713 
C 3936 2713 3987 2289 3987 1980 
L 3987 443 
C 3987 198 3962 166 3552 166 
L 3552 0 
C 3706 12 3987 12 4154 12 
C 4320 12 4608 12 4762 0 
L 4762 166 
C 4352 166 4326 192 4326 443 
L 4326 1954 
z
" transform="scale(0.015625)"/>
       <path id="CMR17-63" d="M 2234 2240 
C 2112 2240 1933 2240 1933 2015 
C 1933 1836 2080 1785 2163 1785 
C 2208 1785 2394 1804 2394 2028 
C 2394 2476 1958 2816 1466 2816 
C 787 2816 211 2201 211 1379 
C 211 521 813 -64 1466 -64 
C 2259 -64 2458 676 2458 747 
C 2458 773 2451 792 2406 792 
C 2362 792 2355 786 2330 702 
C 2163 180 1798 51 1523 51 
C 1114 51 621 431 621 1385 
C 621 2358 1094 2700 1472 2700 
C 1722 2700 2093 2582 2234 2240 
z
" transform="scale(0.015625)"/>
       <path id="CMR17-73" d="M 1978 2688 
C 1978 2803 1971 2809 1933 2809 
C 1907 2809 1901 2803 1824 2707 
C 1805 2681 1747 2617 1728 2592 
C 1523 2809 1235 2816 1126 2816 
C 416 2816 160 2444 160 2073 
C 160 1497 813 1363 998 1324 
C 1402 1241 1542 1216 1677 1100 
C 1760 1024 1901 883 1901 652 
C 1901 384 1747 38 1158 38 
C 602 38 403 460 288 1024 
C 269 1113 269 1120 218 1120 
C 166 1120 160 1113 160 985 
L 160 64 
C 160 -52 166 -58 205 -58 
C 237 -58 243 -52 275 0 
C 314 57 410 211 448 275 
C 576 102 800 -64 1158 -64 
C 1792 -64 2131 281 2131 780 
C 2131 1107 1958 1280 1875 1356 
C 1683 1555 1459 1600 1190 1651 
C 838 1728 390 1817 390 2208 
C 390 2374 480 2726 1126 2726 
C 1811 2726 1850 2086 1862 1881 
C 1869 1849 1901 1843 1920 1843 
C 1978 1843 1978 1862 1978 1971 
L 1978 2688 
z
" transform="scale(0.015625)"/>
       <path id="CMR17-65" d="M 2438 1503 
C 2464 1529 2464 1542 2464 1606 
C 2464 2251 2118 2816 1389 2816 
C 710 2816 173 2175 173 1394 
C 173 554 781 -64 1459 -64 
C 2176 -64 2458 619 2458 755 
C 2458 800 2419 800 2406 800 
C 2362 800 2355 787 2330 709 
C 2189 270 1837 51 1504 51 
C 1229 51 954 206 781 490 
C 582 819 582 1200 582 1503 
L 2438 1503 
z
M 589 1600 
C 634 2511 1126 2713 1382 2713 
C 1818 2713 2112 2308 2118 1600 
L 589 1600 
z
" transform="scale(0.015625)"/>
       <path id="CMR17-70" d="M 1408 -1114 
C 998 -1114 973 -1088 973 -834 
L 973 380 
C 1158 109 1427 -64 1766 -64 
C 2406 -64 3053 503 3053 1382 
C 3053 2196 2496 2816 1837 2816 
C 1453 2816 1139 2603 960 2345 
L 960 2816 
L 198 2745 
L 198 2577 
C 576 2577 634 2539 634 2228 
L 634 -834 
C 634 -1081 608 -1114 198 -1114 
L 198 -1280 
C 352 -1268 634 -1268 800 -1268 
C 966 -1268 1254 -1268 1408 -1280 
L 1408 -1114 
z
M 973 2015 
C 973 2106 973 2241 1222 2481 
C 1254 2506 1472 2700 1792 2700 
C 2259 2700 2643 2112 2643 1376 
C 2643 639 2234 38 1728 38 
C 1498 38 1248 148 1056 451 
C 973 594 973 632 973 736 
L 973 2015 
z
" transform="scale(0.015625)"/>
       <path id="CMR17-6e" d="M 2656 1954 
C 2656 2282 2592 2816 1837 2816 
C 1331 2816 1069 2424 973 2166 
L 966 2166 
L 966 2816 
L 211 2745 
L 211 2578 
C 589 2578 646 2540 646 2231 
L 646 443 
C 646 198 621 166 211 166 
L 211 0 
C 365 12 646 12 813 12 
C 979 12 1267 12 1421 0 
L 1421 166 
C 1011 166 986 192 986 443 
L 986 1678 
C 986 2269 1344 2713 1792 2713 
C 2266 2713 2317 2289 2317 1980 
L 2317 443 
C 2317 198 2291 166 1882 166 
L 1882 0 
C 2035 12 2317 12 2483 12 
C 2650 12 2938 12 3091 0 
L 3091 166 
C 2682 166 2656 192 2656 443 
L 2656 1954 
z
" transform="scale(0.015625)"/>
       <path id="CMR17-75" d="M 1882 2745 
L 1882 2579 
C 2259 2579 2317 2540 2317 2229 
L 2317 1053 
C 2317 510 2029 38 1555 38 
C 1030 38 986 355 986 691 
L 986 2816 
L 211 2745 
L 211 2579 
C 467 2579 640 2579 646 2320 
L 646 1079 
C 646 646 646 368 813 187 
C 896 103 1056 -64 1517 -64 
C 2061 -64 2272 400 2323 536 
L 2330 536 
L 2330 -64 
L 3091 -13 
L 3091 154 
C 2714 154 2656 193 2656 503 
L 2656 2816 
L 1882 2745 
z
" transform="scale(0.015625)"/>
       <path id="CMR17-62" d="M 960 4416 
L 198 4345 
L 198 4179 
C 576 4179 634 4141 634 3843 
L 634 -13 
L 749 -13 
L 934 445 
C 1120 141 1395 -64 1766 -64 
C 2406 -64 3053 503 3053 1382 
C 3053 2209 2477 2816 1830 2816 
C 1434 2816 1152 2603 960 2351 
L 960 4416 
z
M 973 2022 
C 973 2138 973 2157 1062 2293 
C 1312 2681 1670 2713 1792 2713 
C 1984 2713 2643 2610 2643 1388 
C 2643 109 1888 38 1734 38 
C 1536 38 1248 115 1043 490 
C 973 613 973 626 973 742 
L 973 2022 
z
" transform="scale(0.015625)"/>
       <path id="CMR17-28" d="M 1958 -1562 
C 1958 -1556 1958 -1543 1939 -1524 
C 1645 -1223 858 -403 858 1596 
C 858 3595 1632 4408 1946 4729 
C 1946 4735 1958 4748 1958 4767 
C 1958 4787 1939 4800 1914 4800 
C 1843 4800 1299 4325 986 3620 
C 666 2909 576 2218 576 1603 
C 576 1141 621 360 1005 -467 
C 1312 -1133 1837 -1600 1914 -1600 
C 1946 -1600 1958 -1588 1958 -1562 
z
" transform="scale(0.015625)"/>
       <path id="CMR17-6c" d="M 979 4416 
L 218 4345 
L 218 4179 
C 595 4179 653 4141 653 3835 
L 653 439 
C 653 198 627 166 218 166 
L 218 0 
C 371 12 653 12 813 12 
C 979 12 1261 12 1414 0 
L 1414 166 
C 1005 166 979 191 979 439 
L 979 4416 
z
" transform="scale(0.015625)"/>
       <path id="CMMI12-4e" d="M 4736 3682 
C 4806 3956 4909 4147 5395 4166 
C 5414 4166 5491 4172 5491 4281 
C 5491 4352 5434 4352 5408 4352 
C 5280 4352 4954 4339 4826 4339 
L 4518 4339 
C 4429 4339 4314 4352 4224 4352 
C 4186 4352 4109 4352 4109 4230 
C 4109 4166 4160 4166 4205 4166 
C 4589 4153 4614 4007 4614 3892 
C 4614 3835 4608 3816 4589 3726 
L 3866 854 
L 2496 4243 
C 2451 4345 2445 4352 2304 4352 
L 1523 4352 
C 1395 4352 1338 4352 1338 4230 
C 1338 4166 1382 4166 1504 4166 
C 1536 4166 1914 4166 1914 4109 
C 1914 4096 1901 4045 1894 4026 
L 1043 650 
C 966 338 813 204 390 185 
C 358 185 294 179 294 64 
C 294 0 358 0 378 0 
C 506 0 832 12 960 12 
L 1267 12 
C 1357 12 1466 0 1555 0 
C 1600 0 1670 0 1670 121 
C 1670 179 1606 185 1581 185 
C 1370 191 1165 230 1165 459 
C 1165 510 1178 567 1190 618 
L 2054 4026 
C 2093 3962 2093 3949 2118 3892 
L 3642 115 
C 3674 38 3686 0 3744 0 
C 3808 0 3814 19 3840 128 
L 4736 3682 
z
" transform="scale(0.015625)"/>
       <path id="CMR17-29" d="M 1683 1596 
C 1683 2057 1638 2839 1254 3665 
C 947 4332 422 4800 346 4800 
C 326 4800 301 4793 301 4761 
C 301 4748 307 4742 314 4729 
C 621 4408 1402 3595 1402 1603 
C 1402 -396 627 -1210 314 -1530 
C 307 -1543 301 -1549 301 -1562 
C 301 -1594 326 -1600 346 -1600 
C 416 -1600 960 -1127 1274 -422 
C 1594 289 1683 981 1683 1596 
z
" transform="scale(0.015625)"/>
      </defs>
      <use xlink:href="#CMR17-4c" transform="scale(0.996264)"/>
      <use xlink:href="#CMR17-6f" transform="translate(57.381408 0) scale(0.996264)"/>
      <use xlink:href="#CMR17-67" transform="translate(103.071885 0) scale(0.996264)"/>
      <use xlink:href="#CMR17-61" transform="translate(148.762362 0) scale(0.996264)"/>
      <use xlink:href="#CMR17-72" transform="translate(194.452839 0) scale(0.996264)"/>
      <use xlink:href="#CMR17-69" transform="translate(229.733607 0) scale(0.996264)"/>
      <use xlink:href="#CMR17-74" transform="translate(254.604665 0) scale(0.996264)"/>
      <use xlink:href="#CMR17-68" transform="translate(289.885433 0) scale(0.996264)"/>
      <use xlink:href="#CMR17-6d" transform="translate(340.780803 0) scale(0.996264)"/>
      <use xlink:href="#CMR17-69" transform="translate(417.700393 0) scale(0.996264)"/>
      <use xlink:href="#CMR17-63" transform="translate(442.571451 0) scale(0.996264)"/>
      <use xlink:href="#CMR17-73" transform="translate(513.133078 0) scale(0.996264)"/>
      <use xlink:href="#CMR17-74" transform="translate(548.934416 0) scale(0.996264)"/>
      <use xlink:href="#CMR17-65" transform="translate(584.215184 0) scale(0.996264)"/>
      <use xlink:href="#CMR17-70" transform="translate(624.700844 0) scale(0.996264)"/>
      <use xlink:href="#CMR17-6e" transform="translate(705.67218 0) scale(0.996264)"/>
      <use xlink:href="#CMR17-75" transform="translate(753.965096 0) scale(0.996264)"/>
      <use xlink:href="#CMR17-6d" transform="translate(804.860466 0) scale(0.996264)"/>
      <use xlink:href="#CMR17-62" transform="translate(879.177602 0) scale(0.996264)"/>
      <use xlink:href="#CMR17-65" transform="translate(932.67541 0) scale(0.996264)"/>
      <use xlink:href="#CMR17-72" transform="translate(973.161071 0) scale(0.996264)"/>
      <use xlink:href="#CMR17-28" transform="translate(1038.517805 0) scale(0.996264)"/>
      <use xlink:href="#CMR17-6c" transform="translate(1073.798573 0) scale(0.996264)"/>
      <use xlink:href="#CMR17-67" transform="translate(1098.669631 0) scale(0.996264)"/>
      <use xlink:href="#CMR17-28" transform="translate(1145.661274 0) scale(0.996264)"/>
      <use xlink:href="#CMMI12-4e" transform="translate(1180.942042 0) scale(0.996264)"/>
      <use xlink:href="#CMR17-29" transform="translate(1269.463815 0) scale(0.996264)"/>
      <use xlink:href="#CMR17-29" transform="translate(1304.744583 0) scale(0.996264)"/>
     </g>
    </g>
   </g>
   <g id="matplotlib.axis_2">
    <g id="ytick_1">
     <g id="line2d_8">
      <defs>
       <path id="mcab8ea5584" d="M 0 0 
L -3.5 0 
" style="stroke: #000000; stroke-width: 0.8"/>
      </defs>
      <g>
       <use xlink:href="#mcab8ea5584" x="57.6" y="306.440376" style="stroke: #000000; stroke-width: 0.8"/>
      </g>
     </g>
     <g id="text_9">
      <!-- $\mathdefault{−2.0}$ -->
      <g transform="translate(30.121177 309.899625) scale(0.1 -0.1)">
       <defs>
        <path id="CMSY10-0" d="M 4218 1472 
C 4326 1472 4442 1472 4442 1600 
C 4442 1728 4326 1728 4218 1728 
L 755 1728 
C 646 1728 531 1728 531 1600 
C 531 1472 646 1472 755 1472 
L 4218 1472 
z
" transform="scale(0.015625)"/>
        <path id="CMR17-32" d="M 2669 990 
L 2554 990 
C 2490 537 2438 460 2413 422 
C 2381 371 1920 371 1830 371 
L 602 371 
C 832 620 1280 1073 1824 1596 
C 2214 1966 2669 2400 2669 3033 
C 2669 3788 2067 4224 1395 4224 
C 691 4224 262 3603 262 3027 
C 262 2777 448 2745 525 2745 
C 589 2745 781 2783 781 3007 
C 781 3206 614 3264 525 3264 
C 486 3264 448 3257 422 3244 
C 544 3788 915 4057 1306 4057 
C 1862 4057 2227 3616 2227 3033 
C 2227 2477 1901 1998 1536 1583 
L 262 147 
L 262 0 
L 2515 0 
L 2669 990 
z
" transform="scale(0.015625)"/>
       </defs>
       <use xlink:href="#CMSY10-0" transform="scale(0.996264)"/>
       <use xlink:href="#CMR17-32" transform="translate(77.487468 0) scale(0.996264)"/>
       <use xlink:href="#CMMI12-3a" transform="translate(123.177945 0) scale(0.996264)"/>
       <use xlink:href="#CMR17-30" transform="translate(150.275122 0) scale(0.996264)"/>
      </g>
     </g>
    </g>
    <g id="ytick_2">
     <g id="line2d_9">
      <g>
       <use xlink:href="#mcab8ea5584" x="57.6" y="253.802926" style="stroke: #000000; stroke-width: 0.8"/>
      </g>
     </g>
     <g id="text_10">
      <!-- $\mathdefault{−1.5}$ -->
      <g transform="translate(30.121177 257.262176) scale(0.1 -0.1)">
       <defs>
        <path id="CMR17-31" d="M 1702 4083 
C 1702 4217 1696 4224 1606 4224 
C 1357 3927 979 3833 621 3820 
C 602 3820 570 3820 563 3808 
C 557 3795 557 3782 557 3648 
C 755 3648 1088 3686 1344 3839 
L 1344 467 
C 1344 243 1331 166 781 166 
L 589 166 
L 589 0 
C 896 6 1216 12 1523 12 
C 1830 12 2150 6 2458 0 
L 2458 166 
L 2266 166 
C 1715 166 1702 236 1702 467 
L 1702 4083 
z
" transform="scale(0.015625)"/>
       </defs>
       <use xlink:href="#CMSY10-0" transform="scale(0.996264)"/>
       <use xlink:href="#CMR17-31" transform="translate(77.487468 0) scale(0.996264)"/>
       <use xlink:href="#CMMI12-3a" transform="translate(123.177945 0) scale(0.996264)"/>
       <use xlink:href="#CMR17-35" transform="translate(150.275122 0) scale(0.996264)"/>
      </g>
     </g>
    </g>
    <g id="ytick_3">
     <g id="line2d_10">
      <g>
       <use xlink:href="#mcab8ea5584" x="57.6" y="201.165477" style="stroke: #000000; stroke-width: 0.8"/>
      </g>
     </g>
     <g id="text_11">
      <!-- $\mathdefault{−1.0}$ -->
      <g transform="translate(30.121177 204.624726) scale(0.1 -0.1)">
       <use xlink:href="#CMSY10-0" transform="scale(0.996264)"/>
       <use xlink:href="#CMR17-31" transform="translate(77.487468 0) scale(0.996264)"/>
       <use xlink:href="#CMMI12-3a" transform="translate(123.177945 0) scale(0.996264)"/>
       <use xlink:href="#CMR17-30" transform="translate(150.275122 0) scale(0.996264)"/>
      </g>
     </g>
    </g>
    <g id="ytick_4">
     <g id="line2d_11">
      <g>
       <use xlink:href="#mcab8ea5584" x="57.6" y="148.528028" style="stroke: #000000; stroke-width: 0.8"/>
      </g>
     </g>
     <g id="text_12">
      <!-- $\mathdefault{−0.5}$ -->
      <g transform="translate(30.121177 151.987277) scale(0.1 -0.1)">
       <use xlink:href="#CMSY10-0" transform="scale(0.996264)"/>
       <use xlink:href="#CMR17-30" transform="translate(77.487468 0) scale(0.996264)"/>
       <use xlink:href="#CMMI12-3a" transform="translate(123.177945 0) scale(0.996264)"/>
       <use xlink:href="#CMR17-35" transform="translate(150.275122 0) scale(0.996264)"/>
      </g>
     </g>
    </g>
    <g id="ytick_5">
     <g id="line2d_12">
      <g>
       <use xlink:href="#mcab8ea5584" x="57.6" y="95.890579" style="stroke: #000000; stroke-width: 0.8"/>
      </g>
     </g>
     <g id="text_13">
      <!-- $\mathdefault{0.0}$ -->
      <g transform="translate(37.869921 99.349828) scale(0.1 -0.1)">
       <use xlink:href="#CMR17-30" transform="scale(0.996264)"/>
       <use xlink:href="#CMMI12-3a" transform="translate(45.690477 0) scale(0.996264)"/>
       <use xlink:href="#CMR17-30" transform="translate(72.787654 0) scale(0.996264)"/>
      </g>
     </g>
    </g>
    <g id="ytick_6">
     <g id="line2d_13">
      <g>
       <use xlink:href="#mcab8ea5584" x="57.6" y="43.253129" style="stroke: #000000; stroke-width: 0.8"/>
      </g>
     </g>
     <g id="text_14">
      <!-- $\mathdefault{0.5}$ -->
      <g transform="translate(37.869921 46.712379) scale(0.1 -0.1)">
       <use xlink:href="#CMR17-30" transform="scale(0.996264)"/>
       <use xlink:href="#CMMI12-3a" transform="translate(45.690477 0) scale(0.996264)"/>
       <use xlink:href="#CMR17-35" transform="translate(72.787654 0) scale(0.996264)"/>
      </g>
     </g>
    </g>
    <g id="text_15">
     <!-- Logarithmic error ($\lg(\epsilon)$) -->
     <g transform="translate(23.630517 228.494137) rotate(-90) scale(0.1 -0.1)">
      <defs>
       <path id="CMMI12-f" d="M 1862 1472 
C 1958 1472 2067 1472 2067 1574 
C 2067 1657 2003 1657 1888 1657 
L 851 1657 
C 1011 2224 1389 2566 1958 2566 
L 2144 2566 
C 2253 2566 2349 2566 2349 2668 
C 2349 2752 2278 2752 2163 2752 
L 1946 2752 
C 1158 2752 294 2136 294 1141 
C 294 420 774 -64 1408 -64 
C 1818 -64 2221 193 2221 258 
C 2221 297 2202 336 2163 336 
C 2144 336 2131 330 2099 304 
C 1856 141 1619 64 1427 64 
C 1088 64 730 291 730 920 
C 730 1043 742 1212 800 1472 
L 1862 1472 
z
" transform="scale(0.015625)"/>
      </defs>
      <use xlink:href="#CMR17-4c" transform="scale(0.996264)"/>
      <use xlink:href="#CMR17-6f" transform="translate(57.381408 0) scale(0.996264)"/>
      <use xlink:href="#CMR17-67" transform="translate(103.071885 0) scale(0.996264)"/>
      <use xlink:href="#CMR17-61" transform="translate(148.762362 0) scale(0.996264)"/>
      <use xlink:href="#CMR17-72" transform="translate(194.452839 0) scale(0.996264)"/>
      <use xlink:href="#CMR17-69" transform="translate(229.733607 0) scale(0.996264)"/>
      <use xlink:href="#CMR17-74" transform="translate(254.604665 0) scale(0.996264)"/>
      <use xlink:href="#CMR17-68" transform="translate(289.885433 0) scale(0.996264)"/>
      <use xlink:href="#CMR17-6d" transform="translate(340.780803 0) scale(0.996264)"/>
      <use xlink:href="#CMR17-69" transform="translate(417.700393 0) scale(0.996264)"/>
      <use xlink:href="#CMR17-63" transform="translate(442.571451 0) scale(0.996264)"/>
      <use xlink:href="#CMR17-65" transform="translate(513.133078 0) scale(0.996264)"/>
      <use xlink:href="#CMR17-72" transform="translate(553.618739 0) scale(0.996264)"/>
      <use xlink:href="#CMR17-72" transform="translate(588.899506 0) scale(0.996264)"/>
      <use xlink:href="#CMR17-6f" transform="translate(624.180274 0) scale(0.996264)"/>
      <use xlink:href="#CMR17-72" transform="translate(669.870751 0) scale(0.996264)"/>
      <use xlink:href="#CMR17-28" transform="translate(735.227486 0) scale(0.996264)"/>
      <use xlink:href="#CMR17-6c" transform="translate(770.508253 0) scale(0.996264)"/>
      <use xlink:href="#CMR17-67" transform="translate(795.379312 0) scale(0.996264)"/>
      <use xlink:href="#CMR17-28" transform="translate(842.370955 0) scale(0.996264)"/>
      <use xlink:href="#CMMI12-f" transform="translate(877.651723 0) scale(0.996264)"/>
      <use xlink:href="#CMR17-29" transform="translate(917.040681 0) scale(0.996264)"/>
      <use xlink:href="#CMR17-29" transform="translate(952.321449 0) scale(0.996264)"/>
     </g>
    </g>
   </g>
   <g id="line2d_14">
    <path d="M 73.832727 106.157518 
L 77.112066 107.677787 
L 80.391405 109.198057 
L 83.670744 110.718326 
L 86.950083 112.238595 
L 90.229421 113.758864 
L 93.50876 115.279133 
L 96.788099 116.799403 
L 100.067438 118.319672 
L 103.346777 119.839941 
L 106.626116 121.36021 
L 109.905455 122.880479 
L 113.184793 124.400749 
L 116.464132 125.921018 
L 119.743471 127.441287 
L 123.02281 128.961556 
L 126.302149 130.481825 
L 129.581488 132.002095 
L 132.860826 133.522364 
L 136.140165 135.042633 
L 139.419504 136.562902 
L 142.698843 138.083171 
L 145.978182 139.603441 
L 149.257521 141.12371 
L 152.53686 142.643979 
L 155.816198 144.164248 
L 159.095537 145.684517 
L 162.374876 147.204787 
L 165.654215 148.725056 
L 168.933554 150.245325 
L 172.212893 151.765594 
L 175.492231 153.285863 
L 178.77157 154.806133 
L 182.050909 156.326402 
L 185.330248 157.846671 
L 188.609587 159.36694 
L 191.888926 160.887209 
L 195.168264 162.407479 
L 198.447603 163.927748 
L 201.726942 165.448017 
L 205.006281 166.968286 
L 208.28562 168.488555 
L 211.564959 170.008825 
L 214.844298 171.529094 
L 218.123636 173.049363 
L 221.402975 174.569632 
L 224.682314 176.089901 
L 227.961653 177.61017 
L 231.240992 179.13044 
L 234.520331 180.650709 
L 237.799669 182.170978 
L 241.079008 183.691247 
L 244.358347 185.211516 
L 247.637686 186.731786 
L 250.917025 188.252055 
L 254.196364 189.772324 
L 257.475702 191.292593 
L 260.755041 192.812862 
L 264.03438 194.333132 
L 267.313719 195.853401 
L 270.593058 197.37367 
L 273.872397 198.893939 
L 277.151736 200.414208 
L 280.431074 201.934478 
L 283.710413 203.454747 
L 286.989752 204.975016 
L 290.269091 206.495285 
L 293.54843 208.015554 
L 296.827769 209.535824 
L 300.107107 211.056093 
L 303.386446 212.576362 
L 306.665785 214.096631 
L 309.945124 215.6169 
L 313.224463 217.13717 
L 316.503802 218.657439 
L 319.78314 220.177708 
L 323.062479 221.697977 
L 326.341818 223.218246 
L 329.621157 224.738516 
L 332.900496 226.258785 
L 336.179835 227.779054 
L 339.459174 229.299323 
L 342.738512 230.819592 
L 346.017851 232.339862 
L 349.29719 233.860131 
L 352.576529 235.3804 
L 355.855868 236.900669 
L 359.135207 238.420938 
L 362.414545 239.941208 
L 365.693884 241.461477 
L 368.973223 242.981746 
L 372.252562 244.502015 
L 375.531901 246.022284 
L 378.81124 247.542553 
L 382.090579 249.062823 
L 385.369917 250.583092 
L 388.649256 252.103361 
L 391.928595 253.62363 
L 395.207934 255.143899 
L 398.487273 256.664169 
" clip-path="url(#p54f6986286)" style="fill: none; stroke: #1f77b4; stroke-width: 1.5; stroke-linecap: square"/>
   </g>
   <g id="line2d_15">
    <path d="M 73.832727 124.897722 
L 77.112066 126.599924 
L 80.391405 128.302125 
L 83.670744 130.004326 
L 86.950083 131.706528 
L 90.229421 133.408729 
L 93.50876 135.11093 
L 96.788099 136.813132 
L 100.067438 138.515333 
L 103.346777 140.217534 
L 106.626116 141.919736 
L 109.905455 143.621937 
L 113.184793 145.324138 
L 116.464132 147.026339 
L 119.743471 148.728541 
L 123.02281 150.430742 
L 126.302149 152.132943 
L 129.581488 153.835145 
L 132.860826 155.537346 
L 136.140165 157.239547 
L 139.419504 158.941749 
L 142.698843 160.64395 
L 145.978182 162.346151 
L 149.257521 164.048352 
L 152.53686 165.750554 
L 155.816198 167.452755 
L 159.095537 169.154956 
L 162.374876 170.857158 
L 165.654215 172.559359 
L 168.933554 174.26156 
L 172.212893 175.963762 
L 175.492231 177.665963 
L 178.77157 179.368164 
L 182.050909 181.070366 
L 185.330248 182.772567 
L 188.609587 184.474768 
L 191.888926 186.176969 
L 195.168264 187.879171 
L 198.447603 189.581372 
L 201.726942 191.283573 
L 205.006281 192.985775 
L 208.28562 194.687976 
L 211.564959 196.390177 
L 214.844298 198.092379 
L 218.123636 199.79458 
L 221.402975 201.496781 
L 224.682314 203.198982 
L 227.961653 204.901184 
L 231.240992 206.603385 
L 234.520331 208.305586 
L 237.799669 210.007788 
L 241.079008 211.709989 
L 244.358347 213.41219 
L 247.637686 215.114392 
L 250.917025 216.816593 
L 254.196364 218.518794 
L 257.475702 220.220996 
L 260.755041 221.923197 
L 264.03438 223.625398 
L 267.313719 225.327599 
L 270.593058 227.029801 
L 273.872397 228.732002 
L 277.151736 230.434203 
L 280.431074 232.136405 
L 283.710413 233.838606 
L 286.989752 235.540807 
L 290.269091 237.243009 
L 293.54843 238.94521 
L 296.827769 240.647411 
L 300.107107 242.349612 
L 303.386446 244.051814 
L 306.665785 245.754015 
L 309.945124 247.456216 
L 313.224463 249.158418 
L 316.503802 250.860619 
L 319.78314 252.56282 
L 323.062479 254.265022 
L 326.341818 255.967223 
L 329.621157 257.669424 
L 332.900496 259.371626 
L 336.179835 261.073827 
L 339.459174 262.776028 
L 342.738512 264.478229 
L 346.017851 266.180431 
L 349.29719 267.882632 
L 352.576529 269.584833 
L 355.855868 271.287035 
L 359.135207 272.989236 
L 362.414545 274.691437 
L 365.693884 276.393639 
L 368.973223 278.09584 
L 372.252562 279.798041 
L 375.531901 281.500242 
L 378.81124 283.202444 
L 382.090579 284.904645 
L 385.369917 286.606846 
L 388.649256 288.309048 
L 391.928595 290.011249 
L 395.207934 291.71345 
L 398.487273 293.415652 
" clip-path="url(#p54f6986286)" style="fill: none; stroke-dasharray: 5.55,2.4; stroke-dashoffset: 0; stroke: #1f77b4; stroke-width: 1.5"/>
   </g>
   <g id="line2d_16">
    <path d="M 73.832727 65.566629 
L 77.112066 67.091643 
L 80.391405 68.616657 
L 83.670744 70.141671 
L 86.950083 71.666685 
L 90.229421 73.191699 
L 93.50876 74.716713 
L 96.788099 76.241726 
L 100.067438 77.76674 
L 103.346777 79.291754 
L 106.626116 80.816768 
L 109.905455 82.341782 
L 113.184793 83.866796 
L 116.464132 85.39181 
L 119.743471 86.916824 
L 123.02281 88.441838 
L 126.302149 89.966852 
L 129.581488 91.491866 
L 132.860826 93.01688 
L 136.140165 94.541894 
L 139.419504 96.066907 
L 142.698843 97.591921 
L 145.978182 99.116935 
L 149.257521 100.641949 
L 152.53686 102.166963 
L 155.816198 103.691977 
L 159.095537 105.216991 
L 162.374876 106.742005 
L 165.654215 108.267019 
L 168.933554 109.792033 
L 172.212893 111.317047 
L 175.492231 112.842061 
L 178.77157 114.367075 
L 182.050909 115.892089 
L 185.330248 117.417102 
L 188.609587 118.942116 
L 191.888926 120.46713 
L 195.168264 121.992144 
L 198.447603 123.517158 
L 201.726942 125.042172 
L 205.006281 126.567186 
L 208.28562 128.0922 
L 211.564959 129.617214 
L 214.844298 131.142228 
L 218.123636 132.667242 
L 221.402975 134.192256 
L 224.682314 135.71727 
L 227.961653 137.242283 
L 231.240992 138.767297 
L 234.520331 140.292311 
L 237.799669 141.817325 
L 241.079008 143.342339 
L 244.358347 144.867353 
L 247.637686 146.392367 
L 250.917025 147.917381 
L 254.196364 149.442395 
L 257.475702 150.967409 
L 260.755041 152.492423 
L 264.03438 154.017437 
L 267.313719 155.542451 
L 270.593058 157.067465 
L 273.872397 158.592478 
L 277.151736 160.117492 
L 280.431074 161.642506 
L 283.710413 163.16752 
L 286.989752 164.692534 
L 290.269091 166.217548 
L 293.54843 167.742562 
L 296.827769 169.267576 
L 300.107107 170.79259 
L 303.386446 172.317604 
L 306.665785 173.842618 
L 309.945124 175.367632 
L 313.224463 176.892646 
L 316.503802 178.417659 
L 319.78314 179.942673 
L 323.062479 181.467687 
L 326.341818 182.992701 
L 329.621157 184.517715 
L 332.900496 186.042729 
L 336.179835 187.567743 
L 339.459174 189.092757 
L 342.738512 190.617771 
L 346.017851 192.142785 
L 349.29719 193.667799 
L 352.576529 195.192813 
L 355.855868 196.717827 
L 359.135207 198.242841 
L 362.414545 199.767854 
L 365.693884 201.292868 
L 368.973223 202.817882 
L 372.252562 204.342896 
L 375.531901 205.86791 
L 378.81124 207.392924 
L 382.090579 208.917938 
L 385.369917 210.442952 
L 388.649256 211.967966 
L 391.928595 213.49298 
L 395.207934 215.017994 
L 398.487273 216.543008 
" clip-path="url(#p54f6986286)" style="fill: none; stroke: #ff7f0e; stroke-width: 1.5; stroke-linecap: square"/>
   </g>
   <g id="line2d_17">
    <path d="M 73.832727 81.304823 
L 77.112066 82.953525 
L 80.391405 84.602228 
L 83.670744 86.250931 
L 86.950083 87.899633 
L 90.229421 89.548336 
L 93.50876 91.197038 
L 96.788099 92.845741 
L 100.067438 94.494444 
L 103.346777 96.143146 
L 106.626116 97.791849 
L 109.905455 99.440552 
L 113.184793 101.089254 
L 116.464132 102.737957 
L 119.743471 104.38666 
L 123.02281 106.035362 
L 126.302149 107.684065 
L 129.581488 109.332768 
L 132.860826 110.98147 
L 136.140165 112.630173 
L 139.419504 114.278876 
L 142.698843 115.927578 
L 145.978182 117.576281 
L 149.257521 119.224983 
L 152.53686 120.873686 
L 155.816198 122.522389 
L 159.095537 124.171091 
L 162.374876 125.819794 
L 165.654215 127.468497 
L 168.933554 129.117199 
L 172.212893 130.765902 
L 175.492231 132.414605 
L 178.77157 134.063307 
L 182.050909 135.71201 
L 185.330248 137.360713 
L 188.609587 139.009415 
L 191.888926 140.658118 
L 195.168264 142.306821 
L 198.447603 143.955523 
L 201.726942 145.604226 
L 205.006281 147.252929 
L 208.28562 148.901631 
L 211.564959 150.550334 
L 214.844298 152.199036 
L 218.123636 153.847739 
L 221.402975 155.496442 
L 224.682314 157.145144 
L 227.961653 158.793847 
L 231.240992 160.44255 
L 234.520331 162.091252 
L 237.799669 163.739955 
L 241.079008 165.388658 
L 244.358347 167.03736 
L 247.637686 168.686063 
L 250.917025 170.334766 
L 254.196364 171.983468 
L 257.475702 173.632171 
L 260.755041 175.280874 
L 264.03438 176.929576 
L 267.313719 178.578279 
L 270.593058 180.226981 
L 273.872397 181.875684 
L 277.151736 183.524387 
L 280.431074 185.173089 
L 283.710413 186.821792 
L 286.989752 188.470495 
L 290.269091 190.119197 
L 293.54843 191.7679 
L 296.827769 193.416603 
L 300.107107 195.065305 
L 303.386446 196.714008 
L 306.665785 198.362711 
L 309.945124 200.011413 
L 313.224463 201.660116 
L 316.503802 203.308819 
L 319.78314 204.957521 
L 323.062479 206.606224 
L 326.341818 208.254926 
L 329.621157 209.903629 
L 332.900496 211.552332 
L 336.179835 213.201034 
L 339.459174 214.849737 
L 342.738512 216.49844 
L 346.017851 218.147142 
L 349.29719 219.795845 
L 352.576529 221.444548 
L 355.855868 223.09325 
L 359.135207 224.741953 
L 362.414545 226.390656 
L 365.693884 228.039358 
L 368.973223 229.688061 
L 372.252562 231.336764 
L 375.531901 232.985466 
L 378.81124 234.634169 
L 382.090579 236.282871 
L 385.369917 237.931574 
L 388.649256 239.580277 
L 391.928595 241.228979 
L 395.207934 242.877682 
L 398.487273 244.526385 
" clip-path="url(#p54f6986286)" style="fill: none; stroke-dasharray: 5.55,2.4; stroke-dashoffset: 0; stroke: #ff7f0e; stroke-width: 1.5"/>
   </g>
   <g id="line2d_18">
    <path d="M 73.832727 56.281567 
L 77.112066 57.472635 
L 80.391405 58.663703 
L 83.670744 59.854771 
L 86.950083 61.045839 
L 90.229421 62.236907 
L 93.50876 63.427975 
L 96.788099 64.619043 
L 100.067438 65.810111 
L 103.346777 67.001179 
L 106.626116 68.192247 
L 109.905455 69.383315 
L 113.184793 70.574383 
L 116.464132 71.76545 
L 119.743471 72.956518 
L 123.02281 74.147586 
L 126.302149 75.338654 
L 129.581488 76.529722 
L 132.860826 77.72079 
L 136.140165 78.911858 
L 139.419504 80.102926 
L 142.698843 81.293994 
L 145.978182 82.485062 
L 149.257521 83.67613 
L 152.53686 84.867198 
L 155.816198 86.058266 
L 159.095537 87.249334 
L 162.374876 88.440401 
L 165.654215 89.631469 
L 168.933554 90.822537 
L 172.212893 92.013605 
L 175.492231 93.204673 
L 178.77157 94.395741 
L 182.050909 95.586809 
L 185.330248 96.777877 
L 188.609587 97.968945 
L 191.888926 99.160013 
L 195.168264 100.351081 
L 198.447603 101.542149 
L 201.726942 102.733217 
L 205.006281 103.924285 
L 208.28562 105.115352 
L 211.564959 106.30642 
L 214.844298 107.497488 
L 218.123636 108.688556 
L 221.402975 109.879624 
L 224.682314 111.070692 
L 227.961653 112.26176 
L 231.240992 113.452828 
L 234.520331 114.643896 
L 237.799669 115.834964 
L 241.079008 117.026032 
L 244.358347 118.2171 
L 247.637686 119.408168 
L 250.917025 120.599235 
L 254.196364 121.790303 
L 257.475702 122.981371 
L 260.755041 124.172439 
L 264.03438 125.363507 
L 267.313719 126.554575 
L 270.593058 127.745643 
L 273.872397 128.936711 
L 277.151736 130.127779 
L 280.431074 131.318847 
L 283.710413 132.509915 
L 286.989752 133.700983 
L 290.269091 134.892051 
L 293.54843 136.083119 
L 296.827769 137.274186 
L 300.107107 138.465254 
L 303.386446 139.656322 
L 306.665785 140.84739 
L 309.945124 142.038458 
L 313.224463 143.229526 
L 316.503802 144.420594 
L 319.78314 145.611662 
L 323.062479 146.80273 
L 326.341818 147.993798 
L 329.621157 149.184866 
L 332.900496 150.375934 
L 336.179835 151.567002 
L 339.459174 152.75807 
L 342.738512 153.949137 
L 346.017851 155.140205 
L 349.29719 156.331273 
L 352.576529 157.522341 
L 355.855868 158.713409 
L 359.135207 159.904477 
L 362.414545 161.095545 
L 365.693884 162.286613 
L 368.973223 163.477681 
L 372.252562 164.668749 
L 375.531901 165.859817 
L 378.81124 167.050885 
L 382.090579 168.241953 
L 385.369917 169.433021 
L 388.649256 170.624088 
L 391.928595 171.815156 
L 395.207934 173.006224 
L 398.487273 174.197292 
" clip-path="url(#p54f6986286)" style="fill: none; stroke: #2ca02c; stroke-width: 1.5; stroke-linecap: square"/>
   </g>
   <g id="line2d_19">
    <path d="M 73.832727 73.50927 
L 77.112066 74.90648 
L 80.391405 76.303691 
L 83.670744 77.700901 
L 86.950083 79.098111 
L 90.229421 80.495321 
L 93.50876 81.892532 
L 96.788099 83.289742 
L 100.067438 84.686952 
L 103.346777 86.084163 
L 106.626116 87.481373 
L 109.905455 88.878583 
L 113.184793 90.275793 
L 116.464132 91.673004 
L 119.743471 93.070214 
L 123.02281 94.467424 
L 126.302149 95.864635 
L 129.581488 97.261845 
L 132.860826 98.659055 
L 136.140165 100.056265 
L 139.419504 101.453476 
L 142.698843 102.850686 
L 145.978182 104.247896 
L 149.257521 105.645106 
L 152.53686 107.042317 
L 155.816198 108.439527 
L 159.095537 109.836737 
L 162.374876 111.233948 
L 165.654215 112.631158 
L 168.933554 114.028368 
L 172.212893 115.425578 
L 175.492231 116.822789 
L 178.77157 118.219999 
L 182.050909 119.617209 
L 185.330248 121.014419 
L 188.609587 122.41163 
L 191.888926 123.80884 
L 195.168264 125.20605 
L 198.447603 126.603261 
L 201.726942 128.000471 
L 205.006281 129.397681 
L 208.28562 130.794891 
L 211.564959 132.192102 
L 214.844298 133.589312 
L 218.123636 134.986522 
L 221.402975 136.383732 
L 224.682314 137.780943 
L 227.961653 139.178153 
L 231.240992 140.575363 
L 234.520331 141.972574 
L 237.799669 143.369784 
L 241.079008 144.766994 
L 244.358347 146.164204 
L 247.637686 147.561415 
L 250.917025 148.958625 
L 254.196364 150.355835 
L 257.475702 151.753046 
L 260.755041 153.150256 
L 264.03438 154.547466 
L 267.313719 155.944676 
L 270.593058 157.341887 
L 273.872397 158.739097 
L 277.151736 160.136307 
L 280.431074 161.533517 
L 283.710413 162.930728 
L 286.989752 164.327938 
L 290.269091 165.725148 
L 293.54843 167.122359 
L 296.827769 168.519569 
L 300.107107 169.916779 
L 303.386446 171.313989 
L 306.665785 172.7112 
L 309.945124 174.10841 
L 313.224463 175.50562 
L 316.503802 176.90283 
L 319.78314 178.300041 
L 323.062479 179.697251 
L 326.341818 181.094461 
L 329.621157 182.491672 
L 332.900496 183.888882 
L 336.179835 185.286092 
L 339.459174 186.683302 
L 342.738512 188.080513 
L 346.017851 189.477723 
L 349.29719 190.874933 
L 352.576529 192.272144 
L 355.855868 193.669354 
L 359.135207 195.066564 
L 362.414545 196.463774 
L 365.693884 197.860985 
L 368.973223 199.258195 
L 372.252562 200.655405 
L 375.531901 202.052615 
L 378.81124 203.449826 
L 382.090579 204.847036 
L 385.369917 206.244246 
L 388.649256 207.641457 
L 391.928595 209.038667 
L 395.207934 210.435877 
L 398.487273 211.833087 
" clip-path="url(#p54f6986286)" style="fill: none; stroke-dasharray: 5.55,2.4; stroke-dashoffset: 0; stroke: #2ca02c; stroke-width: 1.5"/>
   </g>
   <g id="line2d_20">
    <path d="M 73.832727 53.568 
L 77.112066 54.542876 
L 80.391405 55.517752 
L 83.670744 56.492628 
L 86.950083 57.467504 
L 90.229421 58.44238 
L 93.50876 59.417256 
L 96.788099 60.392132 
L 100.067438 61.367008 
L 103.346777 62.341884 
L 106.626116 63.31676 
L 109.905455 64.291636 
L 113.184793 65.266512 
L 116.464132 66.241388 
L 119.743471 67.216264 
L 123.02281 68.19114 
L 126.302149 69.166015 
L 129.581488 70.140891 
L 132.860826 71.115767 
L 136.140165 72.090643 
L 139.419504 73.065519 
L 142.698843 74.040395 
L 145.978182 75.015271 
L 149.257521 75.990147 
L 152.53686 76.965023 
L 155.816198 77.939899 
L 159.095537 78.914775 
L 162.374876 79.889651 
L 165.654215 80.864527 
L 168.933554 81.839403 
L 172.212893 82.814279 
L 175.492231 83.789155 
L 178.77157 84.764031 
L 182.050909 85.738907 
L 185.330248 86.713783 
L 188.609587 87.688659 
L 191.888926 88.663535 
L 195.168264 89.638411 
L 198.447603 90.613287 
L 201.726942 91.588163 
L 205.006281 92.563039 
L 208.28562 93.537915 
L 211.564959 94.512791 
L 214.844298 95.487667 
L 218.123636 96.462543 
L 221.402975 97.437419 
L 224.682314 98.412294 
L 227.961653 99.38717 
L 231.240992 100.362046 
L 234.520331 101.336922 
L 237.799669 102.311798 
L 241.079008 103.286674 
L 244.358347 104.26155 
L 247.637686 105.236426 
L 250.917025 106.211302 
L 254.196364 107.186178 
L 257.475702 108.161054 
L 260.755041 109.13593 
L 264.03438 110.110806 
L 267.313719 111.085682 
L 270.593058 112.060558 
L 273.872397 113.035434 
L 277.151736 114.01031 
L 280.431074 114.985186 
L 283.710413 115.960062 
L 286.989752 116.934938 
L 290.269091 117.909814 
L 293.54843 118.88469 
L 296.827769 119.859566 
L 300.107107 120.834442 
L 303.386446 121.809318 
L 306.665785 122.784194 
L 309.945124 123.75907 
L 313.224463 124.733946 
L 316.503802 125.708822 
L 319.78314 126.683698 
L 323.062479 127.658574 
L 326.341818 128.633449 
L 329.621157 129.608325 
L 332.900496 130.583201 
L 336.179835 131.558077 
L 339.459174 132.532953 
L 342.738512 133.507829 
L 346.017851 134.482705 
L 349.29719 135.457581 
L 352.576529 136.432457 
L 355.855868 137.407333 
L 359.135207 138.382209 
L 362.414545 139.357085 
L 365.693884 140.331961 
L 368.973223 141.306837 
L 372.252562 142.281713 
L 375.531901 143.256589 
L 378.81124 144.231465 
L 382.090579 145.206341 
L 385.369917 146.181217 
L 388.649256 147.156093 
L 391.928595 148.130969 
L 395.207934 149.105845 
L 398.487273 150.080721 
" clip-path="url(#p54f6986286)" style="fill: none; stroke: #d62728; stroke-width: 1.5; stroke-linecap: square"/>
   </g>
   <g id="line2d_21">
    <path d="M 73.832727 54.221126 
L 77.112066 55.196541 
L 80.391405 56.171956 
L 83.670744 57.147372 
L 86.950083 58.122787 
L 90.229421 59.098202 
L 93.50876 60.073618 
L 96.788099 61.049033 
L 100.067438 62.024448 
L 103.346777 62.999864 
L 106.626116 63.975279 
L 109.905455 64.950694 
L 113.184793 65.92611 
L 116.464132 66.901525 
L 119.743471 67.876941 
L 123.02281 68.852356 
L 126.302149 69.827771 
L 129.581488 70.803187 
L 132.860826 71.778602 
L 136.140165 72.754017 
L 139.419504 73.729433 
L 142.698843 74.704848 
L 145.978182 75.680263 
L 149.257521 76.655679 
L 152.53686 77.631094 
L 155.816198 78.60651 
L 159.095537 79.581925 
L 162.374876 80.55734 
L 165.654215 81.532756 
L 168.933554 82.508171 
L 172.212893 83.483586 
L 175.492231 84.459002 
L 178.77157 85.434417 
L 182.050909 86.409832 
L 185.330248 87.385248 
L 188.609587 88.360663 
L 191.888926 89.336079 
L 195.168264 90.311494 
L 198.447603 91.286909 
L 201.726942 92.262325 
L 205.006281 93.23774 
L 208.28562 94.213155 
L 211.564959 95.188571 
L 214.844298 96.163986 
L 218.123636 97.139401 
L 221.402975 98.114817 
L 224.682314 99.090232 
L 227.961653 100.065648 
L 231.240992 101.041063 
L 234.520331 102.016478 
L 237.799669 102.991894 
L 241.079008 103.967309 
L 244.358347 104.942724 
L 247.637686 105.91814 
L 250.917025 106.893555 
L 254.196364 107.86897 
L 257.475702 108.844386 
L 260.755041 109.819801 
L 264.03438 110.795216 
L 267.313719 111.770632 
L 270.593058 112.746047 
L 273.872397 113.721463 
L 277.151736 114.696878 
L 280.431074 115.672293 
L 283.710413 116.647709 
L 286.989752 117.623124 
L 290.269091 118.598539 
L 293.54843 119.573955 
L 296.827769 120.54937 
L 300.107107 121.524785 
L 303.386446 122.500201 
L 306.665785 123.475616 
L 309.945124 124.451032 
L 313.224463 125.426447 
L 316.503802 126.401862 
L 319.78314 127.377278 
L 323.062479 128.352693 
L 326.341818 129.328108 
L 329.621157 130.303524 
L 332.900496 131.278939 
L 336.179835 132.254354 
L 339.459174 133.22977 
L 342.738512 134.205185 
L 346.017851 135.180601 
L 349.29719 136.156016 
L 352.576529 137.131431 
L 355.855868 138.106847 
L 359.135207 139.082262 
L 362.414545 140.057677 
L 365.693884 141.033093 
L 368.973223 142.008508 
L 372.252562 142.983923 
L 375.531901 143.959339 
L 378.81124 144.934754 
L 382.090579 145.91017 
L 385.369917 146.885585 
L 388.649256 147.861 
L 391.928595 148.836416 
L 395.207934 149.811831 
L 398.487273 150.787246 
" clip-path="url(#p54f6986286)" style="fill: none; stroke-dasharray: 5.55,2.4; stroke-dashoffset: 0; stroke: #d62728; stroke-width: 1.5"/>
   </g>
   <g id="patch_3">
    <path d="M 57.6 307.584 
L 57.6 41.472 
" style="fill: none; stroke: #000000; stroke-width: 0.8; stroke-linejoin: miter; stroke-linecap: square"/>
   </g>
   <g id="patch_4">
    <path d="M 414.72 307.584 
L 414.72 41.472 
" style="fill: none; stroke: #000000; stroke-width: 0.8; stroke-linejoin: miter; stroke-linecap: square"/>
   </g>
   <g id="patch_5">
    <path d="M 57.6 307.584 
L 414.72 307.584 
" style="fill: none; stroke: #000000; stroke-width: 0.8; stroke-linejoin: miter; stroke-linecap: square"/>
   </g>
   <g id="patch_6">
    <path d="M 57.6 41.472 
L 414.72 41.472 
" style="fill: none; stroke: #000000; stroke-width: 0.8; stroke-linejoin: miter; stroke-linecap: square"/>
   </g>
   <g id="text_16">
    <!-- qDRFIT error: full Hilbert space vs. low-energy subspace -->
    <g transform="translate(88.167889 35.472) scale(0.12 -0.12)">
     <defs>
      <path id="CMR17-71" d="M 2630 2816 
L 2528 2816 
L 2336 2177 
C 2189 2519 1920 2816 1491 2816 
C 838 2816 211 2228 211 1376 
C 211 529 800 -64 1440 -64 
C 1933 -64 2208 316 2291 458 
L 2291 -834 
C 2291 -1081 2266 -1114 1856 -1114 
L 1856 -1280 
C 2010 -1268 2291 -1268 2458 -1268 
C 2624 -1268 2912 -1268 3066 -1280 
L 3066 -1114 
C 2656 -1114 2630 -1088 2630 -834 
L 2630 2816 
z
M 2304 871 
C 2304 594 2074 335 2054 316 
C 1856 90 1626 38 1472 38 
C 992 38 621 652 621 1369 
C 621 2125 1043 2700 1536 2700 
C 2048 2700 2304 2112 2304 1776 
L 2304 871 
z
" transform="scale(0.015625)"/>
      <path id="CMR17-44" d="M 333 4352 
L 333 4185 
C 774 4185 845 4185 845 3898 
L 845 453 
C 845 166 774 166 333 166 
L 333 0 
L 2368 0 
C 3398 0 4224 943 4224 2140 
C 4224 3344 3411 4352 2368 4352 
L 333 4352 
z
M 1523 166 
C 1267 166 1254 198 1254 414 
L 1254 3936 
C 1254 4153 1267 4185 1523 4185 
L 2240 4185 
C 2771 4185 3750 3873 3750 2140 
C 3750 1242 3488 879 3366 707 
C 3213 510 2848 166 2240 166 
L 1523 166 
z
" transform="scale(0.015625)"/>
      <path id="CMR17-52" d="M 2509 2156 
C 3117 2278 3629 2689 3629 3203 
C 3629 3806 2950 4352 2054 4352 
L 333 4352 
L 333 4185 
C 774 4185 845 4185 845 3896 
L 845 428 
C 845 140 774 140 333 140 
L 333 -26 
C 518 -13 851 -13 1050 -13 
C 1248 -13 1581 -13 1766 -26 
L 1766 140 
C 1325 140 1254 140 1254 428 
L 1254 2112 
L 2003 2112 
C 2368 2112 2573 1964 2662 1881 
C 2918 1632 2918 1459 2918 1024 
C 2918 595 2918 377 3110 160 
C 3354 -103 3680 -128 3821 -128 
C 4294 -128 4365 403 4365 512 
C 4365 550 4365 595 4307 595 
C 4256 595 4250 556 4250 531 
C 4218 115 4032 -26 3834 -26 
C 3482 -26 3443 377 3405 768 
C 3386 902 3373 998 3360 1139 
C 3322 1459 3270 1926 2509 2156 
z
M 1984 2214 
L 1254 2214 
L 1254 3935 
C 1254 4153 1267 4185 1523 4185 
L 1990 4185 
C 2522 4185 3142 3999 3142 3203 
C 3142 2374 2464 2214 1984 2214 
z
" transform="scale(0.015625)"/>
      <path id="CMR17-46" d="M 3482 4339 
L 326 4339 
L 326 4172 
C 768 4172 838 4172 838 3883 
L 838 450 
C 838 166 768 166 326 166 
L 326 0 
C 512 12 870 12 1069 12 
C 1331 12 1638 12 1901 0 
L 1901 166 
L 1760 166 
C 1274 166 1261 229 1261 456 
L 1261 2073 
L 1837 2073 
C 2432 2073 2490 1865 2490 1334 
L 2605 1334 
L 2605 2991 
L 2490 2991 
C 2490 2451 2432 2240 1837 2240 
L 1261 2240 
L 1261 3922 
C 1261 4140 1274 4172 1530 4172 
L 2355 4172 
C 3322 4172 3430 3774 3520 2920 
L 3635 2920 
L 3482 4339 
z
" transform="scale(0.015625)"/>
      <path id="CMR17-49" d="M 1261 3898 
C 1261 4185 1338 4185 1798 4185 
L 1798 4352 
C 1594 4339 1267 4339 1050 4339 
C 832 4339 506 4339 301 4352 
L 301 4185 
C 762 4185 838 4185 838 3898 
L 838 453 
C 838 166 762 166 301 166 
L 301 0 
C 506 12 832 12 1050 12 
C 1267 12 1594 12 1798 0 
L 1798 166 
C 1338 166 1261 166 1261 453 
L 1261 3898 
z
" transform="scale(0.015625)"/>
      <path id="CMR17-54" d="M 3981 4332 
L 288 4332 
L 179 2924 
L 294 2924 
C 378 3981 467 4166 1453 4166 
C 1568 4166 1754 4166 1805 4159 
C 1926 4140 1926 4064 1926 3917 
L 1926 465 
C 1926 236 1907 166 1376 166 
L 1197 166 
L 1197 0 
C 1504 6 1824 12 2138 12 
C 2451 12 2771 6 3078 0 
L 3078 166 
L 2899 166 
C 2368 166 2349 236 2349 465 
L 2349 3917 
C 2349 4057 2349 4134 2464 4159 
C 2515 4166 2701 4166 2816 4166 
C 3795 4166 3891 3981 3974 2924 
L 4090 2924 
L 3981 4332 
z
" transform="scale(0.015625)"/>
      <path id="CMR17-3a" d="M 1062 2489 
C 1062 2649 934 2752 800 2752 
C 672 2752 538 2649 538 2489 
C 538 2329 666 2227 800 2227 
C 928 2227 1062 2329 1062 2489 
z
M 1062 262 
C 1062 422 934 524 800 524 
C 672 524 538 422 538 262 
C 538 102 666 0 800 0 
C 928 0 1062 102 1062 262 
z
" transform="scale(0.015625)"/>
      <path id="CMR17-66" d="M 979 2585 
L 1709 2585 
L 1709 2752 
L 966 2752 
L 966 3539 
C 966 4076 1235 4377 1510 4377 
C 1594 4377 1690 4363 1754 4339 
C 1702 4326 1568 4281 1568 4121 
C 1568 3955 1696 3904 1786 3904 
C 1875 3904 2003 3955 2003 4121 
C 2003 4353 1773 4480 1517 4480 
C 1152 4480 653 4211 653 3526 
L 653 2752 
L 141 2752 
L 141 2585 
L 653 2585 
L 653 441 
C 653 198 627 166 218 166 
L 218 0 
C 371 12 666 12 832 12 
C 1018 12 1344 12 1517 0 
L 1517 166 
C 1056 166 979 166 979 454 
L 979 2585 
z
" transform="scale(0.015625)"/>
      <path id="CMR17-48" d="M 3590 3898 
C 3590 4185 3661 4185 4102 4185 
L 4102 4352 
C 3917 4339 3578 4339 3379 4339 
C 3181 4339 2842 4339 2656 4352 
L 2656 4185 
C 3098 4185 3168 4185 3168 3898 
L 3168 2342 
L 1261 2342 
L 1261 3898 
C 1261 4185 1331 4185 1773 4185 
L 1773 4352 
C 1587 4339 1248 4339 1050 4339 
C 851 4339 512 4339 326 4352 
L 326 4185 
C 768 4185 838 4185 838 3898 
L 838 452 
C 838 166 768 166 326 166 
L 326 0 
C 512 12 851 12 1050 12 
C 1248 12 1587 12 1773 0 
L 1773 166 
C 1331 166 1261 166 1261 452 
L 1261 2176 
L 3168 2176 
L 3168 452 
C 3168 166 3098 166 2656 166 
L 2656 0 
C 2842 12 3181 12 3379 12 
C 3578 12 3917 12 4102 0 
L 4102 166 
C 3661 166 3590 166 3590 452 
L 3590 3898 
z
" transform="scale(0.015625)"/>
      <path id="CMR17-76" d="M 2502 2173 
C 2560 2315 2662 2572 3034 2585 
L 3034 2752 
C 2912 2745 2752 2739 2630 2739 
C 2496 2739 2285 2739 2157 2752 
L 2157 2585 
C 2317 2572 2406 2495 2406 2328 
C 2406 2270 2406 2257 2368 2167 
L 1664 379 
L 902 2308 
C 864 2392 864 2405 864 2431 
C 864 2585 1075 2585 1171 2585 
L 1171 2752 
C 1018 2739 736 2739 576 2739 
C 403 2739 205 2739 64 2752 
L 64 2585 
C 307 2585 442 2585 518 2386 
L 1446 44 
C 1485 -52 1491 -64 1549 -64 
C 1606 -64 1613 -52 1651 44 
L 2502 2173 
z
" transform="scale(0.015625)"/>
      <path id="CMR17-2e" d="M 1062 262 
C 1062 422 934 524 800 524 
C 672 524 538 422 538 262 
C 538 102 666 0 800 0 
C 928 0 1062 102 1062 262 
z
" transform="scale(0.015625)"/>
      <path id="CMR17-77" d="M 3725 2186 
C 3853 2566 4109 2579 4205 2585 
L 4205 2752 
C 4077 2745 3949 2739 3821 2739 
C 3699 2739 3424 2739 3315 2752 
L 3315 2585 
C 3514 2572 3622 2456 3622 2296 
C 3622 2251 3610 2193 3597 2148 
L 2995 398 
L 2342 2296 
C 2330 2341 2310 2392 2310 2418 
C 2310 2585 2528 2585 2630 2585 
L 2630 2752 
C 2483 2739 2214 2739 2061 2739 
C 1901 2739 1734 2739 1587 2752 
L 1587 2585 
C 1939 2585 1939 2572 2074 2167 
L 1485 443 
L 851 2302 
C 819 2386 819 2399 819 2418 
C 819 2585 1037 2585 1139 2585 
L 1139 2752 
C 986 2739 717 2739 557 2739 
C 416 2739 198 2739 64 2752 
L 64 2585 
C 346 2585 416 2566 486 2353 
L 1274 38 
C 1299 -45 1318 -64 1370 -64 
C 1414 -64 1440 -52 1472 44 
L 2131 1987 
L 2797 44 
C 2829 -52 2854 -64 2899 -64 
C 2950 -64 2970 -45 2995 38 
L 3725 2186 
z
" transform="scale(0.015625)"/>
      <path id="CMR17-2d" d="M 1632 1254 
L 1632 1536 
L 26 1536 
L 26 1254 
L 1632 1254 
z
" transform="scale(0.015625)"/>
      <path id="CMR17-79" d="M 2496 2183 
C 2656 2579 2944 2585 3034 2585 
L 3034 2752 
C 2912 2745 2752 2739 2630 2739 
C 2496 2739 2285 2739 2157 2752 
L 2157 2585 
C 2400 2566 2406 2384 2406 2332 
C 2406 2268 2394 2235 2362 2158 
L 1664 409 
L 902 2300 
C 870 2378 870 2423 870 2430 
C 870 2572 1018 2585 1171 2585 
L 1171 2752 
C 1018 2739 742 2739 582 2739 
C 410 2739 205 2739 64 2752 
L 64 2585 
C 410 2585 448 2553 531 2345 
L 1485 -31 
C 1197 -795 1030 -1242 627 -1242 
C 557 -1242 397 -1223 282 -1106 
C 429 -1093 493 -1002 493 -892 
C 493 -782 416 -685 288 -685 
C 147 -685 77 -782 77 -899 
C 77 -1158 339 -1344 627 -1344 
C 998 -1344 1229 -983 1357 -659 
L 2496 2183 
z
" transform="scale(0.015625)"/>
     </defs>
     <use xlink:href="#CMR17-71" transform="scale(0.996264)"/>
     <use xlink:href="#CMR17-44" transform="translate(48.292916 0) scale(0.996264)"/>
     <use xlink:href="#CMR17-52" transform="translate(118.686472 0) scale(0.996264)"/>
     <use xlink:href="#CMR17-46" transform="translate(186.477574 0) scale(0.996264)"/>
     <use xlink:href="#CMR17-49" transform="translate(246.46142 0) scale(0.996264)"/>
     <use xlink:href="#CMR17-54" transform="translate(279.099829 0) scale(0.996264)"/>
     <use xlink:href="#CMR17-65" transform="translate(375.685676 0) scale(0.996264)"/>
     <use xlink:href="#CMR17-72" transform="translate(416.171337 0) scale(0.996264)"/>
     <use xlink:href="#CMR17-72" transform="translate(451.452105 0) scale(0.996264)"/>
     <use xlink:href="#CMR17-6f" transform="translate(486.732872 0) scale(0.996264)"/>
     <use xlink:href="#CMR17-72" transform="translate(532.42335 0) scale(0.996264)"/>
     <use xlink:href="#CMR17-3a" transform="translate(567.704117 0) scale(0.996264)"/>
     <use xlink:href="#CMR17-66" transform="translate(633.060836 0) scale(0.996264)"/>
     <use xlink:href="#CMR17-75" transform="translate(660.534349 0) scale(0.996264)"/>
     <use xlink:href="#CMR17-6c" transform="translate(711.429719 0) scale(0.996264)"/>
     <use xlink:href="#CMR17-6c" transform="translate(736.300777 0) scale(0.996264)"/>
     <use xlink:href="#CMR17-48" transform="translate(791.247802 0) scale(0.996264)"/>
     <use xlink:href="#CMR17-69" transform="translate(860.320232 0) scale(0.996264)"/>
     <use xlink:href="#CMR17-6c" transform="translate(885.19129 0) scale(0.996264)"/>
     <use xlink:href="#CMR17-62" transform="translate(910.062349 0) scale(0.996264)"/>
     <use xlink:href="#CMR17-65" transform="translate(963.560157 0) scale(0.996264)"/>
     <use xlink:href="#CMR17-72" transform="translate(1004.045818 0) scale(0.996264)"/>
     <use xlink:href="#CMR17-74" transform="translate(1039.326585 0) scale(0.996264)"/>
     <use xlink:href="#CMR17-73" transform="translate(1104.68332 0) scale(0.996264)"/>
     <use xlink:href="#CMR17-70" transform="translate(1140.484657 0) scale(0.996264)"/>
     <use xlink:href="#CMR17-61" transform="translate(1191.380027 0) scale(0.996264)"/>
     <use xlink:href="#CMR17-63" transform="translate(1237.070504 0) scale(0.996264)"/>
     <use xlink:href="#CMR17-65" transform="translate(1277.556165 0) scale(0.996264)"/>
     <use xlink:href="#CMR17-76" transform="translate(1348.117791 0) scale(0.996264)"/>
     <use xlink:href="#CMR17-73" transform="translate(1396.410707 0) scale(0.996264)"/>
     <use xlink:href="#CMR17-2e" transform="translate(1432.212045 0) scale(0.996264)"/>
     <use xlink:href="#CMR17-6c" transform="translate(1497.568764 0) scale(0.996264)"/>
     <use xlink:href="#CMR17-6f" transform="translate(1522.439822 0) scale(0.996264)"/>
     <use xlink:href="#CMR17-77" transform="translate(1565.527845 0) scale(0.996264)"/>
     <use xlink:href="#CMR17-2d" transform="translate(1632.037726 0) scale(0.996264)"/>
     <use xlink:href="#CMR17-65" transform="translate(1662.113692 0) scale(0.996264)"/>
     <use xlink:href="#CMR17-6e" transform="translate(1702.599353 0) scale(0.996264)"/>
     <use xlink:href="#CMR17-65" transform="translate(1753.494723 0) scale(0.996264)"/>
     <use xlink:href="#CMR17-72" transform="translate(1793.980383 0) scale(0.996264)"/>
     <use xlink:href="#CMR17-67" transform="translate(1829.261151 0) scale(0.996264)"/>
     <use xlink:href="#CMR17-79" transform="translate(1874.951628 0) scale(0.996264)"/>
     <use xlink:href="#CMR17-73" transform="translate(1953.32051 0) scale(0.996264)"/>
     <use xlink:href="#CMR17-75" transform="translate(1989.121848 0) scale(0.996264)"/>
     <use xlink:href="#CMR17-62" transform="translate(2040.017218 0) scale(0.996264)"/>
     <use xlink:href="#CMR17-73" transform="translate(2090.912587 0) scale(0.996264)"/>
     <use xlink:href="#CMR17-70" transform="translate(2126.713925 0) scale(0.996264)"/>
     <use xlink:href="#CMR17-61" transform="translate(2177.609295 0) scale(0.996264)"/>
     <use xlink:href="#CMR17-63" transform="translate(2223.299772 0) scale(0.996264)"/>
     <use xlink:href="#CMR17-65" transform="translate(2263.785432 0) scale(0.996264)"/>
    </g>
   </g>
   <g id="legend_1">
    <g id="patch_7">
     <path d="M 64.6 302.584 
L 163.847699 302.584 
Q 165.847699 302.584 165.847699 300.584 
L 165.847699 190.086573 
Q 165.847699 188.086573 163.847699 188.086573 
L 64.6 188.086573 
Q 62.6 188.086573 62.6 190.086573 
L 62.6 300.584 
Q 62.6 302.584 64.6 302.584 
z
" style="fill: #ffffff; opacity: 0.8; stroke: #cccccc; stroke-linejoin: miter"/>
    </g>
    <g id="line2d_22">
     <path d="M 66.6 196.086573 
L 86.6 196.086573 
" style="fill: none; stroke: #1f77b4; stroke-width: 2; stroke-linecap: square"/>
    </g>
    <g id="text_17">
     <!-- $t=1.0$ -->
     <g transform="translate(94.6 199.086573) scale(0.1 -0.1)">
      <defs>
       <path id="CMMI12-74" d="M 1286 2566 
L 1875 2566 
C 1997 2566 2061 2566 2061 2681 
C 2061 2752 2022 2752 1894 2752 
L 1331 2752 
L 1568 3664 
C 1594 3752 1594 3764 1594 3808 
C 1594 3910 1510 3968 1427 3968 
C 1376 3968 1229 3948 1178 3746 
L 928 2752 
L 326 2752 
C 198 2752 141 2752 141 2630 
C 141 2566 186 2566 307 2566 
L 877 2566 
L 454 881 
C 403 657 384 593 384 510 
C 384 210 595 -64 954 -64 
C 1600 -64 1946 868 1946 913 
C 1946 951 1920 970 1882 970 
C 1869 970 1843 970 1830 944 
C 1824 938 1818 932 1773 830 
C 1638 510 1344 64 973 64 
C 781 64 768 223 768 364 
C 768 370 768 491 787 568 
L 1286 2566 
z
" transform="scale(0.015625)"/>
       <path id="CMR17-3d" d="M 4115 2048 
C 4211 2048 4307 2048 4307 2156 
C 4307 2272 4198 2272 4090 2272 
L 512 2272 
C 403 2272 294 2272 294 2156 
C 294 2048 390 2048 486 2048 
L 4115 2048 
z
M 4090 927 
C 4198 927 4307 927 4307 1043 
C 4307 1152 4211 1152 4115 1152 
L 486 1152 
C 390 1152 294 1152 294 1043 
C 294 927 403 927 512 927 
L 4090 927 
z
" transform="scale(0.015625)"/>
      </defs>
      <use xlink:href="#CMMI12-74" transform="scale(0.996264)"/>
      <use xlink:href="#CMR17-3d" transform="translate(62.900339 0) scale(0.996264)"/>
      <use xlink:href="#CMR17-31" transform="translate(162.289136 0) scale(0.996264)"/>
      <use xlink:href="#CMMI12-3a" transform="translate(207.979613 0) scale(0.996264)"/>
      <use xlink:href="#CMR17-30" transform="translate(235.07679 0) scale(0.996264)"/>
     </g>
    </g>
    <g id="line2d_23">
     <path d="M 66.6 210.023752 
L 86.6 210.023752 
" style="fill: none; stroke-dasharray: 7.4,3.2; stroke-dashoffset: 0; stroke: #1f77b4; stroke-width: 2"/>
    </g>
    <g id="text_18">
     <!-- $t=1.0$, $\Delta =2$ -->
     <g transform="translate(94.6 213.023752) scale(0.1 -0.1)">
      <defs>
       <path id="CMR17-2c" d="M 1011 102 
C 1024 44 1024 25 1024 -76 
C 1024 -451 896 -795 627 -1108 
C 595 -1140 595 -1152 595 -1165 
C 595 -1191 621 -1216 646 -1216 
C 685 -1216 1126 -776 1126 -82 
C 1126 128 1101 524 800 524 
C 659 524 538 428 538 262 
C 538 96 659 0 800 0 
C 877 0 960 32 1011 102 
z
" transform="scale(0.015625)"/>
       <path id="CMR17-1" d="M 2598 4435 
C 2547 4544 2522 4544 2470 4544 
C 2394 4544 2387 4531 2342 4441 
L 269 108 
C 262 96 237 38 237 32 
C 237 6 243 0 358 0 
L 4576 0 
C 4691 0 4698 6 4698 32 
C 4698 38 4672 96 4666 108 
L 2598 4435 
z
M 2310 4056 
L 4083 358 
L 531 358 
L 2310 4056 
z
" transform="scale(0.015625)"/>
      </defs>
      <use xlink:href="#CMMI12-74" transform="scale(0.996264)"/>
      <use xlink:href="#CMR17-3d" transform="translate(62.900339 0) scale(0.996264)"/>
      <use xlink:href="#CMR17-31" transform="translate(162.289136 0) scale(0.996264)"/>
      <use xlink:href="#CMMI12-3a" transform="translate(207.979613 0) scale(0.996264)"/>
      <use xlink:href="#CMR17-30" transform="translate(235.07679 0) scale(0.996264)"/>
      <use xlink:href="#CMR17-2c" transform="translate(280.767267 0) scale(0.996264)"/>
      <use xlink:href="#CMR17-1" transform="translate(335.714292 0) scale(0.996264)"/>
      <use xlink:href="#CMR17-3d" transform="translate(440.307891 0) scale(0.996264)"/>
      <use xlink:href="#CMR17-32" transform="translate(539.696688 0) scale(0.996264)"/>
     </g>
    </g>
    <g id="line2d_24">
     <path d="M 66.6 223.96093 
L 86.6 223.96093 
" style="fill: none; stroke: #ff7f0e; stroke-width: 2; stroke-linecap: square"/>
    </g>
    <g id="text_19">
     <!-- $t=3.0$ -->
     <g transform="translate(94.6 226.96093) scale(0.1 -0.1)">
      <use xlink:href="#CMMI12-74" transform="scale(0.996264)"/>
      <use xlink:href="#CMR17-3d" transform="translate(62.900339 0) scale(0.996264)"/>
      <use xlink:href="#CMR17-33" transform="translate(162.289136 0) scale(0.996264)"/>
      <use xlink:href="#CMMI12-3a" transform="translate(207.979613 0) scale(0.996264)"/>
      <use xlink:href="#CMR17-30" transform="translate(235.07679 0) scale(0.996264)"/>
     </g>
    </g>
    <g id="line2d_25">
     <path d="M 66.6 237.898108 
L 86.6 237.898108 
" style="fill: none; stroke-dasharray: 7.4,3.2; stroke-dashoffset: 0; stroke: #ff7f0e; stroke-width: 2"/>
    </g>
    <g id="text_20">
     <!-- $t=3.0$, $\Delta =2$ -->
     <g transform="translate(94.6 240.898108) scale(0.1 -0.1)">
      <use xlink:href="#CMMI12-74" transform="scale(0.996264)"/>
      <use xlink:href="#CMR17-3d" transform="translate(62.900339 0) scale(0.996264)"/>
      <use xlink:href="#CMR17-33" transform="translate(162.289136 0) scale(0.996264)"/>
      <use xlink:href="#CMMI12-3a" transform="translate(207.979613 0) scale(0.996264)"/>
      <use xlink:href="#CMR17-30" transform="translate(235.07679 0) scale(0.996264)"/>
      <use xlink:href="#CMR17-2c" transform="translate(280.767267 0) scale(0.996264)"/>
      <use xlink:href="#CMR17-1" transform="translate(335.714292 0) scale(0.996264)"/>
      <use xlink:href="#CMR17-3d" transform="translate(440.307891 0) scale(0.996264)"/>
      <use xlink:href="#CMR17-32" transform="translate(539.696688 0) scale(0.996264)"/>
     </g>
    </g>
    <g id="line2d_26">
     <path d="M 66.6 251.835287 
L 86.6 251.835287 
" style="fill: none; stroke: #2ca02c; stroke-width: 2; stroke-linecap: square"/>
    </g>
    <g id="text_21">
     <!-- $t=5.0$ -->
     <g transform="translate(94.6 254.835287) scale(0.1 -0.1)">
      <use xlink:href="#CMMI12-74" transform="scale(0.996264)"/>
      <use xlink:href="#CMR17-3d" transform="translate(62.900339 0) scale(0.996264)"/>
      <use xlink:href="#CMR17-35" transform="translate(162.289136 0) scale(0.996264)"/>
      <use xlink:href="#CMMI12-3a" transform="translate(207.979613 0) scale(0.996264)"/>
      <use xlink:href="#CMR17-30" transform="translate(235.07679 0) scale(0.996264)"/>
     </g>
    </g>
    <g id="line2d_27">
     <path d="M 66.6 265.772465 
L 86.6 265.772465 
" style="fill: none; stroke-dasharray: 7.4,3.2; stroke-dashoffset: 0; stroke: #2ca02c; stroke-width: 2"/>
    </g>
    <g id="text_22">
     <!-- $t=5.0$, $\Delta =2$ -->
     <g transform="translate(94.6 268.772465) scale(0.1 -0.1)">
      <use xlink:href="#CMMI12-74" transform="scale(0.996264)"/>
      <use xlink:href="#CMR17-3d" transform="translate(62.900339 0) scale(0.996264)"/>
      <use xlink:href="#CMR17-35" transform="translate(162.289136 0) scale(0.996264)"/>
      <use xlink:href="#CMMI12-3a" transform="translate(207.979613 0) scale(0.996264)"/>
      <use xlink:href="#CMR17-30" transform="translate(235.07679 0) scale(0.996264)"/>
      <use xlink:href="#CMR17-2c" transform="translate(280.767267 0) scale(0.996264)"/>
      <use xlink:href="#CMR17-1" transform="translate(335.714292 0) scale(0.996264)"/>
      <use xlink:href="#CMR17-3d" transform="translate(440.307891 0) scale(0.996264)"/>
      <use xlink:href="#CMR17-32" transform="translate(539.696688 0) scale(0.996264)"/>
     </g>
    </g>
    <g id="line2d_28">
     <path d="M 66.6 279.709643 
L 86.6 279.709643 
" style="fill: none; stroke: #d62728; stroke-width: 2; stroke-linecap: square"/>
    </g>
    <g id="text_23">
     <!-- $t=10.0$ -->
     <g transform="translate(94.6 282.709643) scale(0.1 -0.1)">
      <use xlink:href="#CMMI12-74" transform="scale(0.996264)"/>
      <use xlink:href="#CMR17-3d" transform="translate(62.900339 0) scale(0.996264)"/>
      <use xlink:href="#CMR17-31" transform="translate(162.289136 0) scale(0.996264)"/>
      <use xlink:href="#CMR17-30" transform="translate(207.979613 0) scale(0.996264)"/>
      <use xlink:href="#CMMI12-3a" transform="translate(253.67009 0) scale(0.996264)"/>
      <use xlink:href="#CMR17-30" transform="translate(280.767267 0) scale(0.996264)"/>
     </g>
    </g>
    <g id="line2d_29">
     <path d="M 66.6 293.646822 
L 86.6 293.646822 
" style="fill: none; stroke-dasharray: 7.4,3.2; stroke-dashoffset: 0; stroke: #d62728; stroke-width: 2"/>
    </g>
    <g id="text_24">
     <!-- $t=10.0$, $\Delta =2$ -->
     <g transform="translate(94.6 296.646822) scale(0.1 -0.1)">
      <use xlink:href="#CMMI12-74" transform="scale(0.996264)"/>
      <use xlink:href="#CMR17-3d" transform="translate(62.900339 0) scale(0.996264)"/>
      <use xlink:href="#CMR17-31" transform="translate(162.289136 0) scale(0.996264)"/>
      <use xlink:href="#CMR17-30" transform="translate(207.979613 0) scale(0.996264)"/>
      <use xlink:href="#CMMI12-3a" transform="translate(253.67009 0) scale(0.996264)"/>
      <use xlink:href="#CMR17-30" transform="translate(280.767267 0) scale(0.996264)"/>
      <use xlink:href="#CMR17-2c" transform="translate(326.457745 0) scale(0.996264)"/>
      <use xlink:href="#CMR17-1" transform="translate(381.404769 0) scale(0.996264)"/>
      <use xlink:href="#CMR17-3d" transform="translate(485.998368 0) scale(0.996264)"/>
      <use xlink:href="#CMR17-32" transform="translate(585.387165 0) scale(0.996264)"/>
     </g>
    </g>
   </g>
  </g>
 </g>
 <defs>
  <clipPath id="p54f6986286">
   <rect x="57.6" y="41.472" width="357.12" height="266.112"/>
  </clipPath>
 </defs>
</svg>
